<?xml version="1.0" encoding="UTF-8" standalone="no"?>
<!-- Created with Inkscape (http://www.inkscape.org/) -->

<svg
   xmlns:dc="http://purl.org/dc/elements/1.1/"
   xmlns:cc="http://creativecommons.org/ns#"
   xmlns:rdf="http://www.w3.org/1999/02/22-rdf-syntax-ns#"
   xmlns:svg="http://www.w3.org/2000/svg"
   xmlns="http://www.w3.org/2000/svg"
   xmlns:sodipodi="http://sodipodi.sourceforge.net/DTD/sodipodi-0.dtd"
   xmlns:inkscape="http://www.inkscape.org/namespaces/inkscape"
   id="svg2"
   version="1.1"
   inkscape:version="0.92+devel (17f8b1805e, 2018-12-05)"
   width="737.77655"
   height="737.77655"
   sodipodi:docname="ani.svg">
  <metadata
     id="metadata8">
    <rdf:RDF>
      <cc:Work
         rdf:about="">
        <dc:format>image/svg+xml</dc:format>
        <dc:type
           rdf:resource="http://purl.org/dc/dcmitype/StillImage" />
        <dc:title />
      </cc:Work>
    </rdf:RDF>
  </metadata>
  <defs
     id="defs6" />
  <sodipodi:namedview
     pagecolor="#ffffff"
     bordercolor="#666666"
     borderopacity="1"
     objecttolerance="10"
     gridtolerance="10"
     guidetolerance="10"
     inkscape:pageopacity="0"
     inkscape:pageshadow="2"
     inkscape:window-width="1336"
     inkscape:window-height="969"
     id="namedview4"
     showgrid="false"
     borderlayer="true"
     inkscape:showpageshadow="false"
     inkscape:zoom="0.5"
     inkscape:cx="348.50629"
     inkscape:cy="480.67094"
     inkscape:window-x="473"
     inkscape:window-y="27"
     inkscape:window-maximized="0"
     inkscape:current-layer="layer5"
     showguides="true"
     inkscape:guide-bbox="true"
     inkscape:document-rotation="0"
     inkscape:snap-global="false" />
  <g
     id="g2987"
     transform="translate(90.724182,-107.91458)"
     style="display:inline" />
  <g
     inkscape:groupmode="layer"
     id="layer8"
     inkscape:label="BG"
     style="display:inline"
     transform="translate(66.995368,85.305756)" />
  <g
     inkscape:groupmode="layer"
     id="layer1"
     inkscape:label="cat-body"
     style="display:inline"
     transform="translate(66.995368,85.305756)" />
  <g
     inkscape:groupmode="layer"
     id="layer2"
     inkscape:label="cat-tail"
     style="display:inline"
     transform="translate(66.995368,85.305756)" />
  <g
     inkscape:groupmode="layer"
     id="layer3"
     inkscape:label="eyes"
     style="display:inline"
     transform="translate(66.995368,85.305756)" />
  <g
     inkscape:groupmode="layer"
     id="layer4"
     inkscape:label="ears"
     style="display:inline"
     transform="translate(66.995368,85.305756)" />
  <g
     inkscape:groupmode="layer"
     id="layer7"
     inkscape:label="mouth"
     style="display:inline"
     transform="translate(66.995368,85.305756)" />
  <g
     inkscape:groupmode="layer"
     id="layer6"
     inkscape:label="whisker"
     style="display:inline"
     transform="translate(66.995368,85.305756)" />
  <g
     inkscape:groupmode="layer"
     id="layer5"
     inkscape:label="nose"
     style="display:inline"
     transform="translate(66.995368,85.305756)">
    <path
       inkscape:connector-curvature="0"
       id="path5717"
       d="m 219.10647,616.01692 c -13.11907,-2.93066 -21.7043,-7.51768 -28.48222,-15.2178 -5.7846,-6.57165 -8.28024,-13.99677 -7.82555,-23.28286 0.4157,-8.48995 3.07587,-14.78256 9.84135,-23.27964 2.18153,-2.73989 3.96642,-5.28425 3.96642,-5.65413 0,-0.36988 -2.70045,-2.57692 -6.00101,-4.90454 -17.69149,-12.47638 -35.02064,-33.4481 -45.05997,-54.53153 -10.50503,-22.06145 -13.42338,-35.48089 -13.2941,-61.13016 0.0895,-17.75997 0.2935,-19.75877 3.12544,-30.62612 1.66633,-6.39437 4.64967,-15.67516 6.62966,-20.62399 1.97999,-4.94882 3.56923,-9.39207 3.53166,-9.87387 -0.0376,-0.48181 -3.43608,-3.51728 -7.55221,-6.74548 -8.82566,-6.92179 -8.37601,-6.91097 -27.41308,-0.65976 -12.956885,4.25466 -26.822115,10.43757 -42.099211,18.77324 -5.298053,2.89079 -9.866531,5.25598 -10.152175,5.25598 -0.437891,0 -2.715003,-5.5768 -2.715003,-6.64922 0,-0.19293 0.4037,-0.35078 0.897112,-0.35078 0.493412,0 10.178327,-4.27441 21.522035,-9.49868 11.343707,-5.22427 26.352512,-11.39641 33.352892,-13.71587 7.00038,-2.31945 12.88351,-4.3131 13.07362,-4.43031 0.88762,-0.54728 -11.53834,-14.31007 -12.93911,-14.33116 -3.32274,-0.05 -14.185165,4.37472 -37.238829,15.16897 -24.222652,11.3416 -25.595009,11.71959 -25.652407,7.0654 -0.01862,-1.50987 17.139515,-10.2204 34.047304,-17.28451 11.018347,-4.60349 23.670932,-10.50762 24.864152,-11.60246 0.59226,-0.54343 -7.25842,-15.34729 -8.145925,-15.3606 -1.39615,-0.0209 -27.724673,11.94773 -41.864769,19.03126 l -14.322129,7.17473 -1.796973,-2.21917 c -0.988335,-1.22054 -1.796973,-2.73675 -1.796973,-3.36934 0,-0.6326 4.6125,-3.13637 10.25,-5.56393 5.6375,-2.42757 18.248949,-8.40462 28.025442,-13.28234 9.776492,-4.87771 18.207722,-8.60141 18.736062,-8.27488 0.52835,0.32654 0.1402,-1.34148 -0.86254,-3.7067 C 86.981019,281.62 83.276428,249.54512 85.556899,214.01626 c 1.39469,-21.72883 2.378126,-27.19435 8.543016,-47.47846 5.04796,-16.60907 6.110555,-19.36914 11.750375,-30.52154 l 4.04565,-8 0.17002,-53.999994 c 0.18042,-57.300607 0.79993,-67.3241908 5.65522,-91.5 2.42377,-12.068625 4.28233,-16.509082 8.087,-19.321377 l 2.70172,-1.997022 6.13335,2.094232 c 7.45765,2.546412 19.88647,10.245434 32.24935,19.97684 11.44477,9.0087154 70.36878,52.177674 72.15746,52.864053 0.72079,0.276594 5.97835,-0.396796 11.68347,-1.496423 21.70354,-4.183225 50.3358,-4.6358 69.02707,-1.091073 3.84247,0.72871 5.53869,0.658781 6.73166,-0.277525 3.20541,-2.515782 63.89147,-55.965933 73.11421,-64.396433 10.54634,-9.640394 22.33593,-17.830871 27.20589,-18.900493 6.72133,-1.476252 9.89381,6.20288 13.23886,32.045221 2.72477,21.0503542 3.7073,46.777391 3.39894,89 l -0.30673,41.999994 6.60612,10 c 12.24871,18.54145 26.05686,46.51702 31.33225,63.47972 4.26476,13.71307 6.52467,29.43656 6.52467,45.39589 0,18.19574 -1.23226,27.93194 -5.64786,44.62439 -1.96411,7.425 -3.63434,14.16901 -3.71163,14.98669 -0.15148,1.6028 20.15294,12.29164 37.85949,19.93034 5.5,2.37272 11.90739,5.13449 14.23864,6.13726 l 4.23865,1.8232 -1.73865,3.05493 c -0.95625,1.68022 -2.08306,3.05778 -2.50402,3.06126 -0.42095,0.003 -6.27095,-2.76051 -13,-6.1422 -12.36421,-6.21364 -40.40256,-18.85148 -41.82395,-18.85148 -0.85193,0 -9.33141,14.93626 -8.76508,15.43934 1.08787,0.96636 10.21085,5.10787 24.28133,11.02288 18.52805,7.78889 33.57308,15.16778 33.57308,16.46603 0,1.65361 -1.20097,4.07175 -2.02224,4.07175 -0.44455,0 -10.85891,-4.67118 -23.14302,-10.3804 -12.28411,-5.70922 -25.54918,-11.53221 -29.47794,-12.93998 l -7.14319,-2.55957 -4.85681,7.18997 c -2.67124,3.95449 -4.98456,7.46075 -5.14071,7.7917 -0.15615,0.33095 4.56885,2.30982 10.5,4.39748 5.93115,2.08767 16.18391,6.22091 22.78391,9.18498 6.6,2.96407 16.275,7.25798 21.5,9.54203 5.225,2.28405 9.61453,4.21957 9.75451,4.30115 0.38594,0.22492 -1.88987,6.47264 -2.35774,6.47264 -0.22417,0 -6.81764,-3.35226 -14.65217,-7.44947 -15.80851,-8.26735 -30.40024,-14.32997 -43.60946,-18.119 l -8.74152,-2.50749 -12.58345,12.28798 -12.58344,12.28798 1.51835,3.5 c 0.83509,1.925 3.27481,9.575 5.42161,17 3.09411,10.70141 4.20244,16.81685 5.34643,29.5 2.75488,30.54271 1.52004,47.80188 -4.53349,63.36384 -1.63373,4.19989 -2.9725,7.94821 -2.97503,8.32961 -0.008,1.26912 19.40059,11.63912 25.71385,13.7386 11.01736,3.66383 30.03518,2.29526 40.20558,-2.8933 5.70079,-2.90832 10.66278,-9.35475 14.21055,-18.46179 2.81759,-7.2327 3.24333,-9.74939 4.07304,-24.07696 1.03381,-17.8521 1.763,-21.67674 5.06777,-26.58068 4.94638,-7.33994 20.16078,-11.76574 30.72461,-8.93766 6.95918,1.86307 13.31016,9.00305 16.2065,18.21989 4.31168,13.72077 2.56004,41.98066 -3.86147,62.29845 -2.74645,8.68986 -11.26576,23.8854 -17.68504,31.54409 -11.36132,13.55493 -26.16063,23.36828 -41.65999,27.62453 -9.03723,2.4817 -33.58151,2.53594 -43.62124,0.0964 -17.30981,-4.20607 -37.41363,-12.96605 -54.85335,-23.90162 l -9.71622,-6.09255 -4.15459,3.95944 c -2.28503,2.17769 -6.95289,6.06962 -10.37302,8.64873 l -6.21843,4.68928 4.97392,6.17258 c 6.83694,8.48455 9.34329,15.21238 9.40989,25.25912 0.0482,7.26729 -0.26109,8.57939 -3.3768,14.32601 -4.18872,7.72569 -9.31297,12.33449 -18.77593,16.88724 -21.91825,10.54515 -53.45129,6.73733 -73.43813,-8.86814 -2.00415,-1.56481 -4.07493,-2.84511 -4.60174,-2.84511 -0.5268,0 -4.28705,2.19329 -8.35609,4.87397 -9.34147,6.15415 -18.17332,9.6406 -29.36575,11.5924 -10.52917,1.83613 -18.91897,1.84678 -27.03252,0.0343 z m 84.20143,-306.6557 c 3.02378,-0.76139 6.07151,-2.57739 8.94282,-5.32858 3.75233,-3.59536 4.35575,-4.7408 4.35575,-8.26824 0,-4.93641 -3.24454,-9.27064 -9.37579,-12.52468 -3.25156,-1.7257 -5.81694,-2.18884 -12.12421,-2.18884 -6.30727,0 -8.87265,0.46314 -12.12421,2.18884 -9.26035,4.91474 -12.07188,12.91897 -6.75667,19.23573 5.87405,6.98092 16.23881,9.6162 27.08231,6.88577 z m 99.97841,-38.82144 c 24.14535,-5.78481 42.51263,-22.02123 47.898,-42.34115 l 1.27682,-4.81763 -7.67733,-5.01796 c -20.46487,-13.37599 -42.01827,-20.1962 -63.67733,-20.14961 -13.0535,0.0281 -23.16464,2.44229 -33.94924,8.10599 -12.55317,6.5925 -26.0869,21.59515 -31.72996,35.17386 -2.10492,5.06501 -2.10865,5.1784 -0.23022,6.9861 1.05018,1.01063 5.05942,3.93403 8.90942,6.49643 24.36659,16.21741 52.97819,21.84144 79.17984,15.56397 z m -40.29593,-17.93664 c -12.33155,-5.59998 -15.3641,-24.74037 -5.70727,-36.02221 7.96503,-9.30535 20.17196,-7.20523 25.87513,4.45162 6.17054,12.61213 0.75405,29.3594 -10.50741,32.48791 -4.63883,1.2887 -4.84596,1.26903 -9.66045,-0.91732 z m -131.38391,16.79303 c 11.63834,-2.67859 23.53124,-8.62564 30.9088,-15.45596 l 6.01832,-5.57191 -2.46048,-6.53691 c -3.25794,-8.65555 -10.23782,-18.99137 -16.99642,-25.16835 -12.62561,-11.5391 -26.50816,-17.184 -44.07383,-17.92123 -13.57026,-0.56954 -23.56479,1.23381 -37.94501,6.84656 -9.94391,3.88121 -28.87854,14.32781 -31.33571,17.28851 -1.06043,1.27775 -0.55476,2.91548 3.03705,9.83619 5.30707,10.22565 16.21902,21.65442 26.34728,27.59515 18.99502,11.14152 43.20302,14.44981 66.5,9.08795 z M 209.92261,251.5728 c -9.86508,-4.47889 -13.98341,-19.9112 -8.28789,-31.05654 9.06492,-17.73876 29.82514,-11.73655 31.72099,9.17119 0.86817,9.57434 -4.13811,19.42204 -11.42043,22.46478 -4.35571,1.81994 -7.00988,1.69191 -12.01267,-0.57943 z m -52.67023,-175.851224 6.14592,-4.55131 -3.45358,-7.577 c -1.89947,-4.16735 -7.59014,-16.72712 -12.64592,-27.9106 l -9.19233,-20.333601 -0.61929,7.333601 c -0.34062,4.03348 -0.67812,21.663235 -0.75,39.17723 l -0.13071,31.84364 7.25,-6.71533 c 3.9875,-3.69343 10.01566,-8.76341 13.39591,-11.26663 z m 261.99001,6.15512 c -0.34975,-2.55177 -0.63592,-21.31677 -0.63592,-41.700001 0,-20.750206 -0.37842,-36.6423368 -0.85986,-36.1104298 -1.33057,1.470046 -23.38042,60.2463608 -22.98759,61.2759608 0.1911,0.50085 3.72245,3.63032 7.84745,6.95438 4.125,3.32405 9.27883,7.88331 11.45295,10.13169 2.17412,2.24838 4.37278,4.08797 4.88592,4.08797 0.53462,0 0.66145,-1.98099 0.29705,-4.63957 z"
       style="opacity:1;fill:#333333;fill-opacity:1;stop-opacity:1" />
  </g>
</svg>
