<?xml version="1.0" encoding="UTF-8" standalone="no"?>
<!-- Created with Inkscape (http://www.inkscape.org/) -->

<svg
   xmlns:dc="http://purl.org/dc/elements/1.1/"
   xmlns:cc="http://creativecommons.org/ns#"
   xmlns:rdf="http://www.w3.org/1999/02/22-rdf-syntax-ns#"
   xmlns:svg="http://www.w3.org/2000/svg"
   xmlns="http://www.w3.org/2000/svg"
   xmlns:xlink="http://www.w3.org/1999/xlink"
   xmlns:sodipodi="http://sodipodi.sourceforge.net/DTD/sodipodi-0.dtd"
   xmlns:inkscape="http://www.inkscape.org/namespaces/inkscape"
   id="svg2"
   viewBox="0 0 215.4014 211.4975"
   version="1.0"
   inkscape:version="0.92+devel (c6daf9ab0, 2018-11-14, custom)"
   sodipodi:docname="bugs.svg"
   width="215.4014"
   height="211.4975"
   inkscape:export-filename="/home/doctormo/Desktop/cafe.png"
   inkscape:export-xdpi="101.05"
   inkscape:export-ydpi="101.05">
  <defs
     id="defs66">
    <linearGradient
       id="linearGradient11550"
       inkscape:collect="always">
      <stop
         id="stop11552"
         offset="0"
         style="stop-color: rgb(255, 255, 255); stop-opacity: 1;" />
      <stop
         id="stop11554"
         offset="1"
         style="stop-color: rgb(255, 255, 255); stop-opacity: 0;" />
    </linearGradient>
    <linearGradient
       gradientTransform="matrix(10.16656,0,0,10.16656,-669.13135,16.801573)"
       y2="18.5"
       x2="36.5"
       y1="18.5"
       x1="25.5"
       gradientUnits="userSpaceOnUse"
       id="linearGradient10783"
       xlink:href="#linearGradient11550"
       inkscape:collect="always" />
    <inkscape:perspective
       sodipodi:type="inkscape:persp3d"
       inkscape:vp_x="0 : 547.6975 : 1"
       inkscape:vp_y="0 : 1000 : 0"
       inkscape:vp_z="744.10001 : 547.6975 : 1"
       inkscape:persp3d-origin="372 : 372.2975 : 1"
       id="perspective4007" />
    <inkscape:perspective
       id="perspective3992"
       inkscape:persp3d-origin="0.50000001 : 21.830798 : 1"
       inkscape:vp_z="1 : 21.997498 : 1"
       inkscape:vp_y="0 : 1000 : 0"
       inkscape:vp_x="0 : 21.997498 : 1"
       sodipodi:type="inkscape:persp3d" />
    <inkscape:perspective
       id="perspective4051"
       inkscape:persp3d-origin="0.50000001 : 21.830798 : 1"
       inkscape:vp_z="1 : 21.997498 : 1"
       inkscape:vp_y="0 : 1000 : 0"
       inkscape:vp_x="0 : 21.997498 : 1"
       sodipodi:type="inkscape:persp3d" />
    <inkscape:perspective
       id="perspective4103"
       inkscape:persp3d-origin="0.50000001 : 21.830798 : 1"
       inkscape:vp_z="1 : 21.997498 : 1"
       inkscape:vp_y="0 : 1000 : 0"
       inkscape:vp_x="0 : 21.997498 : 1"
       sodipodi:type="inkscape:persp3d" />
    <inkscape:perspective
       id="perspective4162"
       inkscape:persp3d-origin="0.50000001 : 21.830798 : 1"
       inkscape:vp_z="1 : 21.997498 : 1"
       inkscape:vp_y="0 : 1000 : 0"
       inkscape:vp_x="0 : 21.997498 : 1"
       sodipodi:type="inkscape:persp3d" />
    <inkscape:perspective
       id="perspective4214"
       inkscape:persp3d-origin="0.50000001 : 21.830798 : 1"
       inkscape:vp_z="1 : 21.997498 : 1"
       inkscape:vp_y="0 : 1000 : 0"
       inkscape:vp_x="0 : 21.997498 : 1"
       sodipodi:type="inkscape:persp3d" />
    <inkscape:perspective
       id="perspective4307"
       inkscape:persp3d-origin="0.50000001 : 21.830798 : 1"
       inkscape:vp_z="1 : 21.997498 : 1"
       inkscape:vp_y="0 : 1000 : 0"
       inkscape:vp_x="0 : 21.997498 : 1"
       sodipodi:type="inkscape:persp3d" />
  </defs>
  <sodipodi:namedview
     pagecolor="#ffffff"
     bordercolor="#666666"
     borderopacity="1"
     objecttolerance="10"
     gridtolerance="10"
     guidetolerance="10"
     inkscape:pageopacity="0"
     inkscape:pageshadow="2"
     inkscape:window-width="1855"
     inkscape:window-height="1056"
     id="namedview64"
     showgrid="false"
     fit-margin-top="0"
     fit-margin-left="0"
     fit-margin-right="0"
     fit-margin-bottom="0"
     inkscape:zoom="1"
     inkscape:cx="288.71312"
     inkscape:cy="136.91572"
     inkscape:window-x="65"
     inkscape:window-y="24"
     inkscape:window-maximized="1"
     inkscape:current-layer="svg2"
     inkscape:snap-global="false"
     inkscape:document-rotation="0" />
  <metadata
     id="metadata61">
    <rdf:RDF>
      <cc:Work>
        <dc:format>image/svg+xml</dc:format>
        <dc:type
           rdf:resource="http://purl.org/dc/dcmitype/StillImage" />
        <cc:license
           rdf:resource="http://creativecommons.org/publicdomain/zero/1.0/" />
        <dc:publisher>
          <cc:Agent
             rdf:about="http://openclipart.org/">
            <dc:title>Openclipart</dc:title>
          </cc:Agent>
        </dc:publisher>
        <dc:title></dc:title>
        <dc:date>2008-03-15T22:35:33</dc:date>
        <dc:description>Masonic Square and Compasses</dc:description>
        <dc:source>https://openclipart.org/detail/15800/square-and-compasses-by-coder7</dc:source>
        <dc:creator>
          <cc:Agent>
            <dc:title>coder7</dc:title>
          </cc:Agent>
        </dc:creator>
        <dc:subject>
          <rdf:Bag>
            <rdf:li>line art</rdf:li>
            <rdf:li>masonic</rdf:li>
            <rdf:li>outline</rdf:li>
          </rdf:Bag>
        </dc:subject>
      </cc:Work>
      <cc:License
         rdf:about="http://creativecommons.org/publicdomain/zero/1.0/">
        <cc:permits
           rdf:resource="http://creativecommons.org/ns#Reproduction" />
        <cc:permits
           rdf:resource="http://creativecommons.org/ns#Distribution" />
        <cc:permits
           rdf:resource="http://creativecommons.org/ns#DerivativeWorks" />
      </cc:License>
    </rdf:RDF>
  </metadata>
  <circle
     style="color:#000000;clip-rule:nonzero;display:inline;overflow:visible;visibility:visible;opacity:1;isolation:auto;mix-blend-mode:normal;color-interpolation:sRGB;color-interpolation-filters:linearRGB;solid-color:#000000;solid-opacity:1;fill:#ffffff;fill-opacity:1;fill-rule:nonzero;stroke:#808080;stroke-width:4.9916;stroke-linecap:round;stroke-linejoin:round;stroke-miterlimit:4;stroke-dasharray:none;stroke-dashoffset:0;stroke-opacity:1;marker:none;color-rendering:auto;image-rendering:auto;shape-rendering:auto;text-rendering:auto;enable-background:accumulate"
     id="path4147"
     cx="108.52701"
     cy="106.29736"
     r="89.856049" />
  <circle
     r="57.093945"
     cy="106.29736"
     cx="108.52701"
     id="circle4149"
     style="color:#000000;clip-rule:nonzero;display:inline;overflow:visible;visibility:visible;opacity:1;isolation:auto;mix-blend-mode:normal;color-interpolation:sRGB;color-interpolation-filters:linearRGB;solid-color:#000000;solid-opacity:1;fill:#ffffff;fill-opacity:1;fill-rule:nonzero;stroke:#808080;stroke-width:4.9916;stroke-linecap:round;stroke-linejoin:round;stroke-miterlimit:4;stroke-dasharray:none;stroke-dashoffset:0;stroke-opacity:1;marker:none;color-rendering:auto;image-rendering:auto;shape-rendering:auto;text-rendering:auto;enable-background:accumulate" />
  <path
     inkscape:connector-curvature="0"
     style="fill:none;fill-opacity:1;stroke:url(#linearGradient10783);stroke-width:10.1666;stroke-linecap:round;stroke-linejoin:miter;stroke-miterlimit:4;stroke-dasharray:none;stroke-dashoffset:1.96;stroke-opacity:1"
     id="path8421"
     sodipodi:nodetypes="cc"
     d="" />
  <circle
     style="font-variation-settings:normal;opacity:1;vector-effect:none;fill:#808080;fill-opacity:1;stroke:none;stroke-width:0.737319;stroke-linecap:butt;stroke-linejoin:miter;stroke-miterlimit:4;stroke-dasharray:none;stroke-dashoffset:0;stroke-opacity:1;paint-order:stroke fill markers;stop-color:#000000;stop-opacity:1"
     id="path30606"
     cx="198.59598"
     cy="109.96851"
     r="16.80542" />
  <circle
     r="16.80542"
     cy="109.4245"
     cx="16.80542"
     id="circle30608"
     style="font-variation-settings:normal;opacity:1;vector-effect:none;fill:#808080;fill-opacity:1;stroke:none;stroke-width:0.737319;stroke-linecap:butt;stroke-linejoin:miter;stroke-miterlimit:4;stroke-dasharray:none;stroke-dashoffset:0;stroke-opacity:1;paint-order:stroke fill markers;stop-color:#000000;stop-opacity:1" />
  <circle
     style="font-variation-settings:normal;opacity:1;vector-effect:none;fill:#808080;fill-opacity:1;stroke:none;stroke-width:0.737319;stroke-linecap:butt;stroke-linejoin:miter;stroke-miterlimit:4;stroke-dasharray:none;stroke-dashoffset:0;stroke-opacity:1;paint-order:stroke fill markers;stop-color:#000000;stop-opacity:1"
     id="circle30610"
     cx="107.41769"
     cy="16.80542"
     r="16.80542" />
  <circle
     r="16.80542"
     cy="194.69208"
     cx="108.60672"
     id="circle30612"
     style="font-variation-settings:normal;opacity:1;vector-effect:none;fill:#808080;fill-opacity:1;stroke:none;stroke-width:0.737319;stroke-linecap:butt;stroke-linejoin:miter;stroke-miterlimit:4;stroke-dasharray:none;stroke-dashoffset:0;stroke-opacity:1;paint-order:stroke fill markers;stop-color:#000000;stop-opacity:1" />
  <circle
     r="10.106842"
     cy="72.555603"
     cx="174.95645"
     id="circle30614"
     style="font-variation-settings:normal;opacity:1;vector-effect:none;fill:#808080;fill-opacity:1;stroke:none;stroke-width:0.443426;stroke-linecap:butt;stroke-linejoin:miter;stroke-miterlimit:4;stroke-dasharray:none;stroke-dashoffset:0;stroke-opacity:1;paint-order:stroke fill markers;stop-color:#000000;stop-opacity:1" />
  <circle
     style="font-variation-settings:normal;opacity:1;vector-effect:none;fill:#808080;fill-opacity:1;stroke:none;stroke-width:0.443426;stroke-linecap:butt;stroke-linejoin:miter;stroke-miterlimit:4;stroke-dasharray:none;stroke-dashoffset:0;stroke-opacity:1;paint-order:stroke fill markers;stop-color:#000000;stop-opacity:1"
     id="circle30616"
     cx="147.4451"
     cy="43.069366"
     r="10.106842" />
  <circle
     style="font-variation-settings:normal;opacity:1;vector-effect:none;fill:#808080;fill-opacity:1;stroke:none;stroke-width:0.443426;stroke-linecap:butt;stroke-linejoin:miter;stroke-miterlimit:4;stroke-dasharray:none;stroke-dashoffset:0;stroke-opacity:1;paint-order:stroke fill markers;stop-color:#000000;stop-opacity:1"
     id="circle30618"
     cx="148.56674"
     cy="167.86588"
     r="10.106842" />
  <circle
     r="10.106842"
     cy="139.10037"
     cx="173.75467"
     id="circle30620"
     style="font-variation-settings:normal;opacity:1;vector-effect:none;fill:#808080;fill-opacity:1;stroke:none;stroke-width:0.443426;stroke-linecap:butt;stroke-linejoin:miter;stroke-miterlimit:4;stroke-dasharray:none;stroke-dashoffset:0;stroke-opacity:1;paint-order:stroke fill markers;stop-color:#000000;stop-opacity:1" />
  <circle
     r="10.106842"
     cy="72.555603"
     cx="43.35675"
     id="circle30622"
     style="font-variation-settings:normal;opacity:1;vector-effect:none;fill:#808080;fill-opacity:1;stroke:none;stroke-width:0.443426;stroke-linecap:butt;stroke-linejoin:miter;stroke-miterlimit:4;stroke-dasharray:none;stroke-dashoffset:0;stroke-opacity:1;paint-order:stroke fill markers;stop-color:#000000;stop-opacity:1" />
  <circle
     style="font-variation-settings:normal;opacity:1;vector-effect:none;fill:#808080;fill-opacity:1;stroke:none;stroke-width:0.443426;stroke-linecap:butt;stroke-linejoin:miter;stroke-miterlimit:4;stroke-dasharray:none;stroke-dashoffset:0;stroke-opacity:1;paint-order:stroke fill markers;stop-color:#000000;stop-opacity:1"
     id="circle30624"
     cx="70.581207"
     cy="43.069366"
     r="10.106842" />
  <circle
     r="10.106842"
     cy="167.86588"
     cx="-67.754669"
     id="circle30626"
     style="font-variation-settings:normal;opacity:1;vector-effect:none;fill:#808080;fill-opacity:1;stroke:none;stroke-width:0.443426;stroke-linecap:butt;stroke-linejoin:miter;stroke-miterlimit:4;stroke-dasharray:none;stroke-dashoffset:0;stroke-opacity:1;paint-order:stroke fill markers;stop-color:#000000;stop-opacity:1"
     transform="scale(-1,1)" />
  <circle
     style="font-variation-settings:normal;opacity:1;vector-effect:none;fill:#808080;fill-opacity:1;stroke:none;stroke-width:0.443426;stroke-linecap:butt;stroke-linejoin:miter;stroke-miterlimit:4;stroke-dasharray:none;stroke-dashoffset:0;stroke-opacity:1;paint-order:stroke fill markers;stop-color:#000000;stop-opacity:1"
     id="circle30628"
     cx="-42.566734"
     cy="139.10037"
     r="10.106842"
     transform="scale(-1,1)" />
  <g
     id="g31493"
     transform="matrix(0.20008578,-0.05175953,0.05175953,0.20008578,33.711543,61.157611)"
     style="fill:#2e3436">
    <g
       id="g31436"
       style="fill:#2e3436">
	<g
   id="g31434"
   style="fill:#2e3436">
		<path
   id="path31432"
   fill="#d7d9dc"
   d="M 175.838,287.429 C 172.631,286.878 169.624,286.27 166.658,285.548 157.874,283.377 149.212,282.198 145.189,285.662 144.919,285.891 144.691,286.282 144.491,286.784 144.218,287.465 143.296,288.51 142.402,289.195 133.81,295.752 130.721,309.505 126.147,321.818 120.953,335.739 113.662,350.525 108.599,357.971 103.837,364.968 100.104,363.87 98.946,369.444 98.844,369.929 98.82,370.435 98.856,370.958 98.913,371.799 98.183,372.525 97.057,372.569 90.121,372.842 84.634,372.325 81.651,376.376 80.982,377.282 79.742,378.318 78.649,378.58 75.07,379.44 70.113,381.231 65.499,387.058 58.253,396.202 61.533,407.964 63.291,407.989 65.05,408.006 62.736,402.298 68.909,395.847 72.524,392.08 77.913,392.496 82.54,390.449 83.572,389.992 85.237,389.364 86.343,389.143 91.125,388.193 98.718,385.904 104.801,382.819 105.805,382.309 107.388,382.342 108.437,382.746 110.44,383.517 112.484,383.656 114.263,382.8 122.455,378.842 129.094,352.351 132.835,338.576 137.017,323.17 139.416,312.823 146.222,304.757 146.948,303.897 148.225,303.904 149.176,304.508 149.865,304.949 150.64,305.3 151.534,305.504 157.536,306.9 166.904,305.736 176.202,304.386 177.316,304.223 178.25,305.002 178.279,306.132 178.732,322.334 179.201,338.275 178.613,350.612 177.952,364.423 178.132,382.216 179.882,400.547 179.988,401.669 179.172,402.555 178.046,402.526 170.771,402.334 164.904,401.971 159.11,401.175 150.154,399.931 141.399,399.654 137.759,403.525 137.314,403.999 136.706,404.619 136.335,405.606 135.939,406.659 135.458,408.343 134.842,409.291 121.541,429.675 117.742,474.685 115.849,489.006 113.915,503.727 110.692,517.243 107.42,525.645 104.352,533.515 100.79,534.564 100.08,539.798 99.925,540.855 100.186,541.964 100.749,543.07 101.259,544.073 100.949,544.918 99.831,545.052 92.519,545.938 86.665,545.599 83.862,550.03 83.258,550.981 82.091,552.102 81.018,552.441 77.509,553.551 72.683,555.685 68.488,561.826 61.915,571.459 66.024,582.969 67.774,582.874 69.521,582.76 66.807,577.228 72.523,570.373 75.853,566.342 81.267,566.383 85.734,564.004 86.729,563.474 88.345,562.728 89.434,562.43 95.163,560.875 104.951,557.048 110.993,552.483 111.89,551.801 113.486,551.361 114.608,551.247 115.999,551.104 117.191,550.546 117.994,549.391 125.261,538.885 123.074,519.073 125.24,504.972 128.57,483.283 134.216,441.9 142.094,423.405 142.535,422.369 143.592,421.932 144.481,422.226 145.003,422.397 145.554,422.524 146.133,422.601 154.371,423.629 168.124,419.443 179.814,416.595 180.907,416.33 181.936,417.024 182.103,418.138 183.025,424.127 184.126,430.055 185.469,435.796 186.309,439.365 187.888,441.716 189.059,443.058 189.802,443.907 190.683,445.364 190.899,446.469 191.886,451.54 194.848,464.939 199.667,471.3 200.601,472.524 201.678,472.988 202.588,473.128 203.702,473.299 204.922,473.821 205.338,474.869 207.248,479.708 212.711,492.801 219.638,502.809 221.67,505.754 223.531,507.084 225.313,507.362 226.427,507.538 227.802,508.04 228.394,508.999 232.584,515.796 238.994,524.947 243.702,527.603 246.575,529.203 249.23,529.39 250.956,529.264 252.078,529.182 253.436,529.7 254.036,530.655 259.891,539.966 264.877,545.555 272.437,544.923 273.559,544.829 274.885,545.434 275.665,546.249 278.586,549.305 284.535,551.598 289.406,552.397 290.516,552.581 292.344,552.581 293.458,552.397 298.329,551.597 304.278,549.309 307.203,546.249 307.982,545.434 309.308,544.829 310.431,544.923 317.992,545.556 322.977,539.966 328.831,530.655 329.432,529.701 330.79,529.182 331.912,529.264 333.638,529.39 336.298,529.202 339.166,527.603 343.874,524.947 350.284,515.791 354.475,508.999 355.066,508.04 356.445,507.538 357.555,507.362 359.338,507.081 361.195,505.755 363.23,502.809 370.158,492.8 375.622,479.707 377.531,474.87 377.943,473.821 379.167,473.299 380.281,473.128 381.191,472.988 382.272,472.524 383.202,471.3 388.025,464.939 390.987,451.54 391.971,446.469 392.187,445.364 393.073,443.907 393.811,443.058 394.982,441.716 396.557,439.366 397.401,435.796 398.744,430.055 399.849,424.131 400.767,418.138 400.939,417.024 401.962,416.33 403.056,416.595 414.745,419.448 428.503,423.629 436.737,422.601 437.316,422.528 437.867,422.401 438.389,422.226 439.279,421.932 440.33,422.369 440.776,423.405 448.654,441.896 454.301,483.283 457.63,504.972 459.796,519.073 457.606,538.885 464.876,549.391 465.68,550.546 466.871,551.105 468.263,551.247 469.384,551.361 470.98,551.806 471.881,552.487 477.924,557.052 487.703,560.876 493.432,562.43 494.517,562.728 496.141,563.474 497.137,564.004 501.604,566.387 507.019,566.342 510.348,570.373 516.064,577.227 513.351,582.765 515.097,582.874 516.847,582.968 520.955,571.459 514.383,561.826 510.189,555.681 505.362,553.547 501.853,552.441 500.78,552.103 499.614,550.985 499.009,550.034 496.21,545.599 490.348,545.942 483.036,545.053 481.918,544.918 481.607,544.074 482.118,543.071 482.68,541.965 482.942,540.855 482.787,539.799 482.077,534.565 478.516,533.516 475.447,525.646 472.171,517.245 468.952,503.728 467.017,489.007 465.124,474.682 461.322,429.676 448.025,409.292 447.409,408.35 446.927,406.664 446.532,405.607 446.161,404.616 445.553,404 445.108,403.526 441.468,399.655 432.712,399.932 423.757,401.176 417.963,401.972 412.096,402.334 404.821,402.527 403.695,402.555 402.875,401.671 402.985,400.548 404.735,382.216 404.915,364.419 404.254,350.612 403.667,338.274 404.136,322.334 404.589,306.132 404.621,305.006 405.552,304.227 406.665,304.386 415.968,305.74 425.331,306.904 431.333,305.504 432.227,305.3 433.002,304.949 433.691,304.509 434.641,303.905 435.919,303.897 436.645,304.757 443.455,312.823 445.853,323.17 450.032,338.576 453.773,352.35 460.411,378.842 468.603,382.8 470.382,383.656 472.426,383.518 474.43,382.746 475.482,382.343 477.057,382.309 478.065,382.82 484.144,385.904 491.737,388.189 496.519,389.143 497.624,389.364 499.297,389.992 500.33,390.449 504.957,392.498 510.347,392.086 513.961,395.847 520.135,402.297 517.821,408.005 519.579,407.989 521.338,407.965 524.618,396.202 517.372,387.058 512.758,381.232 507.801,379.441 504.223,378.58 503.129,378.314 501.885,377.282 501.22,376.372 498.238,372.321 492.749,372.835 485.814,372.565 484.688,372.52 483.958,371.794 484.014,370.954 484.051,370.432 484.027,369.926 483.925,369.44 482.77,363.863 479.032,364.961 474.272,357.967 469.209,350.521 461.918,335.735 456.723,321.814 452.15,309.501 449.057,295.748 440.468,289.191 439.575,288.505 438.653,287.461 438.379,286.78 438.18,286.278 437.951,285.886 437.682,285.658 433.66,282.194 424.997,283.373 416.213,285.544 413.242,286.266 410.239,286.874 407.032,287.425 405.923,287.616 405.037,286.85 405.05,285.724 405.14,279.02 405.152,272.529 404.985,266.507 405.573,256.996 413.839,251.822 413.271,243.03 412.782,235.331 391.961,219.023 381.99,216.086 371.542,213.01 368.93,210.137 365.034,206.828 364.173,206.098 364.242,205.061 365.21,204.486 370.347,201.422 374.773,198.982 379.363,196.856 387.576,193.058 394.932,187.489 396.768,182.515 396.829,182.335 396.882,182.148 396.927,181.956 397,181.645 397.926,181.58 399.02,181.853 402.521,182.726 406.854,184.06 411.423,186.08 422.386,190.907 448.832,201.956 451.799,201.107 453.896,200.511 455.479,198.936 456.548,196.933 457.078,195.937 458.274,195.121 459.4,195.125 467.674,195.157 478.156,192.615 482.672,190.849 488,188.732 493.815,188.417 498.519,189.682 503.227,190.955 506.818,193.799 507.658,192.616 508.487,191.437 501.069,180.287 494.696,178.434 489.473,176.908 485.459,177.63 482.293,178.552 481.212,178.866 479.621,178.576 478.597,178.112 473.02,175.583 467.544,180.735 459.071,184.298 458.03,184.735 456.921,184.412 456.48,183.706 456.21,183.273 455.9,182.874 455.542,182.526 452.657,179.789 446.957,181.694 439.132,181.531 430.119,181.335 421.245,178.884 413.849,176.01 407.223,173.436 403.085,171.27 393.216,170.776 392.09,170.718 390.388,170.217 389.299,169.927 387.222,169.372 384.872,169.698 382.42,171.482 376.247,175.954 364.243,187.329 352.366,197.329 351.506,198.056 349.951,198.304 348.894,197.917 339.282,194.399 332.248,193.616 329.286,186.509 326.56,179.945 322.607,178.529 322.06,177.116 320.991,174.22 319.788,168.809 320.155,162.674 320.277,160.617 319.629,159.222 318.662,158.336 317.834,157.573 317.119,156.431 317.392,155.342 327.539,115.333 357.952,79.046 361.289,73.852 363.006,71.164 363.643,68.373 363.875,66.553 364.019,65.435 364.854,64.166 365.879,63.705 367.449,62.999 369.592,61.979 370.6,61.232 374.663,58.282 381.048,48.711 383.95,44.194 385.256,42.158 387.479,40.016 387.695,37.776 387.801,36.654 388.238,35.781 389.261,35.316 391.649,34.235 394.749,31.628 396.565,29.959 402.86,24.153 413.62,15.688 417.655,9.698 421.665,3.761 416.051,-1.828 409.956,0.566 404.9,2.537 389.703,18.355 386.52,21.823 384.459,24.08 383.382,27.65 382.88,29.873 382.631,30.971 381.615,31.624 380.489,31.615 379.318,31.607 377.804,31.832 376.388,32.77 373.533,34.671 363.855,47.36 361.472,50.996 359.464,54.052 358.432,55.79 358.46,59.086 358.473,60.212 357.677,61.27 356.645,61.722 349.052,65.035 341.244,79.491 333.213,95.994 323.584,115.765 313.756,138.973 311.386,157.925 311.386,157.925 311.341,158.398 311.287,158.982 311.234,159.565 310.61,160.916 309.5,161.12 308.338,161.332 307.236,160.373 306.901,157.403 306.403,153.078 300.157,148.496 291.719,148.737 291.613,148.741 291.511,148.769 291.405,148.773 291.299,148.769 291.201,148.741 291.091,148.737 282.653,148.496 276.407,153.078 275.909,157.403 275.575,160.373 274.473,161.332 273.31,161.12 272.2,160.916 271.576,159.565 271.523,158.982 L 271.425,157.925 C 269.054,138.977 259.226,115.766 249.597,95.994 241.572,79.49 233.759,65.031 226.165,61.722 225.133,61.274 224.341,60.217 224.35,59.086 224.383,55.79 223.35,54.052 221.339,50.996 218.957,47.36 209.279,34.672 206.423,32.77 205.011,31.835 203.493,31.607 202.322,31.615 201.196,31.624 200.18,30.97 199.931,29.873 199.43,27.65 198.352,24.08 196.292,21.823 193.114,18.355 177.916,2.537 172.856,0.566 166.76,-1.829 161.147,3.765 165.157,9.698 169.192,15.687 179.955,24.153 186.246,29.959 188.058,31.628 191.163,34.235 193.549,35.316 194.577,35.781 195.009,36.654 195.115,37.776 195.327,40.016 197.555,42.158 198.861,44.194 201.762,48.715 208.147,58.282 212.211,61.232 213.223,61.974 215.365,62.999 216.932,63.705 217.96,64.166 218.792,65.434 218.935,66.553 219.167,68.372 219.804,71.167 221.522,73.852 224.859,79.046 255.272,115.337 265.418,155.342 265.695,156.436 264.981,157.577 264.149,158.336 263.182,159.226 262.533,160.621 262.656,162.674 263.023,168.81 261.82,174.22 260.751,177.116 260.204,178.528 256.251,179.944 253.525,186.509 250.559,193.616 243.529,194.4 233.917,197.916 232.86,198.304 231.306,198.056 230.445,197.329 218.572,187.329 206.565,175.954 200.392,171.482 197.94,169.703 195.585,169.373 193.513,169.927 192.424,170.217 190.722,170.718 189.596,170.776 179.726,171.269 175.589,173.436 168.964,176.01 161.567,178.882 152.693,181.339 143.68,181.531 135.859,181.698 130.159,179.793 127.27,182.526 126.915,182.873 126.605,183.269 126.332,183.706 125.892,184.412 124.782,184.734 123.746,184.298 115.267,180.736 109.792,175.583 104.215,178.109 103.187,178.574 101.6,178.864 100.519,178.549 97.353,177.627 93.338,176.904 88.116,178.431 81.743,180.284 74.33,191.434 75.154,192.613 75.99,193.801 79.585,190.957 84.293,189.679 88.997,188.418 94.811,188.729 100.14,190.846 104.657,192.613 115.138,195.155 123.412,195.122 124.538,195.117 125.733,195.934 126.264,196.929 127.337,198.937 128.916,200.507 131.014,201.103 133.98,201.952 160.431,190.904 171.389,186.077 175.959,184.054 180.291,182.723 183.792,181.85 184.885,181.577 185.815,181.642 185.885,181.952 185.93,182.144 185.983,182.328 186.044,182.512 187.88,187.486 195.236,193.054 203.449,196.853 208.039,198.979 212.466,201.418 217.603,204.483 218.57,205.062 218.639,206.098 217.778,206.825 213.882,210.134 211.27,213.006 200.821,216.083 190.854,219.021 170.029,235.328 169.54,243.027 168.973,251.819 177.239,256.993 177.827,266.503 177.66,272.525 177.676,279.021 177.762,285.72 177.837,286.854 176.952,287.62 175.838,287.429 Z"
   inkscape:connector-curvature="0"
   style="fill:#2e3436" />

	</g>

</g>
    <g
       id="g31438"
       style="fill:#2e3436">
</g>
    <g
       id="g31440"
       style="fill:#2e3436">
</g>
    <g
       id="g31442"
       style="fill:#2e3436">
</g>
    <g
       id="g31444"
       style="fill:#2e3436">
</g>
    <g
       id="g31446"
       style="fill:#2e3436">
</g>
    <g
       id="g31448"
       style="fill:#2e3436">
</g>
    <g
       id="g31450"
       style="fill:#2e3436">
</g>
    <g
       id="g31452"
       style="fill:#2e3436">
</g>
    <g
       id="g31454"
       style="fill:#2e3436">
</g>
    <g
       id="g31456"
       style="fill:#2e3436">
</g>
    <g
       id="g31458"
       style="fill:#2e3436">
</g>
    <g
       id="g31460"
       style="fill:#2e3436">
</g>
    <g
       id="g31462"
       style="fill:#2e3436">
</g>
    <g
       id="g31464"
       style="fill:#2e3436">
</g>
    <g
       id="g31466"
       style="fill:#2e3436">
</g>
  </g>
</svg>
