<?xml version="1.0" encoding="UTF-8" standalone="no"?>
<!-- Created with Inkscape (http://www.inkscape.org/) -->

<svg
   xmlns:dc="http://purl.org/dc/elements/1.1/"
   xmlns:cc="http://creativecommons.org/ns#"
   xmlns:rdf="http://www.w3.org/1999/02/22-rdf-syntax-ns#"
   xmlns:svg="http://www.w3.org/2000/svg"
   xmlns="http://www.w3.org/2000/svg"
   xmlns:xlink="http://www.w3.org/1999/xlink"
   xmlns:sodipodi="http://sodipodi.sourceforge.net/DTD/sodipodi-0.dtd"
   xmlns:inkscape="http://www.inkscape.org/namespaces/inkscape"
   id="svg2"
   viewBox="0 0 190 190"
   version="1.0"
   inkscape:version="0.92+devel (c6daf9ab0, 2018-11-14, custom)"
   sodipodi:docname="compet.svg"
   width="190"
   height="190"
   inkscape:export-filename="/home/doctormo/Desktop/cafe.png"
   inkscape:export-xdpi="101.05"
   inkscape:export-ydpi="101.05">
  <defs
     id="defs66">
    <linearGradient
       id="linearGradient11550"
       inkscape:collect="always">
      <stop
         id="stop11552"
         offset="0"
         style="stop-color: rgb(255, 255, 255); stop-opacity: 1;" />
      <stop
         id="stop11554"
         offset="1"
         style="stop-color: rgb(255, 255, 255); stop-opacity: 0;" />
    </linearGradient>
    <linearGradient
       gradientTransform="matrix(10.16656,0,0,10.16656,-682.65836,5.50421)"
       y2="18.5"
       x2="36.5"
       y1="18.5"
       x1="25.5"
       gradientUnits="userSpaceOnUse"
       id="linearGradient10783"
       xlink:href="#linearGradient11550"
       inkscape:collect="always" />
    <inkscape:perspective
       sodipodi:type="inkscape:persp3d"
       inkscape:vp_x="0 : 526.2 : 1"
       inkscape:vp_y="0 : 1000 : 0"
       inkscape:vp_z="744.1 : 526.2 : 1"
       inkscape:persp3d-origin="372 : 350.8 : 1"
       id="perspective4007" />
    <inkscape:perspective
       id="perspective3992"
       inkscape:persp3d-origin="0.5 : 0.3333 : 1"
       inkscape:vp_z="1 : 0.5 : 1"
       inkscape:vp_y="0 : 1000 : 0"
       inkscape:vp_x="0 : 0.5 : 1"
       sodipodi:type="inkscape:persp3d" />
    <inkscape:perspective
       id="perspective4051"
       inkscape:persp3d-origin="0.5 : 0.3333 : 1"
       inkscape:vp_z="1 : 0.5 : 1"
       inkscape:vp_y="0 : 1000 : 0"
       inkscape:vp_x="0 : 0.5 : 1"
       sodipodi:type="inkscape:persp3d" />
    <inkscape:perspective
       id="perspective4103"
       inkscape:persp3d-origin="0.5 : 0.3333 : 1"
       inkscape:vp_z="1 : 0.5 : 1"
       inkscape:vp_y="0 : 1000 : 0"
       inkscape:vp_x="0 : 0.5 : 1"
       sodipodi:type="inkscape:persp3d" />
    <inkscape:perspective
       id="perspective4162"
       inkscape:persp3d-origin="0.5 : 0.3333 : 1"
       inkscape:vp_z="1 : 0.5 : 1"
       inkscape:vp_y="0 : 1000 : 0"
       inkscape:vp_x="0 : 0.5 : 1"
       sodipodi:type="inkscape:persp3d" />
    <inkscape:perspective
       id="perspective4214"
       inkscape:persp3d-origin="0.5 : 0.3333 : 1"
       inkscape:vp_z="1 : 0.5 : 1"
       inkscape:vp_y="0 : 1000 : 0"
       inkscape:vp_x="0 : 0.5 : 1"
       sodipodi:type="inkscape:persp3d" />
    <inkscape:perspective
       id="perspective4307"
       inkscape:persp3d-origin="0.5 : 0.3333 : 1"
       inkscape:vp_z="1 : 0.5 : 1"
       inkscape:vp_y="0 : 1000 : 0"
       inkscape:vp_x="0 : 0.5 : 1"
       sodipodi:type="inkscape:persp3d" />
  </defs>
  <sodipodi:namedview
     pagecolor="#ffffff"
     bordercolor="#666666"
     borderopacity="1"
     objecttolerance="10"
     gridtolerance="10"
     guidetolerance="10"
     inkscape:pageopacity="0"
     inkscape:pageshadow="2"
     inkscape:window-width="1855"
     inkscape:window-height="1056"
     id="namedview64"
     showgrid="false"
     fit-margin-top="0"
     fit-margin-left="0"
     fit-margin-right="0"
     fit-margin-bottom="0"
     inkscape:zoom="1"
     inkscape:cx="185.5513"
     inkscape:cy="81.631942"
     inkscape:window-x="65"
     inkscape:window-y="24"
     inkscape:window-maximized="1"
     inkscape:current-layer="svg2"
     inkscape:snap-global="false"
     inkscape:document-rotation="0" />
  <metadata
     id="metadata61">
    <rdf:RDF>
      <cc:Work>
        <dc:format>image/svg+xml</dc:format>
        <dc:type
           rdf:resource="http://purl.org/dc/dcmitype/StillImage" />
        <cc:license
           rdf:resource="http://creativecommons.org/publicdomain/zero/1.0/" />
        <dc:publisher>
          <cc:Agent
             rdf:about="http://openclipart.org/">
            <dc:title>Openclipart</dc:title>
          </cc:Agent>
        </dc:publisher>
        <dc:title></dc:title>
        <dc:date>2008-03-15T22:35:33</dc:date>
        <dc:description>Masonic Square and Compasses</dc:description>
        <dc:source>https://openclipart.org/detail/15800/square-and-compasses-by-coder7</dc:source>
        <dc:creator>
          <cc:Agent>
            <dc:title>coder7</dc:title>
          </cc:Agent>
        </dc:creator>
        <dc:subject>
          <rdf:Bag>
            <rdf:li>line art</rdf:li>
            <rdf:li>masonic</rdf:li>
            <rdf:li>outline</rdf:li>
          </rdf:Bag>
        </dc:subject>
      </cc:Work>
      <cc:License
         rdf:about="http://creativecommons.org/publicdomain/zero/1.0/">
        <cc:permits
           rdf:resource="http://creativecommons.org/ns#Reproduction" />
        <cc:permits
           rdf:resource="http://creativecommons.org/ns#Distribution" />
        <cc:permits
           rdf:resource="http://creativecommons.org/ns#DerivativeWorks" />
      </cc:License>
    </rdf:RDF>
  </metadata>
  <circle
     style="color:#000000;clip-rule:nonzero;display:inline;overflow:visible;visibility:visible;opacity:1;isolation:auto;mix-blend-mode:normal;color-interpolation:sRGB;color-interpolation-filters:linearRGB;solid-color:#000000;solid-opacity:1;fill:#ffffff;fill-opacity:1;fill-rule:nonzero;stroke:#808080;stroke-width:4.9916;stroke-linecap:round;stroke-linejoin:round;stroke-miterlimit:4;stroke-dasharray:none;stroke-dashoffset:0;stroke-opacity:1;marker:none;color-rendering:auto;image-rendering:auto;shape-rendering:auto;text-rendering:auto;enable-background:accumulate"
     id="path4147"
     cx="95"
     cy="95"
     r="89.856049" />
  <circle
     r="57.093945"
     cy="95"
     cx="95"
     id="circle4149"
     style="color:#000000;clip-rule:nonzero;display:inline;overflow:visible;visibility:visible;opacity:1;isolation:auto;mix-blend-mode:normal;color-interpolation:sRGB;color-interpolation-filters:linearRGB;solid-color:#000000;solid-opacity:1;fill:#ffffff;fill-opacity:1;fill-rule:nonzero;stroke:#808080;stroke-width:4.9916;stroke-linecap:round;stroke-linejoin:round;stroke-miterlimit:4;stroke-dasharray:none;stroke-dashoffset:0;stroke-opacity:1;marker:none;color-rendering:auto;image-rendering:auto;shape-rendering:auto;text-rendering:auto;enable-background:accumulate" />
  <path
     inkscape:connector-curvature="0"
     style="fill:none;fill-opacity:1;stroke:url(#linearGradient10783);stroke-width:10.16656017;stroke-linecap:round;stroke-linejoin:miter;stroke-miterlimit:4;stroke-dasharray:none;stroke-dashoffset:1.96000004;stroke-opacity:1"
     id="path8421"
     sodipodi:nodetypes="cc"
     d="" />
  <path
     id="path5133"
     d="M 51.170561,37.073619 C 56.995377,32.059849 63.631257,21.073796 63.631257,21.073796 63.631257,21.073796 61.493026,21.221259 58.617486,22.917092 55.152086,24.907855 50.728165,28.741914 50.728165,28.741914 L 51.170561,24.096804 C 51.170561,24.096804 47.631432,27.119812 45.419472,30.953871 43.133784,34.935394 42.175264,39.949163 42.175264,39.949163 42.175264,39.949163 46.304255,41.35007 51.170561,37.073619 Z M 40.11078,52.041196 C 43.428715,48.870724 45.788131,44.299345 45.788131,44.299345 45.788131,44.299345 43.797374,45.405324 41.880344,45.700252 40.553166,45.99518 39.15226,45.479056 39.15226,45.479056 39.15226,45.479056 38.414943,43.783223 38.562409,41.055142 38.709865,37.810938 39.815849,33.313292 39.815849,33.313292 39.815849,33.313292 35.908053,37.810938 34.212226,43.267099 33.696102,44.741737 33.327443,46.363839 33.106241,47.838477 32.073993,53.073442 32.295197,57.423626 32.295197,57.423626 32.295197,57.423626 36.645379,55.359131 40.11078,52.041196 Z M 33.917295,68.925802 C 36.645379,65.755331 38.267478,60.962756 38.267478,60.962756 38.267478,60.962756 35.98179,62.289931 33.696102,62.879787 31.926538,63.322177 29.935771,63.02725 29.935771,63.02725 29.935771,63.02725 29.272182,61.036488 29.050988,58.234675 28.608602,53.220906 28.829795,45.331593 28.829795,45.331593 28.829795,45.331593 24.774544,53.147174 24.627078,60.225437 24.479613,66.787577 27.797548,73.349716 27.797548,73.349716 27.797548,73.349716 31.336676,72.022542 33.917295,68.925802 Z M 26.249177,88.759685 C 26.249177,88.759685 30.156964,85.589213 32.295197,81.902618 34.285953,78.51095 34.433419,74.529426 34.433419,74.529426 34.433419,74.529426 32.51639,75.635406 30.525631,76.446457 28.68233,77.183775 26.691573,77.699899 26.691573,77.699899 26.691573,77.699899 24.479613,75.193014 23.152434,71.801346 21.08794,66.640112 19.613307,59.930509 19.613307,59.930509 19.613307,59.930509 17.401347,68.925802 19.097183,76.077797 20.793019,83.229791 26.249177,88.759685 26.249177,88.759685 Z M 27.355152,106.16041 C 27.355152,106.16041 30.009508,103.21113 31.484142,99.30335 33.032513,95.248092 33.327443,90.381787 33.327443,90.381787 L 27.133959,96.35407 C 27.133959,96.35407 23.742296,93.920918 20.866747,89.939395 16.95896,84.335771 13.198629,76.593921 13.198629,76.593921 13.198629,76.593921 12.682506,88.685952 16.221633,96.132875 19.760772,103.50606 27.355152,106.16041 27.355152,106.16041 Z M 31.410414,122.3077 C 31.410414,122.3077 33.769829,119.35842 34.580884,115.45063 35.465666,110.58432 34.875805,104.7595 34.875805,104.7595 34.875805,104.7595 33.769829,107.26639 32.368924,109.40462 31.189211,111.32165 29.714578,113.09121 29.714578,113.09121 29.714578,113.09121 25.80679,111.32165 21.972732,107.56132 16.590302,102.17889 10.61801,93.257331 10.61801,93.257331 10.61801,93.257331 11.134134,106.45534 16.221633,113.45988 21.456598,120.53813 31.410414,122.3077 31.410414,122.3077 Z M 39.815849,137.71766 C 39.815849,137.71766 41.216755,133.58868 41.216755,129.0173 41.143028,123.9298 39.594656,118.3999 39.594656,118.3999 L 34.654612,128.57491 C 34.654612,128.57491 30.009508,128.72237 25.364395,126.06802 19.687034,122.75009 13.78849,116.77781 13.78849,116.77781 13.78849,116.77781 17.62254,128.27998 24.332148,133.58868 30.59936,138.67618 39.815849,137.71766 39.815849,137.71766 Z M 49.843384,150.98941 C 49.843384,150.98941 50.580709,146.41803 49.91712,142.06785 49.179804,137.12782 47.115308,132.55643 47.115308,132.55643 47.115308,132.55643 46.672913,135.9481 45.714403,138.9711 44.977086,141.47799 43.649909,143.61622 43.649909,143.61622 43.649909,143.61622 40.995562,143.98488 37.603889,143.68994 32.81132,143.24757 26.691573,142.06785 26.691573,142.06785 26.691573,142.06785 30.009508,146.86043 35.908053,149.21985 41.585414,151.35806 49.843384,150.98941 49.843384,150.98941 Z M 54.562234,142.8789 53.751179,154.676 C 53.751179,154.676 51.244289,155.70825 47.926353,155.85571 43.576171,156.00318 38.046285,155.33959 38.046285,155.33959 38.046285,155.33959 42.838854,159.83724 48.589942,161.16442 54.488496,162.56532 61.271833,161.09068 61.271833,161.09068 61.271833,161.09068 61.935421,156.96169 60.460778,153.0539 58.691213,148.33506 54.562234,142.8789 54.562234,142.8789 Z M 96.819845,167.1367 C 93.20698,164.99847 85.750821,163.6713 85.750821,163.6713 85.750821,163.6713 80.220925,162.71278 74.985961,161.09068 69.89846,159.46858 65.105891,157.25662 65.105891,157.25662 65.105891,157.25662 66.211867,160.13217 65.622016,162.12293 65.105891,163.74502 62.967669,164.62981 62.967669,164.62981 L 67.68651,166.17818 C 67.68651,166.17818 79.631074,166.62058 86.561875,167.80029 92.755351,168.90626 96.082527,170.74956 96.082527,170.74956 96.082527,170.74956 95.345212,171.63435 92.690855,172.15047 88.856797,172.74033 81.179445,172.66659 81.179445,172.66659 L 85.308425,176.79558 C 85.308425,176.79558 91.732345,177.38543 95.640132,176.05826 99.17927,175.02601 104.12854,172.15047 104.12854,172.15047 104.12854,172.15047 100.35897,169.12746 96.819845,167.1367 Z M 138.82944,37.147351 C 143.69574,41.423801 147.89847,40.022895 147.89847,40.022895 147.89847,40.022895 146.86622,35.082858 144.58053,31.027603 142.36858,27.119812 138.82944,24.170535 138.82944,24.170535 L 139.27183,28.741914 C 139.27183,28.741914 134.92165,25.055319 131.38253,22.990825 128.50697,21.294991 126.36875,21.147528 126.36875,21.147528 126.36875,21.147528 133.00462,32.133581 138.82944,37.147351 Z M 149.88923,52.114928 C 153.35463,55.432863 157.77854,57.497357 157.77854,57.497357 157.77854,57.497357 157.99973,53.147174 156.89376,47.985941 156.67257,46.437571 156.30391,44.815469 155.78778,43.340831 154.09194,37.88467 150.18416,33.387023 150.18416,33.387023 150.18416,33.387023 151.21641,37.88467 151.36386,41.128875 151.51133,43.856955 150.77401,45.552788 150.77401,45.552788 150.77401,45.552788 149.3731,45.99518 148.04593,45.773984 146.20263,45.479056 144.13814,44.373077 144.13814,44.373077 144.13814,44.373077 146.49756,48.870724 149.8155,52.114928 Z M 151.73253,60.962756 C 151.73253,60.962756 153.42836,65.755331 156.00898,68.925802 158.58959,72.022542 162.20246,73.349716 162.20246,73.349716 162.20246,73.349716 165.44666,66.713845 165.29919,60.225437 165.15174,53.147174 161.09647,45.331593 161.09647,45.331593 161.09647,45.331593 161.31767,53.220906 160.87529,58.234675 160.65409,61.036488 160.06423,63.02725 160.06423,63.02725 160.06423,63.02725 158.07347,63.322177 156.23017,62.879787 153.94448,62.289931 151.65879,60.962756 151.65879,60.962756 Z M 159.47438,76.446457 C 157.48362,75.635406 155.56659,74.529426 155.56659,74.529426 155.56659,74.529426 155.78778,78.51095 157.63108,81.902618 159.76931,85.589213 163.6771,88.759685 163.6771,88.759685 163.6771,88.759685 169.20699,83.229791 170.82909,76.077797 172.52493,68.925802 170.31297,59.930509 170.31297,59.930509 170.31297,59.930509 168.83833,66.640112 166.77383,71.801346 165.44666,75.193014 163.23471,77.699899 163.23471,77.699899 163.23471,77.699899 161.24394,77.183775 159.40065,76.446457 Z M 162.86604,96.35407 156.67257,90.381787 C 156.67257,90.381787 156.9675,95.248092 158.51586,99.30335 159.9905,103.21113 162.64485,106.16041 162.64485,106.16041 162.64485,106.16041 170.23923,103.50606 173.77837,96.132875 177.3175,88.759685 176.87511,76.593921 176.87511,76.593921 176.87511,76.593921 173.04105,84.335771 169.13325,89.939395 166.25771,93.920918 162.86604,96.35407 162.86604,96.35407 Z M 168.02727,107.63505 C 164.19322,111.39538 160.28543,113.16494 160.28543,113.16494 160.28543,113.16494 158.81079,111.39538 157.63108,109.47834 156.23017,107.26639 155.19792,104.83324 155.19792,104.83324 155.19792,104.83324 154.53434,110.80553 155.41913,115.52437 156.15645,119.35842 158.51586,122.3077 158.51586,122.3077 158.51586,122.3077 168.46967,120.61186 173.70463,113.5336 178.79214,106.52907 179.38199,93.331062 179.38199,93.331062 179.38199,93.331062 173.33597,102.17889 167.95355,107.63505 Z M 155.34538,128.57491 150.47908,118.3999 C 150.47908,118.3999 148.85698,123.9298 148.85698,129.0173 148.78326,133.58868 150.25789,137.71766 150.25789,137.71766 150.25789,137.71766 159.32691,138.74991 165.59413,133.58868 172.37746,128.20625 176.21151,116.77781 176.21151,116.77781 176.21151,116.77781 170.31297,122.75009 164.63562,126.06802 159.9905,128.72237 155.27166,128.57491 155.27166,128.57491 Z M 146.3501,143.61622 C 146.3501,143.61622 145.02293,141.40426 144.28561,138.9711 143.32709,135.9481 142.95842,132.55643 142.95842,132.55643 142.95842,132.55643 140.82021,137.12782 140.08289,142.06785 139.49302,146.27057 140.15662,150.98941 140.15662,150.98941 140.15662,150.98941 148.41458,151.35806 154.09194,149.14611 160.06423,146.86043 163.30843,142.06785 163.30843,142.06785 163.30843,142.06785 157.11495,143.24757 152.32238,143.68994 148.93071,143.98488 146.3501,143.61622 146.3501,143.61622 Z M 142.07365,155.85571 C 138.75571,155.70825 136.24883,154.676 136.24883,154.676 L 135.43777,142.8789 C 135.43777,142.8789 131.38253,148.33506 129.53922,153.12763 128.06458,157.03543 128.72818,161.09068 128.72818,161.09068 128.72818,161.09068 135.5115,162.56532 141.41006,161.23814 147.16114,159.83724 151.95373,155.41333 151.95373,155.41333 151.95373,155.41333 146.42383,156.0769 141.99991,155.92945 Z M 124.37799,162.0492 C 123.78813,160.05843 124.89411,157.18289 124.89411,157.18289 124.89411,157.18289 120.10154,159.39485 115.01404,161.01695 109.77908,162.63905 104.32291,163.59757 104.32291,163.59757 104.32291,163.59757 96.866748,164.92474 93.180154,167.06296 89.641025,169.12746 85.945189,172.15047 85.945189,172.15047 85.945189,172.15047 90.894466,175.02601 94.359866,176.05826 98.267653,177.3117 104.69157,176.72185 104.69157,176.72185 L 108.82056,172.59286 C 108.82056,172.59286 101.1432,172.66659 97.309144,172.07673 94.654787,171.56061 93.917472,170.74956 93.917472,170.74956 93.917472,170.74956 97.244648,168.83254 103.43812,167.72655 110.36893,166.54684 122.3135,166.10445 122.3135,166.10445 L 127.03234,164.55608 C 127.03234,164.55608 124.89411,163.6713 124.37799,162.0492 Z"
     style="opacity:1;fill:#808080;fill-opacity:1;stroke-width:0.737319;stop-opacity:1"
     inkscape:connector-curvature="0"
     sodipodi:nodetypes="ccccccccccccccccccccccccccccccccccscccccccccccccccccccccccccccccccccccccccccccccccccccccccccccccccccccccccccccccccccccccccccccccccccccccsccccccccccccccccccccccccccccccccccccccccccccccccccccccc" />
  <g
     id="g1717"
     transform="matrix(0.54962396,0,0,0.54962396,-80.879667,90.260513)">
    <path
       id="path836"
       d="M 321.65467,-53.117519 C 305.43885,-53.112645 288.58998,-49.718611 279.95698,-42.871972 280.51089,-42.080281 281.13637,-41.317442 281.81659,-40.578457 299.81866,-52.422788 344.05774,-52.390965 357.97899,-40.884849 358.53777,-41.57202 359.06371,-42.285184 359.55168,-43.027824 353.45359,-49.737993 337.8705,-53.122393 321.65467,-53.117519 Z"
       style="font-variation-settings:normal;opacity:1;vector-effect:none;fill:#808080;fill-opacity:1;fill-rule:evenodd;stroke:#000000;stroke-width:0.668586;stroke-linecap:butt;stroke-linejoin:miter;stroke-miterlimit:4;stroke-dasharray:none;stroke-dashoffset:0;stroke-opacity:1;stop-color:#000000;stop-opacity:1"
       inkscape:connector-curvature="0" />
    <path
       id="path835"
       d="M 380.93765,-44.21256 C 380.40357,-44.220114 379.85922,-44.216091 379.30484,-44.200841 379.27484,-44.201841 379.245,-44.201841 379.215,-44.200841 371.085,-43.686841 365.66484,-39.651044 363.80484,-34.609044 361.95484,-29.566044 363.61359,-23.812091 368.02359,-20.732091 L 371.5939,-25.859044 C 369.5839,-27.260044 368.76375,-29.947841 369.68375,-32.450841 370.60375,-34.954841 373.2139,-37.579091 379.5939,-37.982091 387.1739,-38.191091 390.86445,-36.120044 392.90445,-33.359044 394.94445,-30.597044 395.43515,-26.478091 394.62515,-21.982091 392.98515,-13.124091 381.03359,-5.426841 375.02359,-1.950841 371.34359,-8.41001e-4 368.12359,3.430956 365.52359,7.390956 362.92359,11.351956 360.97515,15.694456 361.37515,20.078456 361.36515,20.151456 361.36515,20.226159 361.37515,20.299159 361.87515,23.585159 363.86429,26.919003 367.74429,28.389003 369.68429,29.129003 372.17484,29.048456 374.30484,27.828456 376.44484,26.608456 378.25445,24.520706 379.90445,21.484706 L 374.40445,18.484706 C 373.10445,20.871706 371.915,21.994956 371.215,22.390956 370.515,22.787956 370.34375,22.706159 369.93375,22.549159 369.12375,22.243159 367.80515,20.229159 367.62515,19.424159 367.50515,17.555159 368.64429,14.020456 370.74429,10.828456 372.87429,7.582456 375.88484,4.670909 378.05484,3.517909 378.09484,3.496909 378.12445,3.474456 378.15445,3.453456 384.23445,-0.066544 398.36359,-7.804044 400.77359,-20.859044 401.78359,-26.434044 401.35445,-32.413841 397.90445,-37.075841 394.67007,-41.447404 388.94888,-44.099243 380.93765,-44.21256 Z M 363.68375,-42.575841 C 356.43375,-34.315841 327.525,-31.752091 319.465,-31.982091 319.455,-31.984091 319.44375,-31.981091 319.43375,-31.982091 311.48875,-31.680091 283.14654,-34.367091 276.02554,-42.482091 275.24554,-33.141091 280.31675,-16.568544 279.93375,-7.796544 279.96875,2.546456 276.742,30.699003 281.34,36.889003 288.82826,48.21258 305.28191,58.90225 316.34781,61.18197 317.40545,69.34826 312.84869,78.83988 310.76578,82.8597 307.79078,86.2997 297.21653,84.489 293.60953,86.389 289.71553,87.989 284.66128,90.15025 288.07828,92.92025 289.66628,95.69025 301.13943,99.71892 319.86343,99.80892 336.18343,99.80892 350.05468,95.69025 351.64468,92.92025 355.05468,90.15025 350.00343,87.989 346.11343,86.389 342.50343,84.489 331.96453,86.329 328.98453,82.889 326.90725,78.88006 322.34075,69.18553 323.36343,61.01986 335.13455,58.37417 351.04217,47.87951 358.37515,36.799159 362.96515,30.599159 359.74359,2.452706 359.77359,-7.890294 359.39359,-16.661294 364.46375,-33.234841 363.68375,-42.575841 Z M 259.05875,-40.4567 C 251.04797,-40.343384 245.33132,-37.691544 242.09976,-33.319982 238.65176,-28.657982 238.21476,-22.678185 239.22476,-17.103185 241.63676,-4.048185 255.76776,3.691268 261.84976,7.211268 L 261.94156,7.273768 C 264.11956,8.426768 267.12301,11.340268 269.25601,14.586268 271.35301,17.778268 272.49901,21.311018 272.38101,23.180018 272.19801,23.985018 270.87356,25.998159 270.06656,26.299159 269.65256,26.459159 269.48031,26.548768 268.78531,26.148768 268.09031,25.750768 266.89576,24.627565 265.59976,22.240565 L 260.09976,25.240565 C 261.74776,28.278565 263.55556,30.370175 265.69156,31.590174 267.82856,32.810174 270.31501,32.878768 272.25601,32.148768 276.13701,30.678768 278.12301,27.340018 278.63101,24.055018 278.63301,23.982018 278.63301,23.909268 278.63101,23.836268 279.02301,19.452268 277.07676,15.107815 274.47476,11.146815 271.87276,7.186815 268.65776,3.755018 264.97476,1.805018 258.96976,-1.670982 247.01801,-9.368232 245.38101,-18.226232 244.56701,-22.722232 245.05776,-26.841185 247.09976,-29.603185 249.14076,-32.364185 252.82131,-34.435232 260.41031,-34.226232 266.78931,-33.823232 269.39756,-31.198982 270.31656,-28.694982 271.23656,-26.191982 270.42031,-23.504185 268.41031,-22.103185 L 271.97476,-16.976232 C 276.38876,-20.056232 278.04456,-25.810185 276.19156,-30.853185 274.33956,-35.895185 268.91931,-39.930982 260.78531,-40.444982 260.75431,-40.445982 260.72356,-40.445982 260.69156,-40.444982 260.13718,-40.460232 259.5928,-40.464255 259.05875,-40.4567 Z"
       style="opacity:1;fill:#000000;fill-opacity:1;fill-rule:evenodd;stroke:none;stroke-width:1.25;stroke-linejoin:round;stop-opacity:1"
       inkscape:connector-curvature="0" />
  </g>
</svg>
