<?xml version="1.0" encoding="UTF-8" standalone="no"?>
<!-- Created with Inkscape (http://www.inkscape.org/) -->

<svg
   xmlns:dc="http://purl.org/dc/elements/1.1/"
   xmlns:cc="http://creativecommons.org/ns#"
   xmlns:rdf="http://www.w3.org/1999/02/22-rdf-syntax-ns#"
   xmlns:svg="http://www.w3.org/2000/svg"
   xmlns="http://www.w3.org/2000/svg"
   xmlns:xlink="http://www.w3.org/1999/xlink"
   xmlns:sodipodi="http://sodipodi.sourceforge.net/DTD/sodipodi-0.dtd"
   xmlns:inkscape="http://www.inkscape.org/namespaces/inkscape"
   id="svg2"
   viewBox="0 0 190 190"
   version="1.0"
   inkscape:version="0.92+devel (17f8b1805e, 2018-12-05)"
   sodipodi:docname="compet.svg"
   width="190"
   height="190"
   inkscape:export-filename="/home/doctormo/Desktop/cafe.png"
   inkscape:export-xdpi="101.05"
   inkscape:export-ydpi="101.05">
  <defs
     id="defs66">
    <linearGradient
       id="linearGradient11550"
       inkscape:collect="always">
      <stop
         id="stop11552"
         offset="0"
         style="stop-color: rgb(255, 255, 255); stop-opacity: 1;" />
      <stop
         id="stop11554"
         offset="1"
         style="stop-color: rgb(255, 255, 255); stop-opacity: 0;" />
    </linearGradient>
    <linearGradient
       gradientTransform="matrix(10.16656,0,0,10.16656,-682.65836,5.50421)"
       y2="18.5"
       x2="36.5"
       y1="18.5"
       x1="25.5"
       gradientUnits="userSpaceOnUse"
       id="linearGradient10783"
       xlink:href="#linearGradient11550"
       inkscape:collect="always" />
    <inkscape:perspective
       sodipodi:type="inkscape:persp3d"
       inkscape:vp_x="0 : 526.2 : 1"
       inkscape:vp_y="0 : 1000 : 0"
       inkscape:vp_z="744.1 : 526.2 : 1"
       inkscape:persp3d-origin="372 : 350.8 : 1"
       id="perspective4007" />
    <inkscape:perspective
       id="perspective3992"
       inkscape:persp3d-origin="0.5 : 0.3333 : 1"
       inkscape:vp_z="1 : 0.5 : 1"
       inkscape:vp_y="0 : 1000 : 0"
       inkscape:vp_x="0 : 0.5 : 1"
       sodipodi:type="inkscape:persp3d" />
    <inkscape:perspective
       id="perspective4051"
       inkscape:persp3d-origin="0.5 : 0.3333 : 1"
       inkscape:vp_z="1 : 0.5 : 1"
       inkscape:vp_y="0 : 1000 : 0"
       inkscape:vp_x="0 : 0.5 : 1"
       sodipodi:type="inkscape:persp3d" />
    <inkscape:perspective
       id="perspective4103"
       inkscape:persp3d-origin="0.5 : 0.3333 : 1"
       inkscape:vp_z="1 : 0.5 : 1"
       inkscape:vp_y="0 : 1000 : 0"
       inkscape:vp_x="0 : 0.5 : 1"
       sodipodi:type="inkscape:persp3d" />
    <inkscape:perspective
       id="perspective4162"
       inkscape:persp3d-origin="0.5 : 0.3333 : 1"
       inkscape:vp_z="1 : 0.5 : 1"
       inkscape:vp_y="0 : 1000 : 0"
       inkscape:vp_x="0 : 0.5 : 1"
       sodipodi:type="inkscape:persp3d" />
    <inkscape:perspective
       id="perspective4214"
       inkscape:persp3d-origin="0.5 : 0.3333 : 1"
       inkscape:vp_z="1 : 0.5 : 1"
       inkscape:vp_y="0 : 1000 : 0"
       inkscape:vp_x="0 : 0.5 : 1"
       sodipodi:type="inkscape:persp3d" />
    <inkscape:perspective
       id="perspective4307"
       inkscape:persp3d-origin="0.5 : 0.3333 : 1"
       inkscape:vp_z="1 : 0.5 : 1"
       inkscape:vp_y="0 : 1000 : 0"
       inkscape:vp_x="0 : 0.5 : 1"
       sodipodi:type="inkscape:persp3d" />
  </defs>
  <sodipodi:namedview
     pagecolor="#ffffff"
     bordercolor="#666666"
     borderopacity="1"
     objecttolerance="10"
     gridtolerance="10"
     guidetolerance="10"
     inkscape:pageopacity="0"
     inkscape:pageshadow="2"
     inkscape:window-width="1920"
     inkscape:window-height="1016"
     id="namedview64"
     showgrid="false"
     fit-margin-top="0"
     fit-margin-left="0"
     fit-margin-right="0"
     fit-margin-bottom="0"
     inkscape:zoom="2.8284271"
     inkscape:cx="150.68777"
     inkscape:cy="99.302069"
     inkscape:window-x="0"
     inkscape:window-y="27"
     inkscape:window-maximized="1"
     inkscape:current-layer="svg2"
     inkscape:snap-global="false"
     inkscape:document-rotation="0" />
  <metadata
     id="metadata61">
    <rdf:RDF>
      <cc:Work>
        <dc:format>image/svg+xml</dc:format>
        <dc:type
           rdf:resource="http://purl.org/dc/dcmitype/StillImage" />
        <cc:license
           rdf:resource="http://creativecommons.org/publicdomain/zero/1.0/" />
        <dc:publisher>
          <cc:Agent
             rdf:about="http://openclipart.org/">
            <dc:title>Openclipart</dc:title>
          </cc:Agent>
        </dc:publisher>
        <dc:title />
        <dc:date>2008-03-15T22:35:33</dc:date>
        <dc:description>Masonic Square and Compasses</dc:description>
        <dc:source>https://openclipart.org/detail/15800/square-and-compasses-by-coder7</dc:source>
        <dc:creator>
          <cc:Agent>
            <dc:title>coder7</dc:title>
          </cc:Agent>
        </dc:creator>
        <dc:subject>
          <rdf:Bag>
            <rdf:li>line art</rdf:li>
            <rdf:li>masonic</rdf:li>
            <rdf:li>outline</rdf:li>
          </rdf:Bag>
        </dc:subject>
      </cc:Work>
      <cc:License
         rdf:about="http://creativecommons.org/publicdomain/zero/1.0/">
        <cc:permits
           rdf:resource="http://creativecommons.org/ns#Reproduction" />
        <cc:permits
           rdf:resource="http://creativecommons.org/ns#Distribution" />
        <cc:permits
           rdf:resource="http://creativecommons.org/ns#DerivativeWorks" />
      </cc:License>
    </rdf:RDF>
  </metadata>
  <path
     inkscape:connector-curvature="0"
     style="fill:none;fill-opacity:1;stroke:url(#linearGradient10783);stroke-width:10.16656017;stroke-linecap:round;stroke-linejoin:miter;stroke-miterlimit:4;stroke-dasharray:none;stroke-dashoffset:1.96000004;stroke-opacity:1"
     id="path8421"
     sodipodi:nodetypes="cc"
     d="" />
  <path
     inkscape:connector-curvature="0"
     style="opacity:1;fill:#333333;fill-opacity:1;fill-rule:evenodd;stroke:none;stroke-width:1.17853;stroke-linejoin:round;stop-opacity:1"
     d="m 152.84236,34.527053 c -0.50355,-0.0072 -1.01678,-0.0033 -1.53946,0.01105 -0.0283,-9.43e-4 -0.0564,-9.43e-4 -0.0847,0 -7.66518,0.484613 -12.77546,4.289672 -14.52912,9.043407 -1.74423,4.754678 -0.18031,10.179662 3.97756,13.08357 l 3.36618,-4.833831 c -1.89508,-1.320901 -2.66834,-3.85503 -1.80094,-6.214926 0.8674,-2.36084 3.32832,-4.835054 9.34356,-5.215013 7.14663,-0.197051 10.62618,1.755588 12.54955,4.358734 1.92337,2.604089 2.38601,6.48755 1.62232,10.726502 -1.54623,8.351563 -12.81449,15.60874 -18.48088,18.886008 -3.46961,1.838513 -6.50551,5.074105 -8.95686,8.807701 -2.45135,3.734538 -4.28839,7.828766 -3.91126,11.96212 -0.009,0.06883 -0.009,0.139259 0,0.208085 0.47141,3.098131 2.34683,6.24137 6.005,7.62733 1.82908,0.69769 4.17724,0.62175 6.18546,-0.5285 2.01765,-1.15025 3.7238,-3.11864 5.27947,-5.981064 l -5.18555,-2.828482 c -1.22568,2.250529 -2.34713,3.30956 -3.0071,3.682919 -0.65998,0.374303 -0.82144,0.297182 -1.208,0.149159 -0.76369,-0.288506 -2.0069,-2.18736 -2.17661,-2.946336 -0.11314,-1.762144 0.96087,-5.094758 2.94081,-8.104263 2.00822,-3.060417 4.84665,-5.805503 6.89258,-6.892583 0.0377,-0.0198 0.0656,-0.04097 0.0939,-0.06077 5.73239,-3.318752 19.05373,-10.613877 21.32594,-22.922487 0.95226,-5.256262 0.54765,-10.894178 -2.7051,-15.289638 -3.04946,-4.121629 -8.44356,-6.621855 -15.99676,-6.728693 z m -16.26745,1.543143 c -6.8355,7.787753 -34.09145,10.204926 -41.690643,9.988076 -0.0094,-0.0019 -0.01999,9.43e-4 -0.02942,0 -7.490762,0.284734 -34.21257,-2.248643 -40.926443,-9.899686 -0.735405,8.806949 4.04587,24.431998 3.684767,32.702479 0.033,9.751662 -3.009269,36.294655 1.325851,42.130755 7.060135,10.67618 22.573085,20.75469 33.006317,22.90407 0.997172,7.6994 -3.299066,16.64836 -5.26289,20.43836 -2.804911,3.24332 -12.774602,1.53615 -16.17538,3.32752 -3.671369,1.50852 -8.436654,3.54621 -5.215013,6.15784 1.497209,2.61163 12.314408,6.40997 29.967905,6.49482 15.386949,0 28.465139,-3.88319 29.964229,-6.49482 3.21504,-2.61163 -1.54741,-4.64932 -5.21501,-6.15784 -3.40361,-1.79137 -13.33997,-0.0566 -16.14959,-3.2999 -1.95852,-3.77974 -6.26394,-12.92 -5.29973,-20.61882 11.09813,-2.49443 26.09627,-12.38908 33.01,-22.83594 4.32758,-5.84553 1.29021,-32.382773 1.31849,-42.134435 -0.35827,-8.269538 4.42201,-23.89553 3.68661,-32.702479 z M 37.931609,38.06818 c -7.552782,0.106837 -12.942595,2.607064 -15.989398,6.728692 -3.250868,4.395461 -3.662884,10.033376 -2.710628,15.289638 2.274099,12.30861 15.597191,19.605577 21.331466,22.924329 l 0.08655,0.05893 c 2.053477,1.087079 4.885212,3.834007 6.896262,6.894424 1.977109,3.009505 3.057589,6.340277 2.946336,8.102422 -0.172538,0.758976 -1.421265,2.657025 -2.182127,2.940815 -0.39033,0.15085 -0.552732,0.23533 -1.207997,-0.1418 -0.655265,-0.37524 -1.78152,-1.434229 -3.003424,-3.684757 l -5.18555,2.828477 c 1.55378,2.86431 3.258223,4.83634 5.272102,5.98659 2.014822,1.15025 4.359115,1.21492 6.189142,0.52666 3.659113,-1.38596 5.531568,-4.53382 6.010524,-7.631012 0.0019,-0.06883 0.0019,-0.137417 0,-0.206243 C 56.754457,94.551987 54.91948,90.455919 52.466243,86.72138 50.013007,82.987784 46.981817,79.752192 43.509384,77.913679 37.847707,74.636412 26.579271,67.379235 25.035863,59.027671 c -0.767462,-4.238952 -0.304769,-8.122413 1.620484,-10.726502 1.924311,-2.603146 5.394433,-4.555785 12.549549,-4.358734 6.014295,0.379959 8.473425,2.854174 9.339883,5.215013 0.867401,2.359897 0.09782,4.894025 -1.797265,6.214926 l 3.360661,4.833831 c 4.16164,-2.903908 5.722773,-8.328892 3.975714,-13.08357 -1.746116,-4.753735 -6.856475,-8.558794 -14.525432,-9.043407 -0.02923,-9.43e-4 -0.05817,-9.43e-4 -0.08834,0 -0.522685,-0.01438 -1.035941,-0.01817 -1.539458,-0.01105 z"
     id="path835" />
  <path
     inkscape:connector-curvature="0"
     style="font-variation-settings:normal;opacity:1;vector-effect:none;fill:#333333;fill-opacity:1;fill-rule:evenodd;stroke:none;stroke-width:0.630361;stroke-linecap:butt;stroke-linejoin:miter;stroke-miterlimit:4;stroke-dasharray:none;stroke-dashoffset:0;stroke-opacity:1;stop-color:#000000;stop-opacity:1"
     d="m 96.94875,26.131215 c -15.288719,0.0046 -31.174293,3.204583 -39.31372,9.659781 0.522241,0.746427 1.111961,1.465653 1.753291,2.162388 16.972842,-11.167158 58.682649,-11.137154 71.807989,-0.288875 0.52683,-0.647883 1.0227,-1.320274 1.48277,-2.020455 -5.74944,-6.32653 -20.44161,-9.517435 -35.73033,-9.512839 z"
     id="path836" />
</svg>
