<?xml version="1.0" encoding="UTF-8" standalone="no"?>
<!-- Created with Inkscape (http://www.inkscape.org/) -->

<svg
   xmlns:dc="http://purl.org/dc/elements/1.1/"
   xmlns:cc="http://creativecommons.org/ns#"
   xmlns:rdf="http://www.w3.org/1999/02/22-rdf-syntax-ns#"
   xmlns:svg="http://www.w3.org/2000/svg"
   xmlns="http://www.w3.org/2000/svg"
   xmlns:sodipodi="http://sodipodi.sourceforge.net/DTD/sodipodi-0.dtd"
   xmlns:inkscape="http://www.inkscape.org/namespaces/inkscape"
   version="1.1"
   id="svg2"
   width="173.71429"
   height="174.62857"
   viewBox="0 0 173.71429 174.62857"
   sodipodi:docname="ext.svg"
   inkscape:version="0.92.3 (2405546, 2018-03-11)">
  <metadata
     id="metadata8">
    <rdf:RDF>
      <cc:Work
         rdf:about="">
        <dc:format>image/svg+xml</dc:format>
        <dc:type
           rdf:resource="http://purl.org/dc/dcmitype/StillImage" />
        <dc:title></dc:title>
      </cc:Work>
    </rdf:RDF>
  </metadata>
  <defs
     id="defs6" />
  <sodipodi:namedview
     pagecolor="#ffffff"
     bordercolor="#666666"
     borderopacity="1"
     objecttolerance="10"
     gridtolerance="10"
     guidetolerance="10"
     inkscape:pageopacity="0"
     inkscape:pageshadow="2"
     inkscape:window-width="1920"
     inkscape:window-height="1016"
     id="namedview4"
     showgrid="false"
     inkscape:zoom="3.822449"
     inkscape:cx="85.3052"
     inkscape:cy="100.43956"
     inkscape:window-x="0"
     inkscape:window-y="27"
     inkscape:window-maximized="1"
     inkscape:current-layer="svg2" />
  <path
     style="opacity:1;fill:#333333;fill-opacity:1;fill-rule:evenodd;stroke:none;stroke-width:1.13385832;stroke-miterlimit:4;stroke-dasharray:none;stroke-opacity:1"
     d="M 90.503998,21.650739 V 152.86879 a 65.675276,65.675276 0 0 0 8.405039,-0.75522 V 22.415256 a 65.675276,65.675276 0 0 0 -8.405039,-0.764517 z m -4.979817,0.04415 a 65.675276,65.675276 0 0 0 -7.159502,0.764517 V 151.98576 a 65.675276,65.675276 0 0 0 7.159502,0.76684 z m 23.033109,2.883785 V 149.85255 a 65.675276,65.675276 0 0 0 3.42289,-1.13632 V 25.828859 a 65.675276,65.675276 0 0 0 -3.42289,-1.250183 z m -39.840861,0.271881 a 65.675276,65.675276 0 0 0 -5.913968,2.235456 V 147.46373 a 65.675276,65.675276 0 0 0 5.913968,2.22616 z m 47.934511,2.934907 V 146.71315 a 65.675276,65.675276 0 0 0 8.09133,-4.42211 V 32.254054 a 65.675276,65.675276 0 0 0 -8.09133,-4.46859 z m -58.828296,1.69867 a 65.675276,65.675276 0 0 0 -3.422897,1.963575 V 143.00675 a 65.675276,65.675276 0 0 0 3.422897,2.05188 z m -6.848118,4.280364 a 65.675276,65.675276 0 0 0 -6.225353,5.003054 v 96.9519 a 65.675276,65.675276 0 0 0 6.225353,5.05649 z M 134.39284,39.9364 v 94.69784 A 65.675276,65.675276 0 0 0 154.62349,87.248147 65.675276,65.675276 0 0 0 134.39284,39.936403 Z M 42.571811,40.803166 A 65.675276,65.675276 0 0 0 23.272989,87.248147 65.675276,65.675276 0 0 0 42.571811,133.69081 Z"
     id="path4536"
     inkscape:connector-curvature="0" />
</svg>
