<?xml version="1.0" encoding="UTF-8" standalone="no"?>
<!-- Created with Inkscape (http://www.inkscape.org/) -->

<svg
   xmlns:dc="http://purl.org/dc/elements/1.1/"
   xmlns:cc="http://creativecommons.org/ns#"
   xmlns:rdf="http://www.w3.org/1999/02/22-rdf-syntax-ns#"
   xmlns:svg="http://www.w3.org/2000/svg"
   xmlns="http://www.w3.org/2000/svg"
   xmlns:xlink="http://www.w3.org/1999/xlink"
   xmlns:sodipodi="http://sodipodi.sourceforge.net/DTD/sodipodi-0.dtd"
   xmlns:inkscape="http://www.inkscape.org/namespaces/inkscape"
   height="174.65323"
   width="173.69922"
   sodipodi:docname="pony.svg"
   inkscape:version="0.92+devel (17f8b1805e, 2018-12-05)"
   version="1.0"
   viewBox="0 0 173.69922 174.65323"
   id="svg2">
  <sodipodi:namedview
     inkscape:snap-global="false"
     inkscape:current-layer="svg2"
     inkscape:window-maximized="1"
     inkscape:window-y="27"
     inkscape:window-x="0"
     inkscape:cy="0.085016471"
     inkscape:cx="18.844022"
     inkscape:zoom="1.9501657"
     fit-margin-bottom="0"
     fit-margin-right="0"
     fit-margin-left="0"
     fit-margin-top="0"
     showgrid="false"
     id="namedview64"
     inkscape:window-height="1016"
     inkscape:window-width="1920"
     inkscape:pageshadow="2"
     inkscape:pageopacity="0"
     guidetolerance="10"
     gridtolerance="10"
     objecttolerance="10"
     borderopacity="1"
     bordercolor="#666666"
     pagecolor="#ffffff"
     inkscape:document-rotation="0" />
  <defs
     id="defs66">
    <linearGradient
       inkscape:collect="always"
       id="linearGradient11550">
      <stop
         style="stop-color: rgb(255, 255, 255); stop-opacity: 1;"
         offset="0"
         id="stop11552" />
      <stop
         style="stop-color: rgb(255, 255, 255); stop-opacity: 0;"
         offset="1"
         id="stop11554" />
    </linearGradient>
    <linearGradient
       inkscape:collect="always"
       xlink:href="#linearGradient11550"
       id="linearGradient10783"
       gradientUnits="userSpaceOnUse"
       x1="25.5"
       y1="18.5"
       x2="36.5"
       y2="18.5"
       gradientTransform="matrix(10.16656,0,0,10.16656,-690.80875,-2.1691774)" />
    <clipPath
       id="clipPath6869"
       clipPathUnits="userSpaceOnUse">
      <path
         inkscape:connector-curvature="0"
         id="path6871"
         d="M 718.86228,874.38943 C 750.02801,912.52645 753.71869,955.1743 753.71869,955.1743 767.66126,958.04483 853.36703,962.96573 853.36703,962.96573 853.36703,962.96573 832.45318,1001.9229 831.63303,1004.7934 830.81288,1007.664 756.99929,987.16018 756.99929,987.16018 L 731.57462,958.86498 C 731.57462,958.86498 741.8265,964.60603 739.36605,949.84332 736.9056,935.0806 734.44514,912.52645 718.86228,874.38943 Z"
         style="fill:none;stroke:#bf1f53;stroke-width:5;stroke-linecap:butt;stroke-linejoin:miter;stroke-miterlimit:4;stroke-dasharray:none;stroke-dashoffset:0;stroke-opacity:1" />
    </clipPath>
    <clipPath
       id="clipPath6875"
       clipPathUnits="userSpaceOnUse">
      <path
         sodipodi:nodetypes="ccccscsccccccsc"
         inkscape:connector-curvature="0"
         id="path6877"
         d="M 821.79122,948.61309 C 829.99273,1024.8871 819.74084,1040.8801 809.48895,1062.6141 823.02144,1071.2257 871.82042,1097.8806 871.82042,1097.8806 L 904.21638,1030.2181 C 904.21638,1030.2181 884.94284,898.17381 854.59725,898.17381 824.25167,898.17381 816.87031,895.30328 816.87031,895.30328 840.24461,892.43275 885.35291,865.77785 914.87835,919.08766 944.40378,972.39747 977.20982,1074.0962 977.20982,1074.0962 V 1148.3198 L 945.22393,1192.1979 847.62597,1148.3198 772.17209,1092.5496 788.98518,1042.5204 C 788.98518,1042.5204 795.95646,1049.0816 804.97812,1034.3189 813.99978,1019.5561 815.55266,973.66037 821.79122,948.61309 Z"
         style="fill:none;stroke:#bf1f53;stroke-width:5;stroke-linecap:butt;stroke-linejoin:miter;stroke-miterlimit:4;stroke-dasharray:none;stroke-dashoffset:0;stroke-opacity:1" />
    </clipPath>
    <clipPath
       id="clipPath6863"
       clipPathUnits="userSpaceOnUse">
      <path
         sodipodi:nodetypes="cccc"
         inkscape:connector-curvature="0"
         id="path6865"
         d="M 809.89903,828.87106 C 811.94941,871.10883 823.84159,891.6126 827.1222,894.07306 840.65469,892.02268 846.47464,892.30058 846.47464,892.30058 840.73358,893.5308 820.97107,864.54762 809.89903,828.87106 Z"
         style="fill:none;stroke:#bf1f53;stroke-width:5;stroke-linecap:butt;stroke-linejoin:miter;stroke-miterlimit:4;stroke-dasharray:none;stroke-dashoffset:0;stroke-opacity:1" />
    </clipPath>
    <clipPath
       id="clipPath6895"
       clipPathUnits="userSpaceOnUse">
      <path
         inkscape:connector-curvature="0"
         id="path6897"
         d="M 1070.3995,452.83186 C 1073.27,468.20969 1095.1065,470.05503 1109.1516,470.26007 1103.9231,479.69181 813.58971,587.33661 813.58971,587.33661 L 765.2008,801.396 C 765.2008,801.396 1024.3685,812.87812 1027.6491,812.87812 1030.9297,812.87812 1165.4344,707.8988 1165.4344,707.8988 L 1242.5286,465.13413 1206.442,399.52205 C 1206.442,399.52205 1144.6231,454.88224 1113.8675,457.75277 1083.1118,460.6233 1076.5506,456.93262 1070.3995,452.83186 Z"
         style="fill:#ffaaaa;fill-opacity:1;fill-rule:nonzero;stroke:none" />
    </clipPath>
    <clipPath
       id="clipPath6069"
       clipPathUnits="userSpaceOnUse">
      <path
         sodipodi:nodetypes="ccssscccc"
         inkscape:connector-curvature="0"
         id="path6071"
         d="M 798.41692,670.99201 C 773.19728,675.70787 759.45975,673.86254 753.92373,667.71141 769.09652,670.58193 796.98166,657.86959 805.59324,649.25801 814.20482,640.64642 658.37615,584.26105 656.12073,578.93007 653.86532,573.59909 653.45524,490.55881 655.30058,489.94369 657.14592,489.32858 689.74692,504.91145 689.74692,504.91145 L 829.17258,605.79001 834.70859,652.33357 Z"
         style="fill:none;stroke:#bf1f53;stroke-width:5;stroke-linecap:butt;stroke-linejoin:miter;stroke-miterlimit:4;stroke-dasharray:none;stroke-dashoffset:0;stroke-opacity:1" />
    </clipPath>
    <clipPath
       id="clipPath6907"
       clipPathUnits="userSpaceOnUse">
      <path
         sodipodi:nodetypes="csscssssc"
         inkscape:connector-curvature="0"
         id="path6909"
         d="M 678.5231,514.18318 C 662.78659,502.3222 628.24782,481.522 582.95259,446.50279 561.98773,430.29419 601.39184,269.45091 625.16915,294.96802 648.94645,320.48513 659.38527,341.21778 661.12507,345.27732 658.2254,297.72271 603.13164,243.93381 586.31355,225.37591 569.49546,206.81801 510.92209,210.29762 492.3642,230.59532 473.8063,250.89302 426.25169,355.86112 461.04775,399.93612 495.8438,444.01113 547.45795,434.73218 566.01585,453.87001 584.57375,473.00784 654.74579,514.18318 678.5231,514.18318 Z"
         style="fill:#ffaaaa;fill-opacity:1;fill-rule:nonzero;stroke:none" />
    </clipPath>
  </defs>
  <metadata
     id="metadata61">
    <rdf:RDF>
      <cc:Work>
        <dc:format>image/svg+xml</dc:format>
        <dc:type
           rdf:resource="http://purl.org/dc/dcmitype/StillImage" />
        <cc:license
           rdf:resource="http://creativecommons.org/publicdomain/zero/1.0/" />
        <dc:publisher>
          <cc:Agent
             rdf:about="http://openclipart.org/">
            <dc:title>Openclipart</dc:title>
          </cc:Agent>
        </dc:publisher>
        <dc:title />
        <dc:date>2008-03-15T22:35:33</dc:date>
        <dc:description>Masonic Square and Compasses</dc:description>
        <dc:source>https://openclipart.org/detail/15800/square-and-compasses-by-coder7</dc:source>
        <dc:creator>
          <cc:Agent>
            <dc:title>coder7</dc:title>
          </cc:Agent>
        </dc:creator>
        <dc:subject>
          <rdf:Bag>
            <rdf:li>line art</rdf:li>
            <rdf:li>masonic</rdf:li>
            <rdf:li>outline</rdf:li>
          </rdf:Bag>
        </dc:subject>
      </cc:Work>
      <cc:License
         rdf:about="http://creativecommons.org/publicdomain/zero/1.0/">
        <cc:permits
           rdf:resource="http://creativecommons.org/ns#Reproduction" />
        <cc:permits
           rdf:resource="http://creativecommons.org/ns#Distribution" />
        <cc:permits
           rdf:resource="http://creativecommons.org/ns#DerivativeWorks" />
      </cc:License>
    </rdf:RDF>
  </metadata>
  <path
     style="color:#000000;font-style:normal;font-variant:normal;font-weight:normal;font-stretch:normal;font-size:medium;line-height:normal;font-family:sans-serif;font-variant-ligatures:normal;font-variant-position:normal;font-variant-caps:normal;font-variant-numeric:normal;font-variant-alternates:normal;font-feature-settings:normal;text-indent:0;text-align:start;text-decoration:none;text-decoration-line:none;text-decoration-style:solid;text-decoration-color:#000000;letter-spacing:normal;word-spacing:normal;text-transform:none;writing-mode:lr-tb;direction:ltr;text-orientation:mixed;dominant-baseline:auto;baseline-shift:baseline;text-anchor:start;white-space:normal;shape-padding:0;clip-rule:nonzero;display:inline;overflow:visible;visibility:visible;opacity:1;isolation:auto;mix-blend-mode:normal;color-interpolation:sRGB;color-interpolation-filters:linearRGB;solid-color:#000000;solid-opacity:1;vector-effect:none;fill:#333333;fill-opacity:1;fill-rule:nonzero;stroke:none;stroke-width:0.74243492;stroke-linecap:butt;stroke-linejoin:miter;stroke-miterlimit:100;stroke-dasharray:none;stroke-dashoffset:0;stroke-opacity:1;color-rendering:auto;image-rendering:auto;shape-rendering:auto;text-rendering:auto;enable-background:accumulate"
     d="m 107.22211,9.1733391 c -4.2885,-0.057285 -8.422281,0.3166527 -12.056239,1.0988379 -12.771777,2.74904 -18.910349,10.718066 -17.909417,17.739943 -0.02548,0.543921 -0.06651,1.109951 -0.10387,1.671036 -0.526612,-0.380653 -1.045185,-0.730176 -1.538008,-1.016836 -1.251287,-0.727832 -2.318159,-1.183207 -3.320203,-1.106127 -0.45036,0.03464 -0.751009,0.25889 -1.031414,0.51753 -0.280406,0.25864 -0.541824,0.586009 -0.803627,0.984033 -0.523605,0.796049 -1.044524,1.877319 -1.501563,3.188999 -0.914075,2.623363 -1.561562,6.166105 -1.22822,10.026212 0.405432,4.694907 2.331278,9.840258 6.950195,14.2284 -0.433594,8.541747 0.290315,15.402501 4.501043,17.207836 0.122717,0.115739 0.216972,0.238919 0.329834,0.357169 -0.22313,0.06198 -0.445995,0.121682 -0.668779,0.185872 l -0.22414,0.06378 -0.02551,0.233253 c -0.0077,0.07391 -0.01406,0.150103 -0.02187,0.224141 -1.447975,-0.567036 -3.050788,-0.847937 -4.646826,-0.860119 -3.531577,-0.02696 -7.023411,1.24985 -8.692299,3.586257 -0.07101,2.196965 1.490673,11.870716 5.483255,15.112209 0.05069,0.127924 0.10154,0.243568 0.154894,0.337122 -0.08938,4.73e-4 -0.180694,0.0061 -0.267876,0.0019 l -0.11116,-0.0055 -0.08747,-0.06925 c -0.114637,-0.09154 -0.21944,-0.203826 -0.329833,-0.304322 0.807035,1.519793 1.522285,3.17956 2.124784,4.989416 0.306175,-0.21341 0.641152,-0.420076 0.978567,-0.625044 -0.05181,-1.307815 -0.164747,-2.564178 -0.311611,-3.790353 1.469374,-0.347867 3.475198,-1.182735 4.796254,-2.981257 1.346537,-1.833213 2.160198,-3.459479 2.635024,-5.146133 0.510691,0.411391 1.043735,0.715274 1.594499,0.93301 -0.290133,2.828532 -0.61142,5.735255 -0.05831,8.561094 -1.382189,0.206487 -2.773727,0.446648 -4.13841,0.809095 -3.083645,0.818986 -6.039223,2.217742 -8.229438,4.850927 0.119614,-0.16557 0.236659,-0.333409 0.368102,-0.488372 -3.575753,-9.389081 -8.980236,-13.881004 -14.698551,-15.002881 -6.424564,-1.260437 -13.319974,1.71792 -18.496192,6.94655 -5.176218,5.22863 -8.609343,12.686843 -8.141969,20.287503 0.467374,7.60066 4.807303,15.37247 15.298082,21.31162 l -0.309788,0.54851 c -10.631568,-6.01886 -15.1365,-14.00803 -15.616982,-21.82186 -0.480482,-7.81384 3.0356,-15.426442 8.324198,-20.768588 3.966448,-4.00661 8.942676,-6.747934 14.006081,-7.314652 1.687802,-0.188906 3.385887,-0.135023 5.058663,0.193163 5.895329,1.156604 11.415921,5.752478 15.055718,15.088518 0.179918,-0.188444 0.365552,-0.371217 0.557619,-0.546685 0.243922,-0.222843 0.513852,-0.441181 0.794516,-0.656023 C 68.469317,88.167299 62.096816,82.818614 54.924355,80.953178 47.533935,79.031054 39.283704,80.817527 32.856484,85.352173 26.429265,89.886819 21.82988,97.150993 21.693167,106.1973 c -0.136713,9.04627 4.194798,19.90675 15.744541,31.61299 l -0.448282,0.441 c -11.631238,-11.78884 -16.066634,-22.8101 -15.92677,-32.06493 0.139865,-9.254837 4.860554,-16.712238 11.431193,-21.348072 4.92798,-3.476875 10.898969,-5.377392 16.7796,-5.277337 1.96021,0.03336 3.91133,0.289916 5.809444,0.783583 4.542858,1.181521 8.774585,3.744863 12.116373,7.866804 -0.478599,-1.113659 -0.877053,-2.295277 -1.208175,-3.456874 -0.895405,-3.141126 -1.277958,-6.101303 -1.239154,-7.301896 l 0.0036,-0.105693 0.06013,-0.08565 c 0.404109,-0.565745 0.912515,-1.062571 1.486985,-1.501563 -5.564642,-7.44125 -13.744235,-11.17581 -21.721636,-11.354657 -7.561017,-0.169514 -14.937335,2.849729 -19.720768,8.921907 -5.326424,6.761459 0.938439,4.230294 7.227182,1.85873 -6.759677,4.075344 -28.0201376,26.016588 -13.014759,50.134708 12.107047,19.45964 22.533783,14.37751 26.718342,4.6286 -12.471568,-5.197 2.805504,-15.36639 -1.519786,-20.07429 4.425524,1.16461 6.814673,-0.1655 7.464079,-2.39995 -19.133683,-13.523908 9.106386,-22.29914 17.585049,-7.11056 -0.272079,0.3396 -0.537716,0.69069 -0.783582,1.07151 -1.940948,3.00632 -2.994901,7.27065 -2.742539,13.36464 -2.469588,0.0416 -4.70976,0.92841 -5.964338,2.72067 -1.338878,1.91268 -1.390745,4.72296 0.371746,8.01806 1.549565,2.897 0.983814,5.52554 -0.184051,7.74106 -1.167864,2.2155 -2.958744,3.91417 -3.746618,4.63042 -0.290783,0.26434 -0.393217,0.63152 -0.406369,0.9403 -0.01316,0.3088 0.04348,0.60213 0.134849,0.91115 0.182746,0.61804 0.521003,1.30455 0.978567,2.05918 0.915128,1.50923 2.31531,3.26319 3.958003,4.79261 1.100966,1.02503 2.307989,1.94652 3.566212,2.60951 -0.592061,3.56031 0.203123,6.72093 1.747571,9.27725 1.628223,2.69499 4.04652,4.7413 6.507379,6.06275 2.460858,1.32145 4.949483,1.94823 6.902815,1.64916 0.976666,-0.14954 1.860017,-0.56191 2.407238,-1.32298 0.547229,-0.76107 0.682427,-1.79412 0.417304,-2.94299 -0.87168,-3.77728 -0.395855,-10.86324 1.086082,-17.69803 1.433611,-6.61191 3.838861,-13.04895 6.514668,-16.20011 3.657007,-0.85435 7.275361,-2.81555 10.091818,-6.29964 1.77786,0.22233 3.50527,0.27976 4.4081,0.24236 -0.0474,0.80077 -0.1141,1.6248 -0.22414,2.44733 -0.18498,1.38273 -0.45017,2.7427 -0.77083,3.84502 -0.32064,1.10231 -0.74314,1.95249 -1.01319,2.23048 -0.63876,0.65755 -0.76077,1.61282 -0.53939,2.47648 0.22137,0.86365 0.72789,1.72501 1.41774,2.59676 1.3797,1.74352 3.51967,3.52107 5.86775,4.8819 2.34808,1.36082 4.89453,2.31709 7.17798,2.24506 1.14174,-0.036 2.232,-0.34757 3.12158,-1.0387 0.88957,-0.69113 1.5431,-1.7446 1.88424,-3.1234 1.29469,-5.23267 0.2442,-11.17515 -1.31569,-16.09078 -0.77995,-2.45781 -1.69239,-4.65787 -2.52569,-6.38528 -0.83329,-1.72742 -1.54826,-2.94563 -2.09745,-3.59173 -0.53405,-0.6283 -1.02973,-1.27526 -1.71477,-1.78766 3.92408,-3.74867 5.89501,-8.31136 6.89735,-12.349627 7.48951,-3.954039 34.32673,-16.638362 37.64841,-18.022397 l 0.28792,-0.120272 0.12027,-0.286098 c 1.15026,-2.760626 1.99671,-6.944525 1.84598,-10.995667 -0.15074,-4.051143 -1.30837,-8.052982 -4.47189,-10.08088 l -0.41184,-0.262409 -0.41001,0.267876 c -1.81033,1.183676 -4.34219,2.274663 -8.83262,5.2008 -0.65665,0.427902 -1.4293,0.966676 -2.17581,1.481518 1.18983,-1.687252 2.03282,-3.91367 2.36533,-6.775255 0.0911,-0.783737 9.3e-4,-1.455504 -0.3681,-1.971712 -0.36871,-0.51621 -0.94783,-0.751469 -1.49063,-0.84554 -0.45636,-0.07909 -0.93407,-0.08517 -1.41774,-0.07472 0.11442,-2.689275 -0.11002,-5.577969 -0.74349,-8.424423 0.94635,0.197194 2.11835,-0.59484 3.16531,-2.39995 -0.76601,0.895823 -2.12924,1.846002 -3.33114,1.308401 0.51623,-0.206487 1.21489,-1.411593 1.26649,-4.302414 0.0516,0.619461 -0.3993,2.148646 -1.63824,3.077839 0.4646,-0.774328 0.14194,-3.800205 -0.94211,-4.522911 0.48438,0.69199 0.48986,1.869366 0.35716,3.00677 -0.44705,-1.204597 -0.96326,-2.381287 -1.58357,-3.495143 2.30351,-2.83491 0.26479,-7.881724 -1.60178,-10.401602 1.54865,1.445411 7.05381,4.229901 5.06049,-2.478307 C 139.83634,15.072591 122.53816,9.3779281 107.22211,9.1733391 Z m -2.9029,15.3363499 c 4.29289,0.07091 8.20179,1.019956 11.83756,2.106562 5.54022,1.655779 10.45241,3.612043 15.13954,3.347536 l 0.0346,0.628688 c -4.88426,0.275631 -9.84805,-1.727342 -15.35457,-3.373049 -5.22891,-1.562738 -10.94056,-2.812464 -17.54131,-1.589032 2.01593,0.428717 4.02415,1.014427 6.07368,1.66739 1.59981,0.50969 3.2413,1.058068 4.92016,1.5945 0.90392,-0.06149 1.82294,-0.101963 2.76987,-0.100226 0.73545,0.0013 1.48254,0.02215 2.24324,0.0656 0.76052,0.04344 1.53262,0.107912 2.31795,0.196808 0.71129,0.08051 1.43539,0.185709 2.16669,0.306143 0.0845,0.01389 0.16664,0.022 0.25148,0.03644 0.60969,0.104063 1.22998,0.234683 1.85326,0.368102 0.21606,0.04616 0.42742,0.0814 0.64509,0.131205 0.56462,0.129425 1.14119,0.286326 1.71659,0.440992 0.27017,0.07252 0.53476,0.131308 0.80728,0.209563 0.6512,0.187215 1.31447,0.405868 1.979,0.626866 0.2016,0.06699 0.39853,0.121151 0.60135,0.19134 0.68107,0.235881 1.37365,0.50334 2.0683,0.776294 0.0268,0.01051 0.0536,0.01905 0.0801,0.02916 0.27532,-0.0064 0.54441,-0.0052 0.82367,-0.0164 l 0.0146,0.351702 c 0.64139,0.267183 1.28722,0.549595 1.93891,0.847362 0.15305,0.06991 0.30193,0.126865 0.45557,0.198628 0.004,0.0018 0.007,0.0037 0.0109,0.0055 0.81112,0.379118 1.63408,0.794384 2.46191,1.226398 1.25121,3.333414 4.72438,6.784344 6.00625,10.83895 -2.055,1.628576 -6.44447,7.194237 -4.22588,9.610731 -0.41534,-2.447696 0.76464,-5.122711 4.63407,-8.136502 0.73787,2.956812 1.00491,6.000598 0.87651,8.801636 -0.16604,0.0014 -0.33299,0.0068 -0.49748,0 -1.28208,-0.05342 -2.29218,-7.2e-5 -2.97761,-0.105693 -0.68544,-0.105659 -1.00827,-0.252853 -1.38312,-0.891097 l -1.30293,0.765359 c 0.58016,0.987844 1.50934,1.474019 2.45644,1.620012 0.9471,0.145996 1.9495,0.07045 3.14526,0.120271 1.33062,0.05544 2.57468,-0.09582 3.23274,0.01822 0.32904,0.05703 0.4482,0.135445 0.51935,0.235074 0.0712,0.09963 0.16322,0.344916 0.0966,0.918432 -0.42121,3.624878 -1.6622,5.958621 -3.29833,7.460435 -1.63614,1.501813 -3.71175,2.198482 -5.90785,2.378081 -2.91494,0.238387 -6.00815,-0.506067 -8.2422,-1.384936 0.0775,-0.03495 0.14012,-0.07518 0.2205,-0.109337 l 2.25781,-0.958522 -2.40724,-0.477439 c -0.35263,-0.06975 -0.70451,-0.09486 -1.04964,-0.07654 -1.03538,0.05497 -2.00786,0.49391 -2.74071,1.235509 -0.924,0.935045 -1.4282,2.351747 -1.41227,4.001738 v 0.0019 c 9.3e-4,0.09424 -0.0393,0.166531 -0.0346,0.262409 l 1.24827,0.158539 c 0.32423,9.110401 3.72995,14.365027 6.80988,17.113078 -2.40946,0.25876 -6.67701,0.477015 -13.80563,-0.530285 l -0.21131,1.494197 c 1.31534,0.185864 2.52226,0.32339 3.66279,0.433704 -0.03,1.713854 -0.11942,4.515007 -0.86377,7.795734 -0.93603,4.125611 -2.89675,8.842861 -7.0249,12.591991 -0.0154,-0.005 -0.0282,-0.0117 -0.0438,-0.0164 -0.79258,-0.23927 -1.74759,-0.3444 -3.00677,-0.29704 -0.80144,0.0301 -1.78715,0.14734 -2.87192,0.30432 l -2.65142,-7.51874 c 0,0.47486 -0.8768,4.67744 1.18084,7.73195 -0.54224,0.0819 0.13369,-0.0187 -0.49019,0.0948 l 0.27151,1.48517 c 3.93101,-0.71474 5.97982,-0.70276 7.13061,-0.35535 1.15078,0.3474 1.58048,1.00227 2.48195,2.06282 0.32838,0.38634 1.08547,1.60751 1.88788,3.271 0.80247,1.66349 1.68971,3.80494 2.44551,6.18666 1.51161,4.76346 2.47517,10.48878 1.292,15.27075 -0.27832,1.12485 -0.7519,1.83176 -1.34484,2.29243 -0.59295,0.46069 -1.34127,0.69313 -2.24506,0.72163 -1.80757,0.057 -4.17789,-0.76907 -6.37253,-2.04096 -2.19463,-1.27191 -4.22337,-2.9775 -5.4377,-4.51198 -0.60712,-0.76723 -1.00238,-1.49384 -1.14075,-2.03367 -0.13836,-0.53981 -0.0785,-0.80381 0.16036,-1.04964 0.64559,-0.66456 1.02836,-1.65394 1.37947,-2.86098 0.35111,-1.20703 0.62554,-2.62713 0.81821,-4.06734 0.38534,-2.88042 0.49946,-5.73264 0.0528,-7.32741 l -1.45418,0.4082 c 0.14054,0.50191 0.20508,1.52058 0.18951,2.76075 -0.70585,0.0376 -2.87457,-0.0131 -4.799898,-0.29338 -0.987017,-0.14369 -1.92242,-0.35197 -2.549374,-0.60135 -0.313477,-0.1247 -0.545626,-0.26133 -0.659667,-0.36082 -0.114042,-0.0995 -0.09555,-0.11447 -0.09476,-0.10022 -0.110121,-1.98214 -0.840392,-6.80367 -3.622703,-11.29817 l -1.284711,0.79451 c 2.586358,4.17796 3.302192,8.85285 3.398561,10.58748 0.0266,0.47884 0.29782,0.88258 0.610466,1.15533 0.312644,0.27275 0.680915,0.4628 1.093371,0.62687 0.505761,0.20117 1.09278,0.34878 1.705658,0.47561 -3.499084,3.91392 -8.125165,5.48568 -12.435272,5.58895 -4.594487,0.11009 -8.794721,-1.53547 -10.625743,-3.59537 l -0.810917,0.72163 c -2.86025,0.25582 -3.96612,0.0641 -6.585737,-1.28107 2.081788,2.61434 4.746397,2.78143 6.323328,2.60222 2.4554,2.50216 -1.049299,19.22945 -3.496965,21.95672 -1.172706,1.33116 -2.458311,1.51769 -4.016316,1.08243 -1.558004,-0.43527 -3.297884,-1.60501 -4.830877,-3.03229 -1.532993,-1.42726 -2.867744,-3.10474 -3.695594,-4.47005 -0.413924,-0.68265 -0.700032,-1.29367 -0.82185,-1.70567 -0.05711,-0.19314 -0.06925,-0.32773 -0.06925,-0.39179 0.855458,-0.78135 2.697776,-2.53477 3.974404,-4.95661 1.314279,-2.49327 1.989037,-5.77746 0.180406,-9.15881 -1.595707,-2.98327 -1.427262,-5.06562 -0.466505,-6.43813 0.910439,-1.30062 2.687675,-2.06315 4.827232,-2.08287 0.03406,0.47031 0.05506,0.92132 0.10387,1.41227 l 1.503385,-0.14942 c -0.744142,-7.48449 0.318205,-12.23503 2.305192,-15.31267 1.986987,-3.077627 4.933753,-4.58309 8.274995,-5.470492 3.341241,-0.887402 7.034684,-1.113905 10.325066,-1.636412 3.290381,-0.522507 6.2737,-1.338025 7.968852,-3.690127 l -1.224576,-0.883808 c -0.404189,0.56083 -0.941507,1.013189 -1.568987,1.399515 -1.4602,-2.75053 -2.669126,-5.738348 -3.642748,-8.480914 1.66925,2.073895 3.777778,3.247732 5.838601,3.746618 2.347056,0.568176 4.592533,0.234115 5.980743,-0.544863 0.26377,-0.959619 -0.17597,-2.553437 -1.929805,-4.162099 -1.889065,-1.732667 -5.251882,-3.248169 -11.024821,-3.254601 -0.01135,-0.09293 -0.01989,-0.185939 -0.03281,-0.27881 L 88.753144,78.4913 c 5.887898,0.0024 9.501653,1.549294 11.527776,3.407673 1.13559,1.041586 1.76477,2.170007 2.01544,3.183531 0.38433,-2.135205 0.15729,-4.788694 -0.34805,-7.245405 -0.63051,-3.065187 -1.64365,-5.772503 -2.146657,-6.704186 -0.846401,-0.386063 -1.82103,-0.58474 -2.877383,-0.574019 -1.093796,0.0111 -2.261487,0.223699 -3.420429,0.61411 -2.129128,0.717234 -4.213151,2.032382 -5.75842,3.721105 l -0.03462,-0.03098 c -0.134369,-0.11837 -0.271778,-0.223798 -0.410014,-0.326188 1.258873,-0.972937 1.953932,-2.070849 2.237765,-3.260068 -1.030852,-2.464247 -2.045753,-4.705276 -2.913833,-6.383465 -0.130537,-0.252354 -0.250164,-0.464895 -0.373568,-0.690645 -0.116744,-0.212542 -0.233021,-0.425555 -0.34259,-0.612288 -0.102993,-0.176417 -0.201016,-0.330972 -0.297032,-0.482905 -0.0031,-0.0049 -0.006,-0.0079 -0.0091,-0.01275 0.553903,0.211357 1.099831,0.425792 1.685614,0.623222 l 0.482905,-1.430493 C 74.051976,57.663668 69.856794,49.371884 69.232934,42.147584 c -0.311929,-3.612148 0.304166,-6.966997 1.151684,-9.399345 0.42376,-1.216174 0.90858,-2.203335 1.337558,-2.855521 0.214489,-0.326092 0.417317,-0.567266 0.564908,-0.703402 0.147592,-0.136136 0.238732,-0.132747 0.123915,-0.123915 0.340123,-0.02616 1.319251,0.250569 2.445507,0.905676 1.126257,0.655107 2.444234,1.641022 3.742973,2.85552 2.597474,2.428997 5.111134,5.781713 6.086431,9.195249 l 1.452362,-0.41548 c -0.222499,-0.778745 -0.525698,-1.5395 -0.867409,-2.286968 0.114581,-0.108555 0.207934,-0.200212 0.346235,-0.326188 0.253409,-0.232013 0.558707,-0.491789 0.883808,-0.769005 0.127406,-0.108277 0.233724,-0.201358 0.371746,-0.315256 0.365286,-0.302536 0.784284,-0.626977 1.224575,-0.962166 0.139362,-0.105801 0.257879,-0.201561 0.404548,-0.309788 0.492981,-0.364859 1.042651,-0.740469 1.618189,-1.12435 0.145523,-0.09684 0.272094,-0.188636 0.42277,-0.286099 4.045081,-2.622736 9.954016,-5.422782 17.446556,-6.210347 -0.0569,0.0059 -0.11648,0.0083 -0.17312,0.01458 -1.17509,-0.38342 -2.36658,-0.772749 -3.49878,-1.133461 -7.102643,-2.262849 -13.499295,-3.749817 -21.517544,-0.328016 l -0.246009,-0.577664 c 3.58356,-1.52929 6.86879,-2.096786 10.028034,-2.061004 0.45132,0.0051 0.899983,0.02233 1.346668,0.05103 1.128448,0.0725 2.242886,0.223349 3.353004,0.422771 l -0.04009,-0.176762 c 1.799737,-0.401162 3.535557,-0.618135 5.213557,-0.692468 0.62922,-0.02788 1.25093,-0.03564 1.8642,-0.02551 z M 71.217402,38.328075 c 0.412974,7.846515 6.711195,11.459213 8.466336,11.872186 -3.510283,-2.58109 -8.156605,-9.910557 -8.466336,-11.872186 z M 104.56521,55.10403 c 0.0458,0.916058 1.35614,2.317504 3.41679,3.307447 -1.37364,0.648154 -2.31633,1.219311 -2.59129,1.494274 -2.3746,0.30973 -4.23369,-0.10359 -7.021262,-1.85873 0,0 1.135754,2.06539 3.613592,2.788095 0,0 -1.85852,0.411723 -3.92338,-0.20774 0.929192,0.82595 3.61473,1.136478 6.50555,1.033235 10.73734,-6.401104 19.40874,-5.781821 26.84226,-4.233168 -7.49209,-4.18677 -16.84155,-1.790294 -22.07334,0.388147 -1.43868,-0.401276 -3.56236,-1.395322 -4.76892,-2.71156 z m -26.033156,4.446375 c 0.309047,0.203117 0.640704,0.398536 0.965811,0.595888 0.09646,0.360041 0.192686,0.721548 0.282455,1.11706 l 0.0019,0.0073 4.475531,12.145529 c -0.249355,-0.02254 -0.49884,-0.04411 -0.750782,-0.04191 L 80.370817,64.68744 c 0.462803,2.606659 0.914352,5.637342 1.463295,8.850838 -0.18946,0.03163 -0.3785,0.05941 -0.568552,0.0984 -0.799462,-4.743708 -1.38127,-9.064824 -2.084729,-12.181996 z m 77.148256,0.858297 c 2.27969,1.707949 3.32786,4.955934 3.46234,8.570205 0.13755,3.696499 -0.66073,7.600768 -1.66192,10.110037 -3.93852,1.668751 -27.94518,13.031371 -36.30903,17.366375 0.5232,-2.805002 0.61579,-5.250267 0.64327,-6.751566 6.17012,0.465548 9.56182,-0.08659 10.82254,-0.244186 l 1.97536,-0.246009 -1.00043,-0.685178 c -0.76197,-2.75694 -1.05698,-7.90253 -0.37357,-12.550076 6.23795,-5.196848 10.76398,-8.483097 14.1136,-10.665834 4.16274,-2.71261 6.40281,-3.702668 8.32784,-4.903768 z m -16.56821,8.927373 c -1.63951,1.254479 -3.45965,2.702809 -5.44135,4.329749 0.32036,-1.36161 0.7476,-2.618386 1.29018,-3.701061 0.38951,-0.0046 0.77905,-0.0099 1.1699,-0.04191 1.00661,-0.08232 2.01059,-0.273968 2.98127,-0.586776 z m -55.663521,4.727007 c 0.106873,-0.0019 0.208058,0.01372 0.313433,0.0164 0.256748,0.0065 0.511843,0.01839 0.759893,0.05466 0.01846,0.0027 0.03625,0.008 0.05466,0.01094 0.237125,0.03704 0.470344,0.08854 0.699757,0.156717 0.412166,0.121129 0.812432,0.29504 1.200886,0.532107 0.04292,0.02635 0.08492,0.0541 0.12756,0.082 0.192663,0.125445 0.383484,0.261761 0.570375,0.420948 0.0168,0.05179 0.03095,0.103126 0.04738,0.154893 0.0083,0.02616 0.01548,0.0522 0.02369,0.07836 0.118324,0.374783 0.226388,0.749046 0.326189,1.122527 0.02121,0.0826 0.04312,0.165277 0.06378,0.247831 0.09049,0.354255 0.171534,0.707354 0.242365,1.060569 0.01154,0.05772 0.02545,0.115387 0.03644,0.173117 0.07814,0.409331 0.143563,0.818289 0.19134,1.226398 0.0011,0.0097 0.0025,0.0195 0.0036,0.02916 0.04448,0.386105 0.06797,0.771993 0.082,1.157152 0.0326,0.956166 -0.03142,1.910101 -0.225964,2.862809 -0.0014,0.0067 -0.0022,0.01334 -0.0036,0.02004 -0.08802,0.427113 -0.204173,0.854214 -0.346234,1.281067 -0.06465,0.194246 -0.114771,0.3889 -0.19134,0.583131 -0.457947,0.101246 -0.90651,0.182275 -1.350313,0.24783 -0.09133,0.01372 -0.182651,0.02829 -0.273342,0.04009 -0.153062,0.01956 -0.306198,0.03742 -0.457395,0.05103 -0.110663,0.01017 -0.22021,0.01525 -0.329833,0.02187 -0.163045,0.0096 -0.325847,0.02069 -0.48655,0.02187 -0.0031,2.2e-5 -0.0061,-2e-5 -0.0091,0 -0.218592,0.0014 -0.434794,-0.007 -0.648734,-0.02369 -0.65979,-0.05159 -1.295525,-0.198508 -1.90611,-0.468328 -0.496633,-0.219464 -0.978204,-0.512979 -1.437782,-0.918431 -0.0071,-0.01238 -0.01122,-0.02408 -0.01822,-0.03644 0,0 0,-0.0019 0,-0.0019 -0.223868,-0.395016 -0.41654,-0.783987 -0.581309,-1.166262 -0.143224,-0.332289 -0.256634,-0.658097 -0.360812,-0.982211 -0.01741,-0.05366 -0.04188,-0.108727 -0.05831,-0.162183 -0.111491,-0.36654 -0.200239,-0.72793 -0.269699,-1.086083 -0.0704,-0.362961 -0.121603,-0.7224 -0.156716,-1.078792 -0.03168,-0.321485 -0.05227,-0.640948 -0.06013,-0.958522 -1.97e-4,-0.0079 1.83e-4,-0.01576 0,-0.02369 -0.02926,-1.260802 0.09772,-2.499144 0.231429,-3.75573 0.0063,-0.05982 0.01007,-0.118667 0.0164,-0.178584 0.269257,-0.0767 0.530873,-0.13357 0.798161,-0.205918 0.112217,-0.03038 0.223578,-0.05657 0.335301,-0.08565 0.327676,-0.08978 0.656631,-0.184679 0.976744,-0.253297 0.19185,-0.04113 0.379352,-0.06895 0.568553,-0.102048 0.231797,-0.04056 0.461029,-0.07389 0.688825,-0.102048 0.274045,-0.03109 0.546982,-0.05917 0.812738,-0.06378 z m 42.100251,3.008593 c 2.55515,0.584035 7.00983,4.964646 4.96572,9.198894 -2.48214,-1.168069 -4.96572,-9.198894 -4.96572,-9.198894 z m -47.217227,2.150296 c 0.01629,0.313412 0.05146,0.632322 0.09112,0.951232 -2.62747,1.54589 -6.567994,4.451252 -7.50599,7.812136 -0.597925,2.142386 -0.535019,3.458327 -0.315256,4.271435 -0.06048,-0.09204 -0.119781,-0.206542 -0.180406,-0.342589 v -0.0019 c -0.09745,-0.218995 -0.185176,-0.506825 -0.244186,-0.860118 -0.02341,-0.14321 -0.04115,-0.29633 -0.05285,-0.464683 -0.0044,-0.06117 -0.0084,-0.122995 -0.01094,-0.187695 -0.01789,-0.481818 0.02011,-1.065234 0.138494,-1.760328 0.01531,-0.08985 0.03101,-0.181361 0.0492,-0.275165 0.07109,-0.366748 0.157179,-0.753386 0.276987,-1.182663 0.151549,-0.543004 0.389706,-1.072099 0.681535,-1.589032 v -0.0019 c 1.565176,-2.773137 4.863788,-5.097108 7.072288,-6.368886 z m 10.068124,5.437698 3.04686,8.267706 c -0.332942,0.108694 -0.560239,0.156403 -0.799983,0.213208 l -2.645957,-7.327408 0.01094,-0.02916 c 0.155383,-0.374947 0.274955,-0.749528 0.388147,-1.124349 z m -4.318815,1.740282 c 0.217508,0.01063 0.434352,0.02704 0.6542,0.02187 0.745749,2.471866 1.624283,4.938403 2.706093,7.334697 -0.219229,0.03154 -0.443311,0.06299 -0.666957,0.09294 -1.07683,-2.413546 -1.950077,-4.923568 -2.693336,-7.4495 z M 73.252895,99.099455 c -0.746405,0.341681 -1.500654,1.546835 -2.09745,1.942555 0.179943,0.54723 -0.537877,0.25875 -0.369924,0.83461 3.983371,8.08271 7.620747,10.65622 2.930234,-0.49566 -0.228902,-1.10385 -0.469398,-2.017889 -0.46286,-2.281505 z m -2.638669,2.817255 c -0.08843,0.0693 -0.180964,0.13699 -0.262409,0.20773 0.712777,1.15101 0.580072,0.76246 0.262409,-0.20773 z m 5.690996,24.25461 c 2.480163,1.56989 5.984558,2.48443 9.73829,2.39448 0.612405,-0.0146 1.232295,-0.0583 1.855086,-0.1312 -2.543584,3.73495 -4.511921,9.53401 -5.803977,15.49306 -1.512128,6.97405 -2.069144,14.08381 -1.082437,18.35952 0.199473,0.86439 0.07718,1.37466 -0.171295,1.72025 -0.248474,0.34556 -0.699518,0.60211 -1.408626,0.71068 -1.418218,0.21715 -3.711063,-0.27896 -5.960694,-1.48699 -2.249631,-1.20801 -4.47031,-3.09684 -5.929715,-5.51241 -1.330227,-2.20174 -2.033936,-4.83103 -1.612722,-7.87409 0.153338,0.0525 0.306819,0.10817 0.461038,0.15125 1.937076,0.54118 4.027693,0.19881 5.556146,-1.53619 2.501808,-2.83988 4.667212,-17.3076 4.358906,-22.28836 z"
     id="path1293"
     inkscape:connector-curvature="0" />
  <path
     d=""
     sodipodi:nodetypes="cc"
     id="path8421"
     style="fill:none;fill-opacity:1;stroke:url(#linearGradient10783);stroke-width:10.1666;stroke-linecap:round;stroke-linejoin:miter;stroke-miterlimit:4;stroke-dasharray:none;stroke-dashoffset:1.96;stroke-opacity:1"
     inkscape:connector-curvature="0" />
  <path
     inkscape:connector-curvature="0"
     id="path5984"
     d="m 141.43961,57.797085 c 1.65985,3.983635 3.65167,0.885252 3.65167,0.885252 -1.88117,0.221313 -2.98773,0 -3.65167,-0.885252 z"
     style="fill:#333333;stroke-width:0.13492213" />
  <path
     style="color:#000000;fill:#565248;stroke:#000000;stroke-width:1.61906612;stroke-miterlimit:100"
     clip-path="url(#clipPath6069)"
     d="M 84.109375 59.839844 C 84.17269 61.193048 84.268313 62.435323 84.392578 63.59375 L 84.197266 59.898438 C 84.166967 59.880409 84.13898 59.858925 84.109375 59.839844 z M 84.392578 63.59375 L 86.070312 95.388672 C 91.578489 94.401732 95.531802 93.307699 96.181641 91.105469 C 96.319016 90.639918 96.224205 89.703612 95.980469 88.484375 C 95.980251 88.483839 95.980686 88.482958 95.980469 88.482422 C 95.851529 88.164424 95.710679 87.839944 95.556641 87.507812 C 91.273399 78.272464 85.849646 77.176819 84.392578 63.59375 z "
     id="path6059" />
</svg>
