<?xml version="1.0" encoding="UTF-8" standalone="no"?>
<!-- Created with Inkscape (http://www.inkscape.org/) -->

<svg
   xmlns:dc="http://purl.org/dc/elements/1.1/"
   xmlns:cc="http://creativecommons.org/ns#"
   xmlns:rdf="http://www.w3.org/1999/02/22-rdf-syntax-ns#"
   xmlns:svg="http://www.w3.org/2000/svg"
   xmlns="http://www.w3.org/2000/svg"
   xmlns:sodipodi="http://sodipodi.sourceforge.net/DTD/sodipodi-0.dtd"
   xmlns:inkscape="http://www.inkscape.org/namespaces/inkscape"
   width="215.4014"
   height="211.4975"
   id="svg2"
   sodipodi:version="0.32"
   inkscape:version="0.92+devel (17f8b1805e, 2018-12-05)"
   sodipodi:docname="school.svg"
   inkscape:output_extension="org.inkscape.output.svg.inkscape"
   version="1.1">
  <defs
     id="defs4" />
  <sodipodi:namedview
     id="base"
     pagecolor="#ffffff"
     bordercolor="#666666"
     borderopacity="1.0"
     gridtolerance="10000"
     guidetolerance="10"
     objecttolerance="10"
     inkscape:pageopacity="0.0"
     inkscape:pageshadow="2"
     inkscape:zoom="1.8936284"
     inkscape:cx="114.82409"
     inkscape:cy="61.586876"
     inkscape:document-units="px"
     inkscape:current-layer="layer1"
     showgrid="false"
     inkscape:window-width="1920"
     inkscape:window-height="1016"
     inkscape:window-x="0"
     inkscape:window-y="27"
     fit-margin-top="0"
     fit-margin-left="0"
     fit-margin-right="0"
     fit-margin-bottom="0"
     inkscape:window-maximized="1"
     inkscape:document-rotation="0" />
  <metadata
     id="metadata7">
    <rdf:RDF>
      <cc:Work
         rdf:about="">
        <dc:format>image/svg+xml</dc:format>
        <dc:type
           rdf:resource="http://purl.org/dc/dcmitype/StillImage" />
        <dc:title />
      </cc:Work>
    </rdf:RDF>
  </metadata>
  <g
     inkscape:label="Layer 1"
     inkscape:groupmode="layer"
     id="layer1"
     transform="translate(1786.0884,-1312.8415)">
    <path
       inkscape:connector-curvature="0"
       style="opacity:1;fill:#333333;fill-opacity:1;fill-rule:evenodd;stroke:none;stroke-width:0.360517;stop-opacity:1"
       d="m -1765.9063,1340.773 2.755,102.3575 0.2997,0.055 c 32.4376,4.6381 59.308,20.5541 83.0713,40.0266 l -0.06,-99.652 c -33.9685,-28.86 -60.3027,-36.0358 -86.0662,-42.7872 z m 175.0372,0 c -25.7635,6.7514 -52.1276,13.9272 -86.0963,42.7872 l -0.06,99.5969 c 21.0232,-16.3358 47.1222,-33.9163 82.5624,-39.8886 l 0.8085,-0.1933 z m -172.1922,106.305 0.2396,8.8057 c 35.4947,6.0155 61.4733,17.8402 83.0414,33.1807 v -2.2359 c -15.699,-10.8513 -36.3197,-32.7654 -82.9504,-39.668 z m 169.2874,0.083 -0.2398,0.027 c -46.58,6.8951 -67.3186,28.7493 -83.0114,39.6124 v 2.2359 c 21.5637,-15.3267 47.5306,-27.1438 83.0114,-33.1529 z m -0.2997,12.753 c -44.8326,6.1368 -61.4311,20.0242 -83.6703,32.3525 v -0.055 l -0.8684,0.4969 -1.168,-0.7729 v -0.028 c -21.8947,-12.2268 -38.6048,-25.884 -82.9215,-31.9659 l 0.1796,7.0942 c 29.9802,4.4101 57.3111,12.1721 81.1549,27.2734 v 0.055 l 2.9348,2.0705 2.755,-1.9599 c 23.9029,-15.2042 51.3408,-23.0137 81.4243,-27.439 z"
       id="path3260"
       sodipodi:nodetypes="cccccccccccccccccccccccccccccccccccccc" />
  </g>
</svg>
