<?xml version="1.0" encoding="UTF-8" standalone="no"?>
<svg xmlns:dc="http://purl.org/dc/elements/1.1/" xmlns:cc="http://creativecommons.org/ns#" xmlns:rdf="http://www.w3.org/1999/02/22-rdf-syntax-ns#" xmlns:svg="http://www.w3.org/2000/svg" xmlns="http://www.w3.org/2000/svg" id="svg8" version="1.1" viewBox="0 0 59.999999 59.999999" height="60" width="60">
  <defs id="defs2"/>
  <metadata id="metadata5">
    <rdf:RDF>
      <cc:Work rdf:about="">
        <dc:format>image/svg+xml</dc:format>
        <dc:type rdf:resource="http://purl.org/dc/dcmitype/StillImage"/>
        <dc:title/>
      </cc:Work>
    </rdf:RDF>
  </metadata>
  <g label="nick_{{ nick }}">
    <path id="back" d="m 29.556948,4.2972596 c -1.610643,-0.00322 -3.206389,0.5817198 -4.36222,1.7647408 L 5.9664052,25.738862 c -6.49696707,8.045713 4.4207108,7.111114 9.1012838,9.428496 1.678989,1.716213 -6.4345975,2.982818 -4.755609,4.700462 1.678988,1.716204 10.152935,3.305956 11.834794,5.022158 1.678989,1.716223 -3.436387,3.537569 -1.757388,5.253782 1.67898,1.716213 5.561589,0.08961 6.288728,4.051551 0.518137,2.831237 6.99844,1.21584 10.167482,-1.102963 1.678998,-1.717653 -3.212098,-1.555911 -1.533119,-3.272124 4.175302,-4.26976 8.062499,-1.550798 9.490998,-5.829161 0.705661,-2.11414 -6.147022,-3.259988 -4.465163,-4.976201 4.830854,-2.821233 21.527655,-4.65668 13.60505,-12.579294 L 34.012919,6.0620004 C 32.794109,4.8918597 31.167591,4.3004797 29.556948,4.2972596 Z m 8.972605,15.5646484 c 0.727155,0 1.411184,0.09693 2.051512,0.292284 0.645759,0.189927 1.251859,0.4787 1.816212,0.863988 v 1.73349 c -0.553505,-0.515518 -1.1463,-0.901227 -1.775771,-1.156273 -0.62405,-0.255045 -1.287236,-0.38236 -1.992686,-0.38236 -1.389185,0 -2.45323,0.425635 -3.19124,1.277599 -0.738004,0.846536 -1.106641,2.07397 -1.106641,3.680221 0,1.600822 0.368637,2.826424 1.106641,3.678382 0.73801,0.846542 1.802055,1.270245 3.19124,1.270245 0.70545,0 1.368636,-0.127309 1.992686,-0.382361 0.629471,-0.255045 1.222266,-0.640755 1.775771,-1.156272 v 1.716945 c -0.575209,0.390709 -1.187003,0.685178 -1.832757,0.880533 -0.640333,0.195354 -1.318668,0.292285 -2.034967,0.292285 -1.839592,0 -3.287508,-0.562404 -4.345675,-1.685696 -1.058172,-1.128712 -1.586428,-2.665945 -1.586428,-4.614061 0,-1.953552 0.528256,-3.492617 1.586428,-4.615901 1.058167,-1.128719 2.506083,-1.693048 4.345675,-1.693048 z M 17.602666,20.0825 h 1.645253 v 12.152815 h -1.645253 z m 4.917377,0 h 3.711471 c 1.389191,0 2.424777,0.288866 3.108518,0.869503 0.68374,0.580635 1.025756,1.45844 1.025756,2.630567 0,0.765141 -0.178626,1.399787 -0.536776,1.904449 -0.352723,0.504669 -0.867667,0.8543 -1.545987,1.049653 0.352729,0.119382 0.694744,0.374012 1.025756,0.764721 0.336446,0.390716 0.672766,0.928424 1.009212,1.612165 l 1.667312,3.321757 h -1.764741 l -1.555178,-3.117709 c -0.401564,-0.813977 -0.792957,-1.353617 -1.172817,-1.619517 -0.374427,-0.265895 -0.887452,-0.398905 -1.538634,-0.398905 h -1.790477 v 5.136131 h -1.643415 z m 1.643415,1.35113 v 4.314424 h 2.068056 c 0.792273,0 1.388913,-0.18239 1.790477,-0.545967 0.406985,-0.368999 0.610306,-0.908639 0.610306,-1.619517 0,-0.710873 -0.203321,-1.246662 -0.610306,-1.604812 -0.401564,-0.363577 -0.998204,-0.544128 -1.790477,-0.544128 z m 26.649427,20.206285 c -1.563767,0.05385 -3.104367,0.853222 -3.529482,2.351148 0,0.976189 7.19132,1.616673 7.19132,-0.229783 -0.512429,-1.482895 -2.09807,-2.175222 -3.661838,-2.121365 z m -33.27272,4.235378 c -2.17964,0.115782 -4.518019,1.692437 -2.658141,3.303374 1.703328,1.472876 4.334579,-0.367414 5.123263,-2.422843 -0.515742,-0.685266 -1.474378,-0.93316 -2.465122,-0.880531 z m 28.840647,0.121326 c -2.195714,1.969564 0.245743,3.967392 2.409975,2.694906 0.482372,-0.489534 -0.01255,-2.205372 -2.409975,-2.694906 z" style="opacity: 1; stroke-width: 0.15208; stop-opacity: 1; fill:{{ colour }};"/>
  </g>
</svg>
