<?xml version="1.0" encoding="UTF-8" standalone="no"?>
<!-- Created with Inkscape (http://www.inkscape.org/) -->

<svg
   xmlns:dc="http://purl.org/dc/elements/1.1/"
   xmlns:cc="http://creativecommons.org/ns#"
   xmlns:rdf="http://www.w3.org/1999/02/22-rdf-syntax-ns#"
   xmlns:svg="http://www.w3.org/2000/svg"
   xmlns="http://www.w3.org/2000/svg"
   xmlns:xlink="http://www.w3.org/1999/xlink"
   xmlns:sodipodi="http://sodipodi.sourceforge.net/DTD/sodipodi-0.dtd"
   xmlns:inkscape="http://www.inkscape.org/namespaces/inkscape"
   id="svg2"
   version="1.1"
   inkscape:version="0.91 r13725"
   width="400"
   height="400"
   viewBox="0 0 400 400"
   sodipodi:docname="removed.svg">
  <metadata
     id="metadata8">
    <rdf:RDF>
      <cc:Work
         rdf:about="">
        <dc:format>image/svg+xml</dc:format>
        <dc:type
           rdf:resource="http://purl.org/dc/dcmitype/StillImage" />
        <dc:title></dc:title>
      </cc:Work>
    </rdf:RDF>
  </metadata>
  <defs
     id="defs6">
    <linearGradient
       id="linearGradient840-8"
       inkscape:collect="always">
      <stop
         id="stop836"
         offset="0"
         style="stop-color:#ce5c00;stop-opacity:1" />
      <stop
         style="stop-color:#f57900;stop-opacity:1"
         offset="0.21333329"
         id="stop844" />
      <stop
         id="stop17127"
         offset="0.33833328"
         style="stop-color:#ffffff;stop-opacity:1" />
      <stop
         id="stop17033"
         offset="0.66166663"
         style="stop-color:#ffffff;stop-opacity:1" />
      <stop
         id="stop854"
         offset="0.78666663"
         style="stop-color:#f57900;stop-opacity:1" />
      <stop
         id="stop838"
         offset="1"
         style="stop-color:#ce5c00;stop-opacity:1" />
    </linearGradient>
    <linearGradient
       inkscape:collect="always"
       xlink:href="#linearGradient840-8"
       id="linearGradient842"
       gradientUnits="userSpaceOnUse"
       gradientTransform="matrix(1.4452629,0,0,1.4452629,-1027.2053,-879.45907)"
       x1="350"
       y1="908.36218"
       x2="646"
       y2="612.36218" />
    <linearGradient
       inkscape:collect="always"
       xlink:href="#linearGradient840-8"
       id="linearGradient844"
       gradientUnits="userSpaceOnUse"
       gradientTransform="matrix(1.4479837,0,0,1.4479837,-990.22894,-881.12519)"
       x1="350"
       y1="612.36218"
       x2="646"
       y2="908.36218" />
  </defs>
  <sodipodi:namedview
     pagecolor="#ffffff"
     bordercolor="#666666"
     borderopacity="1"
     objecttolerance="10"
     gridtolerance="10"
     guidetolerance="10"
     inkscape:pageopacity="0"
     inkscape:pageshadow="2"
     inkscape:window-width="1855"
     inkscape:window-height="1056"
     id="namedview4"
     showgrid="false"
     fit-margin-top="0"
     fit-margin-left="0"
     fit-margin-right="0"
     fit-margin-bottom="0"
     inkscape:zoom="1"
     inkscape:cx="-245.5"
     inkscape:cy="47.707772"
     inkscape:window-x="65"
     inkscape:window-y="24"
     inkscape:window-maximized="1"
     inkscape:current-layer="svg2"
     inkscape:object-paths="true"
     inkscape:snap-global="true"
     showguides="true"
     inkscape:guide-bbox="true" />
  <g
     id="g4158"
     transform="translate(488,3.3378601e-6)">
    <rect
       style="color:#000000;clip-rule:nonzero;display:inline;overflow:visible;visibility:visible;opacity:1;isolation:auto;mix-blend-mode:normal;color-interpolation:sRGB;color-interpolation-filters:linearRGB;solid-color:#000000;solid-opacity:1;fill:#ffffff;fill-opacity:1;fill-rule:nonzero;stroke:#ce5c00;stroke-width:4;stroke-linecap:butt;stroke-linejoin:miter;stroke-miterlimit:4;stroke-dasharray:none;stroke-dashoffset:0;stroke-opacity:1;marker:none;paint-order:normal;color-rendering:auto;image-rendering:auto;shape-rendering:auto;text-rendering:auto;enable-background:accumulate"
       id="rect834"
       width="392.33716"
       height="392.33716"
       x="-484.16858"
       y="3.8314176" />
    <path
       sodipodi:nodetypes="cc"
       inkscape:connector-curvature="0"
       id="path836"
       d="M -484.16858,396.16858 -93.56538,5.5653772"
       style="color:#000000;display:inline;overflow:visible;visibility:visible;fill:none;fill-rule:evenodd;stroke:url(#linearGradient842);stroke-width:2.85198569;stroke-linecap:butt;stroke-linejoin:miter;stroke-miterlimit:4;stroke-dasharray:none;stroke-dashoffset:0;stroke-opacity:1;marker:none;marker-start:none;marker-mid:none;marker-end:none;enable-background:accumulate" />
    <path
       sodipodi:nodetypes="cc"
       inkscape:connector-curvature="0"
       id="path838"
       d="M -483.43462,5.5653772 -91.831421,396.16858"
       style="color:#000000;display:inline;overflow:visible;visibility:visible;fill:none;fill-rule:evenodd;stroke:url(#linearGradient844);stroke-width:2.85735464;stroke-linecap:butt;stroke-linejoin:miter;stroke-miterlimit:4;stroke-dasharray:none;stroke-dashoffset:0;stroke-opacity:1;marker:none;marker-start:none;marker-mid:none;marker-end:none;enable-background:accumulate" />
    <path
       style="color:#000000;display:inline;overflow:visible;visibility:visible;fill:#fcd73e;fill-opacity:1;fill-rule:evenodd;stroke:#f57900;stroke-width:4;stroke-linecap:butt;stroke-linejoin:miter;stroke-miterlimit:4;stroke-dasharray:none;stroke-dashoffset:0;stroke-opacity:1;marker:none;marker-start:none;marker-mid:none;marker-end:none;enable-background:accumulate"
       d="m -288.00001,52.258344 a 17.061064,17.061064 0 0 0 -17.06109,17.061037 17.061064,17.061064 0 0 0 9.5191,15.282029 l -29.07007,58.90289 -65.00088,9.44504 a 17.061064,17.061064 0 0 0 -16.86667,-14.61002 17.061064,17.061064 0 0 0 -17.06106,17.06108 17.061064,17.061064 0 0 0 17.06106,17.06105 17.061064,17.061064 0 0 0 12.20524,-5.16496 l 47.03455,45.8479 -11.10374,64.73801 a 17.061064,17.061064 0 0 0 -2.88054,-0.26288 17.061064,17.061064 0 0 0 -17.06106,17.06104 17.061064,17.061064 0 0 0 17.06106,17.06109 17.061064,17.061064 0 0 0 17.06105,-17.06109 17.061064,17.061064 0 0 0 -1.9697,-7.93442 l 58.13275,-30.56032 58.13275,30.56032 a 17.061064,17.061064 0 0 0 -1.9697,7.93442 17.061064,17.061064 0 0 0 17.06105,17.06109 17.061064,17.061064 0 0 0 17.06106,-17.06109 17.061064,17.061064 0 0 0 -17.06106,-17.06104 17.061064,17.061064 0 0 0 -2.88423,0.24619 l -11.10005,-64.72132 47.02344,-45.8368 a 17.061064,17.061064 0 0 0 12.21633,5.15386 17.061064,17.061064 0 0 0 17.06109,-17.06105 17.061064,17.061064 0 0 0 -17.06109,-17.06108 17.061064,17.061064 0 0 0 -16.86297,14.61002 l -65.00456,-9.44504 -29.06455,-58.89363 a 17.061064,17.061064 0 0 0 9.51358,-15.291289 17.061064,17.061064 0 0 0 -17.06109,-17.061037 z"
       id="path840"
       inkscape:connector-curvature="0" />
  </g>
</svg>
