<?xml version="1.0" encoding="UTF-8" standalone="no"?>
<!-- Created with Inkscape (http://www.inkscape.org/) -->

<svg
   xmlns:dc="http://purl.org/dc/elements/1.1/"
   xmlns:cc="http://creativecommons.org/ns#"
   xmlns:rdf="http://www.w3.org/1999/02/22-rdf-syntax-ns#"
   xmlns:svg="http://www.w3.org/2000/svg"
   xmlns="http://www.w3.org/2000/svg"
   xmlns:sodipodi="http://sodipodi.sourceforge.net/DTD/sodipodi-0.dtd"
   xmlns:inkscape="http://www.inkscape.org/namespaces/inkscape"
   id="svg2"
   sodipodi:version="0.32"
   inkscape:version="0.92.4 (unknown)"
   width="73.859528"
   height="73.859528"
   version="1.0"
   sodipodi:docname="contest.svg"
   sodipodi:modified="true">
  <metadata
     id="metadata7">
    <rdf:RDF>
      <cc:Work
         rdf:about="">
        <dc:format>image/svg+xml</dc:format>
        <dc:type
           rdf:resource="http://purl.org/dc/dcmitype/StillImage" />
        <dc:title />
      </cc:Work>
    </rdf:RDF>
  </metadata>
  <defs
     id="defs5" />
  <sodipodi:namedview
     inkscape:window-height="1056"
     inkscape:window-width="1855"
     inkscape:pageshadow="2"
     inkscape:pageopacity="0.0"
     guidetolerance="10.0"
     gridtolerance="10.0"
     objecttolerance="10.0"
     borderopacity="1.0"
     bordercolor="#666666"
     pagecolor="#ffffff"
     id="base"
     width="70px"
     height="92px"
     inkscape:zoom="1"
     inkscape:cx="104.70717"
     inkscape:cy="29.204201"
     inkscape:window-x="65"
     inkscape:window-y="24"
     inkscape:current-layer="svg2"
     showgrid="false"
     fit-margin-top="0"
     fit-margin-left="0"
     fit-margin-right="0"
     fit-margin-bottom="0"
     inkscape:window-maximized="1" />
  <circle
     style="color:#000000;clip-rule:nonzero;display:inline;overflow:visible;visibility:visible;opacity:1;isolation:auto;mix-blend-mode:normal;color-interpolation:sRGB;color-interpolation-filters:linearRGB;solid-color:#000000;solid-opacity:1;fill:#ffffff;fill-opacity:1;fill-rule:nonzero;stroke:#4e9a06;stroke-width:3.77952766;stroke-linecap:butt;stroke-linejoin:miter;stroke-miterlimit:4;stroke-dasharray:none;stroke-dashoffset:0;stroke-opacity:1;marker:none;color-rendering:auto;image-rendering:auto;shape-rendering:auto;text-rendering:auto;enable-background:accumulate"
     id="path4195"
     cx="36.929764"
     cy="36.929764"
     r="35.040001" />
  <circle
     r="20.440231"
     cy="36.983761"
     cx="36.76955"
     id="circle4149"
     style="color:#000000;clip-rule:nonzero;display:inline;overflow:visible;visibility:visible;opacity:1;isolation:auto;mix-blend-mode:normal;color-interpolation:sRGB;color-interpolation-filters:linearRGB;solid-color:#000000;solid-opacity:1;fill:#ffffff;fill-opacity:1;fill-rule:nonzero;stroke:#808080;stroke-width:1.78704524;stroke-linecap:round;stroke-linejoin:round;stroke-miterlimit:4;stroke-dasharray:none;stroke-dashoffset:0;stroke-opacity:1;marker:none;color-rendering:auto;image-rendering:auto;shape-rendering:auto;text-rendering:auto;enable-background:accumulate" />
  <path
     id="path5133"
     d="m 21.078153,16.245507 c 2.085345,-1.794982 4.46106,-5.728104 4.46106,-5.728104 0,0 -0.765509,0.05279 -1.794983,0.659919 -1.240649,0.712714 -2.824459,2.085348 -2.824459,2.085348 l 0.158382,-1.662998 c 0,0 -1.267045,1.082268 -2.05895,2.454901 -0.8183,1.425427 -1.161461,3.220409 -1.161461,3.220409 0,0 1.478222,0.50154 3.220411,-1.029475 z m -3.959518,5.35855 c 1.187856,-1.135062 2.032552,-2.771664 2.032552,-2.771664 0,0 -0.712712,0.395952 -1.399029,0.50154 -0.475144,0.105587 -0.976683,-0.07919 -0.976683,-0.07919 0,0 -0.263967,-0.607126 -0.211173,-1.583808 0.05279,-1.161459 0.448745,-2.771663 0.448745,-2.771663 0,0 -1.399032,1.610204 -2.006156,3.563567 -0.184778,0.527936 -0.316761,1.108666 -0.395954,1.636602 -0.369556,1.874172 -0.290362,3.431584 -0.290362,3.431584 0,0 1.55741,-0.739111 2.79806,-1.926967 z m -2.217332,6.044866 c 0.976682,-1.135062 1.557411,-2.850854 1.557411,-2.850854 0,0 -0.8183,0.475143 -1.636601,0.686318 -0.633522,0.15838 -1.346238,0.05279 -1.346238,0.05279 0,0 -0.237571,-0.712714 -0.316761,-1.715792 -0.158379,-1.794982 -0.07919,-4.619439 -0.07919,-4.619439 0,0 -1.451822,2.79806 -1.504616,5.332152 -0.05279,2.349315 1.135061,4.69863 1.135061,4.69863 0,0 1.267045,-0.475142 2.190934,-1.583808 z m -2.745267,7.100739 c 0,0 1.399029,-1.135063 2.164539,-2.454902 0.712711,-1.214253 0.765506,-2.639681 0.765506,-2.639681 0,0 -0.686317,0.395953 -1.399029,0.686318 -0.659922,0.263967 -1.372633,0.448745 -1.372633,0.448745 0,0 -0.791905,-0.897491 -1.267049,-2.111744 -0.739111,-1.847776 -1.2670451,-4.249884 -1.2670451,-4.249884 0,0 -0.791905,3.220409 -0.184778,5.780899 0.6071271,2.560488 2.5604891,4.540249 2.5604891,4.540249 z m 0.395951,6.229642 c 0,0 0.950287,-1.055873 1.478222,-2.4549 0.554333,-1.451825 0.659921,-3.194013 0.659921,-3.194013 l -2.217333,2.13814 c 0,0 -1.214251,-0.871094 -2.243727,-2.296521 -1.3990291,-2.006156 -2.7452671,-4.77782 -2.7452671,-4.77782 0,0 -0.184778,4.329074 1.082267,6.995151 1.267049,2.639678 3.9859171,3.589963 3.9859171,3.589963 z m 1.451826,5.780898 c 0,0 0.844695,-1.055872 1.135062,-2.454902 0.316761,-1.74219 0.105584,-3.827537 0.105584,-3.827537 0,0 -0.395951,0.897493 -0.897489,1.663002 -0.42235,0.686317 -0.950284,1.319838 -0.950284,1.319838 0,0 -1.399029,-0.633521 -2.771662,-1.979759 -1.9269671,-1.926966 -4.0651101,-5.120978 -4.0651101,-5.120978 0,0 0.184778,4.725026 2.006156,7.232725 1.8741731,2.534087 5.4377431,3.167611 5.4377431,3.167611 z m 3.009234,5.516927 c 0,0 0.501539,-1.478218 0.501539,-3.11482 -0.0264,-1.821379 -0.580728,-3.801139 -0.580728,-3.801139 l -1.768588,3.642759 c 0,0 -1.662996,0.05279 -3.325995,-0.897493 -2.0325551,-1.187854 -4.1442961,-3.325992 -4.1442961,-3.325992 0,0 1.372631,4.117897 3.7747411,6.018467 2.243727,1.821378 5.543327,1.478218 5.543327,1.478218 z m 3.589963,4.751426 c 0,0 0.26397,-1.636602 0.0264,-3.194012 -0.263966,-1.768583 -1.003078,-3.405188 -1.003078,-3.405188 0,0 -0.158382,1.214253 -0.501538,2.296519 -0.263968,0.897493 -0.739111,1.663001 -0.739111,1.663001 0,0 -0.950284,0.131985 -2.164538,0.02639 -1.71579,-0.158373 -3.906724,-0.580725 -3.906724,-0.580725 0,0 1.187856,1.715794 3.299596,2.560491 2.032555,0.765501 4.988995,0.633521 4.988995,0.633521 z m 1.689398,-2.903648 -0.290367,4.223486 c 0,0 -0.897493,0.369556 -2.085348,0.422348 -1.557411,0.0528 -3.537168,-0.184776 -3.537168,-0.184776 0,0 1.71579,1.610206 3.774739,2.08535 2.111745,0.501537 4.540251,-0.02638 4.540251,-0.02638 0,0 0.237571,-1.478222 -0.290367,-2.877252 -0.633522,-1.689394 -2.11174,-3.642757 -2.11174,-3.642757 z m 15.128668,8.684549 c -1.293444,-0.765509 -3.962827,-1.240651 -3.962827,-1.240651 0,0 -1.979761,-0.343161 -3.853933,-0.923889 -1.821378,-0.580729 -3.537168,-1.372634 -3.537168,-1.372634 0,0 0.395951,1.029477 0.184778,1.74219 -0.184778,0.580727 -0.950284,0.897491 -0.950284,0.897491 l 1.689394,0.554332 c 0,0 4.27628,0.158384 6.757579,0.580733 2.217329,0.395949 3.408493,1.055869 3.408493,1.055869 0,0 -0.263966,0.316765 -1.214254,0.501541 -1.372633,0.211176 -4.121205,0.184776 -4.121205,0.184776 l 1.478218,1.478222 c 0,0 2.299831,0.211173 3.698859,-0.263968 1.267049,-0.369557 3.038939,-1.39903 3.038939,-1.39903 0,0 -1.349545,-1.082269 -2.616589,-1.794982 z m 15.039876,-46.537552 c 1.742186,1.531014 3.246807,1.029475 3.246807,1.029475 0,0 -0.369556,-1.768585 -1.187857,-3.220409 -0.791901,-1.39903 -2.05895,-2.454902 -2.05895,-2.454902 l 0.15838,1.636602 c 0,0 -1.55741,-1.31984 -2.824452,-2.05895 -1.029481,-0.607127 -1.794986,-0.65992 -1.794986,-0.65992 0,0 2.375711,3.933122 4.461058,5.728104 z m 3.95952,5.35855 c 1.24065,1.187856 2.824456,1.926966 2.824456,1.926966 0,0 0.07919,-1.557411 -0.316761,-3.405187 -0.07919,-0.554332 -0.211172,-1.135062 -0.395952,-1.662998 -0.607129,-1.953363 -2.006155,-3.563568 -2.006155,-3.563568 0,0 0.369556,1.610205 0.422345,2.771665 0.0528,0.976681 -0.211172,1.583807 -0.211172,1.583807 0,0 -0.501541,0.158381 -0.976682,0.07919 -0.65992,-0.105587 -1.399029,-0.501539 -1.399029,-0.501539 0,0 0.844697,1.610205 2.032554,2.771664 z m 0.659921,3.167615 c 0,0 0.607125,1.715792 1.531014,2.850854 0.923885,1.108666 2.217331,1.583808 2.217331,1.583808 0,0 1.161457,-2.375711 1.108662,-4.69863 -0.05279,-2.534092 -1.504618,-5.332152 -1.504618,-5.332152 0,0 0.07919,2.824457 -0.07918,4.619439 -0.07919,1.003078 -0.290368,1.715792 -0.290368,1.715792 0,0 -0.712713,0.105587 -1.372634,-0.05279 -0.818301,-0.211175 -1.636602,-0.686318 -1.636602,-0.686318 z m 2.771663,5.543328 c -0.712713,-0.290365 -1.399029,-0.686318 -1.399029,-0.686318 0,0 0.07919,1.425428 0.739109,2.639681 0.765508,1.319839 2.164538,2.454902 2.164538,2.454902 0,0 1.979759,-1.979761 2.560488,-4.540249 0.607128,-2.56049 -0.184777,-5.780899 -0.184777,-5.780899 0,0 -0.527936,2.402108 -1.267049,4.249884 -0.475141,1.214253 -1.267042,2.111744 -1.267042,2.111744 0,0 -0.712717,-0.184778 -1.372634,-0.448745 z m 1.21425,7.127134 -2.217327,-2.13814 c 0,0 0.105588,1.742188 0.659917,3.194013 0.527937,1.399027 1.478222,2.4549 1.478222,2.4549 0,0 2.718868,-0.950285 3.985917,-3.589963 1.267046,-2.639679 1.108665,-6.995151 1.108665,-6.995151 0,0 -1.372633,2.771664 -2.771667,4.77782 -1.029473,1.425427 -2.243727,2.296521 -2.243727,2.296521 z m 1.847775,4.038709 c -1.37263,1.346238 -2.77166,1.979759 -2.77166,1.979759 0,0 -0.527937,-0.633521 -0.950285,-1.319841 -0.501541,-0.791902 -0.871097,-1.662995 -0.871097,-1.662995 0,0 -0.237569,2.138142 0.07919,3.827537 0.263969,1.37263 1.108662,2.428502 1.108662,2.428502 0,0 3.563569,-0.607127 5.437739,-3.141219 1.821382,-2.507695 2.032555,-7.23272 2.032555,-7.23272 0,0 -2.164539,3.167615 -4.091502,5.120977 z m -4.54025,7.496689 -1.742186,-3.642759 c 0,0 -0.580729,1.97976 -0.580729,3.801139 -0.02639,1.636602 0.50154,3.11482 0.50154,3.11482 0,0 3.246805,0.369556 5.490535,-1.478218 2.428503,-1.926967 3.801134,-6.018467 3.801134,-6.018467 0,0 -2.11174,2.138138 -4.14429,3.325992 -1.663002,0.950285 -3.352396,0.897493 -3.352396,0.897493 z m -3.220405,5.384946 c 0,0 -0.47514,-0.791904 -0.739109,-1.663001 -0.34316,-1.082266 -0.475147,-2.296519 -0.475147,-2.296519 0,0 -0.765502,1.636605 -1.02947,3.405188 -0.211179,1.504618 0.02639,3.194012 0.02639,3.194012 0,0 2.956435,0.13198 4.98899,-0.659921 2.138142,-0.818297 3.2996,-2.534091 3.2996,-2.534091 0,0 -2.217331,0.422352 -3.933121,0.580725 -1.214254,0.105592 -2.138139,-0.02638 -2.138139,-0.02638 z m -1.531013,4.381866 c -1.187857,-0.05279 -2.085347,-0.422348 -2.085347,-0.422348 l -0.290368,-4.223486 c 0,0 -1.451818,1.953363 -2.111742,3.669153 -0.527937,1.399033 -0.290361,2.850856 -0.290361,2.850856 0,0 2.4285,0.527936 4.540246,0.05279 2.058946,-0.501537 3.774744,-2.085343 3.774744,-2.085343 0,0 -1.979762,0.237565 -3.563572,0.184776 z m -6.335232,2.217335 c -0.211176,-0.712717 0.184777,-1.74219 0.184777,-1.74219 0,0 -1.715791,0.791905 -3.537169,1.372633 -1.874171,0.580729 -3.827537,0.923889 -3.827537,0.923889 0,0 -2.669384,0.475143 -3.989224,1.240648 -1.267045,0.739113 -2.590193,1.821382 -2.590193,1.821382 0,0 1.771893,1.029473 3.012543,1.39903 1.399028,0.448744 3.698858,0.237572 3.698858,0.237572 l 1.478222,-1.478222 c 0,0 -2.748576,0.02639 -4.121208,-0.18478 -0.950288,-0.184776 -1.214254,-0.475141 -1.214254,-0.475141 0,0 1.191164,-0.686313 3.408492,-1.082269 2.481303,-0.422348 6.757584,-0.580729 6.757584,-0.580729 l 1.689394,-0.554332 c 0,0 -0.765508,-0.316762 -0.950285,-0.897491 z"
     style="opacity:1;fill:#808080;fill-opacity:1;stroke-width:0.26396793"
     inkscape:connector-curvature="0"
     sodipodi:nodetypes="ccccccccccccccccccccccccccccccccccscccccccccccccccccccccccccccccccccccccccccccccccccccccccccccccccccccccccccccccccccccccccccccccccccccccsccccccccccccccccccccccccccccccccccccccccccccccccccccccc" />
  <g
     aria-label="OK"
     style="font-size:20.88100433px;line-height:1.25;font-family:sans-serif;text-align:center;letter-spacing:0px;word-spacing:0px;text-anchor:middle;fill:#4e9a06;stroke-width:0.52202511"
     id="text1809">
    <path
       d="m 27.828284,31.996961 q -1.794461,0 -2.783454,1.325454 -0.988993,1.325454 -0.988993,3.731664 0,2.396013 0.988993,3.721468 0.988993,1.325454 2.783454,1.325454 1.804657,0 2.79365,-1.325454 0.988993,-1.325455 0.988993,-3.721468 0,-2.40621 -0.988993,-3.731664 -0.988993,-1.325454 -2.79365,-1.325454 z m 0,-2.844629 q 3.670489,0 5.750433,2.100335 2.079944,2.100335 2.079944,5.801412 0,3.69088 -2.079944,5.791216 -2.079944,2.100335 -5.750433,2.100335 -3.660293,0 -5.750433,-2.100335 -2.079943,-2.100336 -2.079943,-5.791216 0,-3.701077 2.079943,-5.801412 2.09014,-2.100335 5.750433,-2.100335 z"
       style="font-weight:bold;stroke-width:0.52202511"
       id="path1811" />
    <path
       d="m 38.615445,29.427618 h 3.925384 v 5.556713 l 5.65867,-5.556713 h 4.557524 l -7.330782,7.208433 8.085272,8.013901 h -4.914377 l -6.056307,-5.995132 v 5.995132 h -3.925384 z"
       style="font-weight:bold;stroke-width:0.52202511"
       id="path1813" />
  </g>
</svg>
