<?xml version="1.0" encoding="UTF-8" standalone="no"?>
<!-- Created with Inkscape (http://www.inkscape.org/) -->

<svg
   xmlns:dc="http://purl.org/dc/elements/1.1/"
   xmlns:cc="http://creativecommons.org/ns#"
   xmlns:rdf="http://www.w3.org/1999/02/22-rdf-syntax-ns#"
   xmlns:svg="http://www.w3.org/2000/svg"
   xmlns="http://www.w3.org/2000/svg"
   xmlns:xlink="http://www.w3.org/1999/xlink"
   xmlns:sodipodi="http://sodipodi.sourceforge.net/DTD/sodipodi-0.dtd"
   xmlns:inkscape="http://www.inkscape.org/namespaces/inkscape"
   id="svg2"
   viewBox="0 0 190 190"
   version="1.0"
   inkscape:version="0.92+devel (17f8b1805e, 2018-12-05)"
   sodipodi:docname="logo.svg"
   width="190"
   height="190">
  <defs
     id="defs66">
    <clipPath
       id="clipPath4388"
       clipPathUnits="userSpaceOnUse">
      <circle
         r="22.87599"
         cy="94.891731"
         cx="41.754234"
         id="circle4390"
         style="color:#000000;clip-rule:nonzero;display:inline;overflow:visible;visibility:visible;opacity:1;isolation:auto;mix-blend-mode:normal;color-interpolation:sRGB;color-interpolation-filters:linearRGB;solid-color:#000000;solid-opacity:1;fill:#000000;fill-opacity:1;fill-rule:nonzero;stroke:#fbda64;stroke-width:2;stroke-linecap:round;stroke-linejoin:round;stroke-miterlimit:4;stroke-dasharray:none;stroke-dashoffset:0;stroke-opacity:1;marker:none;color-rendering:auto;image-rendering:auto;shape-rendering:auto;text-rendering:auto;enable-background:accumulate" />
    </clipPath>
    <linearGradient
       id="linearGradient11550"
       inkscape:collect="always">
      <stop
         id="stop11552"
         offset="0"
         style="stop-color: rgb(255, 255, 255); stop-opacity: 1;" />
      <stop
         id="stop11554"
         offset="1"
         style="stop-color: rgb(255, 255, 255); stop-opacity: 0;" />
    </linearGradient>
    <linearGradient
       id="linearGradient9212">
      <stop
         id="stop9214"
         offset="0"
         style="stop-color: rgb(233, 185, 110); stop-opacity: 0;" />
      <stop
         id="stop9216"
         offset="1"
         style="stop-color: rgb(234, 186, 111); stop-opacity: 1;" />
    </linearGradient>
    <linearGradient
       id="linearGradient7641"
       inkscape:collect="always">
      <stop
         id="stop7643"
         offset="0"
         style="stop-color: rgb(255, 255, 255); stop-opacity: 1;" />
      <stop
         id="stop7645"
         offset="1"
         style="stop-color: rgb(85, 87, 83); stop-opacity: 1;" />
    </linearGradient>
    <linearGradient
       y2="18.5"
       x2="36.5"
       y1="18.5"
       x1="25.5"
       gradientUnits="userSpaceOnUse"
       id="linearGradient8821"
       xlink:href="#linearGradient11550"
       inkscape:collect="always" />
    <radialGradient
       r="3.9999999"
       fy="9.10744"
       fx="22.305519"
       cy="12.811336"
       cx="23"
       gradientTransform="matrix(1, 0, 0, 0.75, 0, 3.75)"
       gradientUnits="userSpaceOnUse"
       id="radialGradient8823"
       xlink:href="#linearGradient7641"
       inkscape:collect="always" />
    <linearGradient
       y2="17.132355"
       x2="27.907148"
       y1="11.702784"
       x1="21.849625"
       gradientUnits="userSpaceOnUse"
       id="linearGradient8825"
       xlink:href="#linearGradient11550"
       inkscape:collect="always" />
    <linearGradient
       gradientTransform="matrix(10.16656,0,0,10.16656,-682.65836,5.50421)"
       y2="18.5"
       x2="36.5"
       y1="18.5"
       x1="25.5"
       gradientUnits="userSpaceOnUse"
       id="linearGradient10783"
       xlink:href="#linearGradient11550"
       inkscape:collect="always" />
  </defs>
  <sodipodi:namedview
     pagecolor="#ffffff"
     bordercolor="#666666"
     borderopacity="1"
     objecttolerance="10"
     gridtolerance="10"
     guidetolerance="10"
     inkscape:pageopacity="0"
     inkscape:pageshadow="2"
     inkscape:window-width="1920"
     inkscape:window-height="1016"
     id="namedview64"
     showgrid="false"
     fit-margin-top="0"
     fit-margin-left="0"
     fit-margin-right="0"
     fit-margin-bottom="0"
     inkscape:zoom="2.8284272"
     inkscape:cx="52.607171"
     inkscape:cy="90.758412"
     inkscape:window-x="0"
     inkscape:window-y="27"
     inkscape:window-maximized="1"
     inkscape:current-layer="svg2"
     inkscape:document-rotation="0"
     inkscape:snap-global="false" />
  <metadata
     id="metadata61">
    <rdf:RDF>
      <cc:Work>
        <dc:format>image/svg+xml</dc:format>
        <dc:type
           rdf:resource="http://purl.org/dc/dcmitype/StillImage" />
        <cc:license
           rdf:resource="http://creativecommons.org/publicdomain/zero/1.0/" />
        <dc:publisher>
          <cc:Agent
             rdf:about="http://openclipart.org/">
            <dc:title>Openclipart</dc:title>
          </cc:Agent>
        </dc:publisher>
        <dc:title />
        <dc:date>2008-03-15T22:35:33</dc:date>
        <dc:description>Masonic Square and Compasses</dc:description>
        <dc:source>https://openclipart.org/detail/15800/square-and-compasses-by-coder7</dc:source>
        <dc:creator>
          <cc:Agent>
            <dc:title>coder7</dc:title>
          </cc:Agent>
        </dc:creator>
        <dc:subject>
          <rdf:Bag>
            <rdf:li>line art</rdf:li>
            <rdf:li>masonic</rdf:li>
            <rdf:li>outline</rdf:li>
          </rdf:Bag>
        </dc:subject>
      </cc:Work>
      <cc:License
         rdf:about="http://creativecommons.org/publicdomain/zero/1.0/">
        <cc:permits
           rdf:resource="http://creativecommons.org/ns#Reproduction" />
        <cc:permits
           rdf:resource="http://creativecommons.org/ns#Distribution" />
        <cc:permits
           rdf:resource="http://creativecommons.org/ns#DerivativeWorks" />
      </cc:License>
    </rdf:RDF>
  </metadata>
  <circle
     style="fill:#ffffff;stroke-width:0.971621"
     id="path577"
     cx="95"
     cy="95"
     r="93.676712" />
  <path
     inkscape:connector-curvature="0"
     style="fill:none;fill-opacity:1;stroke:url(#linearGradient10783);stroke-width:10.16656017;stroke-linecap:round;stroke-linejoin:miter;stroke-miterlimit:4;stroke-dasharray:none;stroke-dashoffset:1.96000004;stroke-opacity:1"
     id="path8421"
     sodipodi:nodetypes="cc"
     d="" />
  <path
     d="m 94.243528,25.350888 c -4.357769,0 -8.650826,1.578946 -11.745455,4.736728 L 30.456285,83.392469 c -19.704604,19.704621 12.757943,18.061601 24.50491,25.513931 5.431388,3.53677 -17.430444,8.08346 -12.75697,12.75703 4.547288,4.67347 27.410633,8.96958 31.957846,13.5168 4.547198,4.6735 -9.222275,9.59815 -4.675077,14.27172 4.420936,4.67347 15.031594,0.2521 16.926281,10.86225 1.389401,7.83133 19.452935,3.91662 27.536825,-2.77786 5.05249,-4.29459 -8.71646,-4.29408 -4.16926,-8.96764 11.36804,-11.49432 21.47397,-5.17876 25.64223,-15.78889 2.27361,-5.6841 -17.17838,-9.72547 -11.99959,-13.38849 12.37853,-8.71554 57.84961,-13.1364 36.88196,-34.104146 L 106.37143,30.087616 c -3.34727,-3.157782 -7.770134,-4.736728 -12.127902,-4.736728 z m 0.444064,5.069767 c 3.126153,0.01423 6.252378,1.182697 8.526008,3.456263 l 20.58723,20.967233 c 1.89468,1.894707 1.89417,5.810356 0.75739,6.947157 L 114.32747,53.455202 112.30701,65.708891 103.84518,61.159716 90.076717,69.875705 85.530043,51.560533 78.202964,67.47528 59.887806,67.349992 c -3.536761,0 -3.031535,-3.661605 0.631697,-7.324632 7.199814,-7.957611 21.221376,-21.474411 25.642237,-26.147964 2.273651,-2.336741 5.399864,-3.472048 8.526077,-3.456263 z M 69.992639,111.81254 c 1.136863,0 38.904971,5.052 24.379172,8.96766 -5.557725,1.51573 -31.073655,-8.96766 -24.379172,-8.96766 z m 82.213461,14.58753 c -4.37356,0.15782 -8.82751,2.33773 -9.96432,6.37974 0,2.65249 20.58925,4.16823 19.45247,-0.63172 -0.82102,-4.042 -5.11459,-5.90605 -9.48815,-5.74817 z m -90.470481,11.47655 c -5.94855,0.3521 -12.316889,4.66811 -7.280294,8.92322 4.673564,4.04199 11.749033,-0.88316 14.02261,-6.5672 -1.420986,-1.85518 -4.038498,-2.51605 -6.742316,-2.35602 z m 77.979911,0.46149 c -5.81031,5.30501 1.01153,10.86172 6.69555,7.19869 1.51571,-1.01045 -0.1276,-5.93565 -6.69555,-7.19869 z"
     id="use36"
     style="opacity:1;fill:#353535;fill-opacity:1;stroke-width:0.232879;stop-opacity:1"
     inkscape:connector-curvature="0" />
</svg>
