<?xml version="1.0" encoding="UTF-8" standalone="no"?>
<!-- Created with Inkscape (http://www.inkscape.org/) -->

<svg
   xmlns:dc="http://purl.org/dc/elements/1.1/"
   xmlns:cc="http://creativecommons.org/ns#"
   xmlns:rdf="http://www.w3.org/1999/02/22-rdf-syntax-ns#"
   xmlns:svg="http://www.w3.org/2000/svg"
   xmlns="http://www.w3.org/2000/svg"
   xmlns:sodipodi="http://sodipodi.sourceforge.net/DTD/sodipodi-0.dtd"
   xmlns:inkscape="http://www.inkscape.org/namespaces/inkscape"
   width="174.91025"
   height="254.25809"
   viewBox="0 0 174.91025 254.2581"
   id="svg2"
   version="1.1"
   inkscape:version="0.92+devel (c6daf9ab0, 2018-11-14, custom)"
   sodipodi:docname="welcome.svg"
   inkscape:export-filename="/tmp/welcome.png"
   inkscape:export-xdpi="149.89494"
   inkscape:export-ydpi="149.89494">
  <defs
     id="defs4" />
  <sodipodi:namedview
     id="base"
     pagecolor="#ffffff"
     bordercolor="#666666"
     borderopacity="1.0"
     inkscape:pageopacity="0.0"
     inkscape:pageshadow="2"
     inkscape:zoom="1"
     inkscape:cx="330.79371"
     inkscape:cy="99.806092"
     inkscape:document-units="px"
     inkscape:current-layer="layer1"
     showgrid="false"
     units="px"
     inkscape:showpageshadow="false"
     borderlayer="true"
     showguides="true"
     inkscape:window-width="1440"
     inkscape:window-height="837"
     inkscape:window-x="-8"
     inkscape:window-y="-8"
     inkscape:window-maximized="1"
     inkscape:snap-nodes="false"
     inkscape:lockguides="true"
     fit-margin-top="0"
     fit-margin-left="0"
     fit-margin-right="0"
     fit-margin-bottom="0"
     inkscape:pagecheckerboard="true"
     inkscape:document-rotation="0" />
  <metadata
     id="metadata7">
    <rdf:RDF>
      <cc:Work
         rdf:about="">
        <dc:format>image/svg+xml</dc:format>
        <dc:type
           rdf:resource="http://purl.org/dc/dcmitype/StillImage" />
        <dc:title />
      </cc:Work>
    </rdf:RDF>
  </metadata>
  <g
     inkscape:label="Capa 1"
     inkscape:groupmode="layer"
     id="layer1"
     transform="translate(303.33582,-475.53418)"
     style="opacity:1">
    <g
       id="g2426">
      <path
         sodipodi:nodetypes="ccccccccccccccccccccccccccccccccccccccccccc"
         inkscape:connector-curvature="0"
         id="path2410"
         d="M -254.57532,555.58335 -244.06089,565.10564 -233.14574,564.03241 -243.66124,565.24383 C -234.7041,572.11154 -221.7781,576.56192 -209.8685,576.71655 L -216.021,577.30385 -205.23619,577.27872 -212.59152,578.49283 -201.80759,583.30334 -217.19079,581.48067 C -212.02013,584.9377 -204.90285,588.9236 -197.24454,591.50996 L -192.81836,586.20942 -189.38817,584.1132 -192.93906,583.60848 -190.40215,582.09492 -190.55317,572.21746 -195.48255,577.17739 -195.87754,573.86304 -197.56308,556.41283 -203.3924,567.30433 -202.33133,561.042 C -198.9409,554.30152 -203.05733,547.66513 -203.42677,540.97679 L -209.37413,552.02198 -212.96197,541.87028 C -218.387,527.49059 -230.12392,518.78778 -239.68166,507.69771 -251.52261,495.91098 -265.20981,490.34435 -278.13785,483.02724 L -271.02538,483.84243 -296.31373,476.92271 -300.90745,477.57164 -289.88281,483.87344 -285.98192,491.30182 -275.63328,517.61774 -260.69292,517.44276 -274.65187,518.18227 C -270.8106,519.5261 -263.08587,521.03496 -257.95023,522.57041 L -255.01948,524.73325 -258.88443,526.70025 -269.44955,527.43294 C -270.21819,533.40302 -265.3221,540.19768 -260.87571,546.92688 L -247.45885,550.63238 -244.7036,552.12185 -245.49364,554.20053 Z"
         style="fill:#729fcf;stroke:#3465a4;stroke-width:1px;stroke-linecap:butt;stroke-linejoin:miter;stroke-opacity:1" />
      <path
         sodipodi:nodetypes="ccccccccccccccccccc"
         inkscape:connector-curvature="0"
         id="path2412"
         d="M -252.92244,511.02898 -230.79105,536.19635 -230.74462,525.86751 -227.99103,539.07756 -216.41015,551.91293 -215.29231,543.55924 -213.79202,555.3348 -190.1184,594.32692 -171.52428,625.33287 -175.10005,626.3708 -194.65097,593.30359 -205.2784,573.08892 -219.3796,553.06373 -229.93608,554.02906 -220.58282,551.70278 -231.09222,537.83313 -248.1541,539.34699 -232.76936,536.84385 Z"
         style="fill:#eeeeec;stroke:#d3d7cf;stroke-width:1px;stroke-linecap:butt;stroke-linejoin:miter;stroke-opacity:1" />
      <g
         transform="matrix(1.251953,-0.15295567,0.15295567,1.251953,-198.4071,-258.29943)"
         id="g2408">
        <path
           style="opacity:1;stroke-width:0.0753691;stop-opacity:1"
           inkscape:connector-curvature="0"
           d="M -152.80738,568.04498 C -152.42074,567.87616 -151.99264,567.84149 -151.5766,567.81586 -151.02264,567.8038 -150.46717,567.79099 -149.91471,567.83546 -148.748,567.98167 -147.6137,568.3035 -146.48919,568.63588 -143.33349,569.60663 -140.28707,570.89318 -137.26778,572.21968 -133.54982,573.88533 -129.88764,575.6761 -126.285,577.57766 -125.38961,578.0555 -124.48368,578.51752 -123.61618,579.04435 -126.68596,577.65303 -129.77383,576.30242 -132.87301,574.97743 -135.42727,573.8891 -137.99434,572.82866 -140.58854,571.83605 -143.14732,570.87358 -145.72118,569.92393 -148.38472,569.29008 -149.37733,569.07603 -150.39029,568.88007 -151.41079,568.9577 -149.79714,569.84103 -148.15334,570.69873 -146.71831,571.86318 -144.75796,573.40825 -143.10738,575.4613 -142.42453,577.89422 -140.21094,586.06347 -138.06368,594.25081 -136.07695,602.47886 -135.87798,603.3147 -135.67071,604.14979 -135.49736,604.99166 -137.99283,597.21659 -140.324,589.38951 -142.58356,581.54359 -142.91896,580.38969 -143.24229,579.23277 -143.58673,578.08188 -144.21154,576.06049 -145.58551,574.34885 -147.20896,573.02839 -148.43447,572.02522 -149.79563,571.20445 -151.18695,570.45453 -151.7198,570.16135 -152.26774,569.89379 -152.76894,569.54784 -153.03575,569.36243 -153.29577,569.09111 -153.29125,568.74441 -153.29728,568.43615 -153.07796,568.16783 -152.80738,568.04498 Z"
           id="path3590" />
        <path
           style="opacity:1;stroke-width:0.0753691;stop-opacity:1"
           inkscape:connector-curvature="0"
           d="M -133.04485,576.72901 C -133.11871,576.67474 -133.12399,576.60616 -133.06143,576.5225 -127.94839,579.88923 -122.97554,583.46851 -118.16549,587.25581 -116.02651,588.94935 -113.93502,590.70319 -111.90307,592.52336 -109.80555,594.41512 -107.77208,596.38527 -105.92253,598.52273 -105.03619,599.56057 -104.19206,600.63608 -103.45344,601.78471 -102.8015,602.83762 -102.17292,603.9056 -101.47425,604.92911 -99.333011,608.1029 -96.86392,611.03702 -94.629234,614.14298 -92.925892,616.50128 -91.368013,618.97187 -90.086739,621.58568 -87.776676,626.27363 -86.478813,631.46807 -86.398176,636.69718 -86.434353,636.69944 -86.507461,636.70321 -86.543645,636.70547 -87.034291,633.35757 -87.827174,630.0436 -89.057197,626.88714 -90.175674,623.9907 -91.643111,621.23672 -93.3359,618.63724 -96.413966,613.87994 -100.10404,609.54546 -103.06077,604.70677 -103.59363,603.84982 -104.06393,602.95594 -104.59679,602.099 -106.17652,599.648 -108.15119,597.48264 -110.18541,595.40472 -112.30554,593.27554 -114.53119,591.25489 -116.81336,589.30057 -122.01232,584.84626 -127.45925,580.68589 -133.04485,576.72901 Z"
           id="path3592" />
        <path
           style="opacity:1;stroke-width:0.0753691;stop-opacity:1"
           d="M -117.88672,172.31445 C -118.10982,172.47272 -118.33882,172.62281 -118.55664,172.78711 -113.72699,179.75121 -109.0139,186.79535 -104.39453,193.90039 -100.90418,199.2923 -97.46839,204.72075 -94.210938,210.25586 -92.661349,212.90358 -91.148687,215.57373 -89.755859,218.30664 -88.442176,220.91667 -87.262182,223.59014 -86.121094,226.2793 -83.551008,232.36913 -81.24646,238.56703 -78.90625,244.74805 L -78.748047,245.17578 C -78.109678,246.85124 -68.603388,268.83906 -67.949177,270.50848 L -67.511677,271.59637 C -66.803208,273.41803 -66.057769,275.22983 -65.203083,276.98895 -64.859392,277.67105 -64.508123,278.3591 -64.037067,278.96356 -63.698659,279.41578 -63.166011,279.65445 -62.654255,279.85418 -62.217875,280.01547 -61.658152,280.06536 -61.29488,279.71942 -60.9022,279.35462 -60.875631,278.78281 -60.85152,278.28387 -60.882415,277.37416 -60.998249,276.47027 -61.154255,275.57488 -61.540153,274.14664 -62.157549,272.79591 -62.706989,271.42645 L -63.206989,270.27606 C -63.910937,268.65035 -73.504154,246.7209 -74.248047,245.11328 L -74.373047,244.80078 C -74.997857,243.49312 -75.583145,242.16689 -76.201172,240.85547 -78.143433,236.68455 -80.108456,232.52314 -82.113281,228.38086 -87.932528,217.5458 -93.750449,206.70856 -99.574219,195.875 -99.8154,195.99409 -100.04744,196.12715 -100.28711,196.25 -94.66307,206.73761 -89.029262,217.22048 -83.398438,227.70508 -82.820364,228.73537 -82.326956,229.80883 -81.814453,230.87305 -79.670957,235.35298 -77.548152,239.84281 -75.478516,244.35742 -75.397864,244.52548 -75.227575,244.63089 -75.148438,244.80273 -75.021817,245.03337 -75.066834,245.31549 -74.939453,245.54688 -74.251333,247.03315 -64.733891,268.84956 -64.048786,270.3366 -65.054209,270.44814 -66.06859,270.47383 -67.080036,270.49871 -67.578226,269.22798 -76.943118,247.64513 -77.427734,246.36914 -77.585255,246.00661 -77.656098,245.59489 -77.929688,245.29492 -78.122632,245.05072 -78.045012,244.72206 -78.154297,244.44922 -80.312875,238.73022 -82.450805,233.00168 -84.791016,227.35352 -86.031583,224.36891 -87.32131,221.40291 -88.748047,218.50195 -90.049671,215.9002 -91.470096,213.36033 -92.927734,210.84375 -95.839996,205.84 -98.91111,200.93 -102.03516,196.05664 -107.18212,188.05169 -112.47824,180.14454 -117.88672,172.31445 Z M -63.609333,271.47918 C -63.517382,271.54474 -63.498921,271.66755 -63.449177,271.76629 -63.046714,272.72876 -62.643563,273.69318 -62.287067,274.67449 -62.117487,275.16967 -61.92155,275.66404 -61.871052,276.19012 -61.786639,276.73203 -61.734219,277.27725 -61.677692,277.82293 -61.667133,278.25328 -61.607389,278.72896 -61.831989,279.11785 -62.166635,279.25955 -62.516533,279.02451 -62.82027,278.89715 -63.383278,278.66878 -63.657611,278.09001 -63.962849,277.60614 -65.019523,275.67745 -65.822351,273.62473 -66.648396,271.59051 -65.635434,271.56942 -64.619278,271.56435 -63.609333,271.47918 Z"
           transform="translate(0,427.36218)"
           id="path3594"
           inkscape:connector-curvature="0"
           sodipodi:nodetypes="ccccccccccccccccccccccccccccccccccccccccccccccccc" />
        <path
           style="opacity:1;stroke-width:0.0753691;stop-opacity:1"
           inkscape:connector-curvature="0"
           d="M -135.13936,604.57713 C -134.9841,604.57864 -134.82658,604.57412 -134.67282,604.60804 -131.37919,605.30746 -128.12325,606.23224 -125.009,607.51879 -123.70737,608.08481 -122.39218,608.68249 -121.2918,609.5937 -120.87802,609.95623 -120.39867,610.43859 -120.51926,611.04229 -120.64739,611.58646 -121.22321,611.82915 -121.71688,611.93768 -122.98835,612.1962 -124.29676,612.11706 -125.58256,612.03943 -128.31921,611.82613 -131.03853,611.39502 -133.71187,610.77473 -130.44763,610.91718 -127.1849,611.23373 -123.91389,611.17947 -123.11347,611.11239 -122.26783,611.15459 -121.52092,610.81016 -121.97389,610.26901 -122.57985,609.88764 -123.17828,609.52662 -124.25305,608.90633 -125.38358,608.39006 -126.5209,607.89564 -129.14073,606.76736 -131.82387,605.7951 -134.48817,604.77762 -134.6977,604.68717 -134.91627,604.6216 -135.13936,604.57713 Z"
           id="path3596" />
        <path
           style="opacity:1;stroke-width:0.0753691;stop-opacity:1"
           inkscape:connector-curvature="0"
           d="M -132.47129,611.95652 C -130.58104,616.21714 -129.13772,620.65638 -127.41101,624.98332 -126.90604,626.20053 -126.41011,627.43507 -125.67903,628.53848 -125.58783,628.72539 -125.34816,628.67791 -125.17858,628.72764 -122.70873,629.2168 -120.26602,629.89888 -117.94767,630.88998 -116.97692,631.32562 -115.99787,631.79818 -115.19896,632.51494 -114.89447,632.80663 -114.56963,633.17517 -114.61636,633.6289 -114.6367,634.05096 -115.0143,634.34566 -115.38436,634.47604 -116.14258,634.73079 -116.9543,634.73381 -117.74567,634.73079 -119.6088,634.69688 -121.45534,634.41123 -123.28832,634.09543 -122.28591,635.33827 -121.30686,636.6007 -120.25772,637.80585 -118.24311,640.17319 -116.09886,642.43502 -113.78653,644.51521 -112.56028,645.59299 -111.29182,646.62403 -109.94949,647.55484 -108.60717,648.45852 -107.19928,649.26195 -105.75144,649.98474 -102.8633,651.45294 -99.852297,652.66411 -96.809647,653.77054 -94.570431,654.58452 -92.307097,655.32916 -90.030951,656.03311 -89.637524,656.14541 -89.252388,656.29314 -88.845395,656.35494 -89.241083,656.38509 -89.626219,656.27505 -90.014369,656.22153 -93.47984,655.60653 -96.890292,654.69757 -100.2201,653.56177 -103.07583,652.55484 -105.88484,651.38661 -108.51899,649.88451 -111.19761,648.34849 -113.59057,646.35347 -115.73935,644.1444 -118.6795,641.11305 -121.24355,637.71466 -123.36293,634.06152 -123.83097,633.9756 -124.29223,633.85501 -124.75952,633.76231 -123.77746,633.72462 -122.79616,633.80451 -121.8141,633.8113 -120.27958,633.83768 -118.74355,633.88516 -117.2098,633.79622 -116.71236,633.74422 -116.20664,633.70804 -115.72955,633.54675 -115.70845,633.46535 -115.73181,633.40129 -115.79814,633.35456 -116.43802,632.74482 -117.23467,632.33934 -118.01173,631.93536 -120.31877,630.80256 -122.73134,629.90869 -125.11149,628.94622 -125.3278,628.85201 -125.56898,628.81583 -125.76644,628.68168 -126.58119,627.95286 -127.25272,627.07707 -127.81874,626.144 -129.24322,623.78269 -130.23885,621.18924 -131.05585,618.56338 -131.64297,616.63694 -132.1178,614.67358 -132.40948,612.68006 -132.44944,612.44114 -132.4826,612.19921 -132.47129,611.95652 Z"
           id="path3598" />
        <path
           style="opacity:1;stroke-width:0.0753691;stop-opacity:1"
           inkscape:connector-curvature="0"
           d="M -80.9422,623.55884 C -80.586458,623.43976 -80.249565,623.80077 -80.240521,624.13918 -80.037771,626.24123 -79.957887,628.35457 -79.926232,630.46642 -79.911158,632.50515 -79.906636,634.54615 -80.027226,636.58186 -80.132743,638.4578 -80.300816,640.33675 -80.682191,642.17877 -80.893971,643.07039 -81.100482,644.00044 -81.64164,644.75941 -81.270824,643.91603 -81.168322,642.9905 -81.079386,642.0823 -80.904523,640.12421 -80.935431,638.15557 -80.935431,636.19221 -80.961811,634.83255 -81.00251,633.4744 -81.022106,632.11549 L -81.052246,632.06349 C -81.063551,631.03093 -81.124608,629.99913 -81.168314,628.96733 -82.302619,631.68363 -83.922301,634.17005 -85.715332,636.49293 -86.157002,637.05367 -86.605448,637.61065 -87.08781,638.13748 -85.416116,635.38877 -83.772324,632.60388 -82.542293,629.62379 -82.034305,628.34704 -81.568532,627.03109 -81.444927,625.65335 -81.400451,625.11747 -81.459239,624.58084 -81.435882,624.04497 -81.35673,623.82414 -81.153233,623.65305 -80.9422,623.55884 Z"
           id="path3600" />
        <path
           style="opacity:1;stroke-width:0.0753691;stop-opacity:1"
           inkscape:connector-curvature="0"
           d="M -77.997529,635.22597 C -77.880707,635.04358 -77.713388,634.88305 -77.506876,634.80843 -77.215952,634.71723 -76.945369,634.96896 -76.851912,635.22597 -76.791624,635.57267 -76.768252,635.9254 -76.754693,636.27813 L -76.726053,636.32636 C -76.502199,640.01719 -76.398943,643.72233 -76.592649,647.41768 -76.681577,649.34939 -76.847397,651.28336 -77.213691,653.18492 -77.350855,653.84892 -77.512906,654.51066 -77.757856,655.14452 -77.885237,655.45202 -78.021647,655.76405 -78.243986,656.01729 -77.931212,655.41735 -77.843784,654.733 -77.741282,654.07352 -77.476736,651.84335 -77.51216,649.59283 -77.524219,647.3506 -77.545322,645.64198 -77.586775,643.93337 -77.669674,642.22626 -77.693046,641.54944 -77.690023,640.86961 -77.767654,640.19657 -77.950047,640.78671 -78.251523,641.33238 -78.519837,641.88709 -79.24338,643.32589 -80.099581,644.69459 -81.019076,646.01581 -81.844368,647.1795 -82.700553,648.32738 -83.666792,649.37878 -82.050871,646.73936 -80.479433,644.05772 -79.260715,641.20727 -78.638167,639.68029 -78.043504,638.09226 -78.003551,636.42359 -77.97718,636.02489 -78.087218,635.61865 -77.997529,635.22597 Z"
           id="path3602" />
        <path
           style="opacity:1;stroke-width:0.0753691;stop-opacity:1"
           inkscape:connector-curvature="0"
           d="M -73.055578,648.54219 C -72.920675,648.06134 -72.148142,648.01386 -71.971017,648.48867 -71.769035,649.09992 -71.957458,649.75261 -72.079556,650.36235 -72.337311,653.77506 -72.641809,657.20435 -73.442229,660.54019 -73.713558,661.52452 -73.946456,662.56158 -74.556184,663.4012 -74.295407,662.59551 -74.192898,661.75213 -74.097186,660.91402 -73.914793,658.98006 -73.788166,657.04156 -73.657023,655.10382 -73.605026,654.42023 -73.549253,653.73587 -73.519859,653.05076 -74.409961,654.32299 -75.457598,655.48745 -76.621297,656.51548 -75.419906,654.66065 -74.134871,652.8239 -73.345749,650.74448 -73.211592,650.01716 -73.245508,649.26121 -73.055578,648.54219 Z"
           id="path3604" />
        <path
           style="opacity:1;stroke-width:0.0753691;stop-opacity:1"
           inkscape:connector-curvature="0"
           d="M -98.714985,657.70782 C -98.721014,657.44478 -98.665241,657.14405 -98.433858,656.98578 -98.200214,656.90514 -97.954511,657.00462 -97.765334,657.14481 -96.602389,657.99799 -95.235948,658.5007 -93.8989,659.01094 -91.211238,659.99829 -88.467042,660.82206 -85.736427,661.68279 -85.168898,661.84181 -84.620219,662.06717 -84.040623,662.18248 -84.834259,662.17269 -85.6083,661.97069 -86.389124,661.85086 -89.125775,661.33458 -91.843585,660.69244 -94.487532,659.81213 -92.190283,661.57275 -89.902831,663.34996 -87.524175,665.00129 -87.10513,665.299 -86.658184,665.55751 -86.246669,665.86653 -87.78043,665.21986 -89.229024,664.3923 -90.643701,663.51954 -93.005769,662.05135 -95.28493,660.45051 -97.483446,658.74791 -97.899491,658.408 -98.3404,658.09522 -98.714985,657.70782 Z"
           id="path3606" />
      </g>
    </g>
    <g
       id="g7980"
       style="opacity:1;stroke:none;stop-opacity:1"
       transform="translate(-664.20944,-205.78814)">
      <path
         sodipodi:nodetypes="cccccssccscccccccc"
         inkscape:connector-curvature="0"
         id="path8884"
         d="M 491.96636,853.74805 C 490.10862,853.83735 489.02377,855.88256 489.99175,857.4707 L 505.27886,895.95676 500.60894,918.08789 500.67144,917.77344 C 500.03986,920.09897 500.47359,922.55279 501.98199,924.00586 503.49038,925.45893 505.39146,925.84113 507.26519,926 511.01264,926.31774 515.29053,925.54109 518.17144,925.23828 521.47894,924.94516 520.95596,919.96489 517.65972,920.36523 514.49317,920.69807 510.35085,921.34566 507.67925,921.11914 506.34345,921.00588 505.53485,920.62345 505.38238,920.47656 505.2299,920.32968 505.04939,920.34939 505.39998,919.05859 505.42838,918.95466 505.44998,918.84896 505.46448,918.74219 L 510.24768,895.76926 C 510.32108,895.22516 510.20968,894.67215 509.93127,894.19895 L 494.21252,854.98047 C 493.75533,854.17979 492.88737,853.70354 491.96643,853.74805 Z"
         style="color:#000000;font-style:normal;font-variant:normal;font-weight:normal;font-stretch:normal;font-size:medium;line-height:normal;font-family:sans-serif;text-indent:0;text-align:start;text-decoration:none;text-decoration-line:none;text-decoration-style:solid;text-decoration-color:#000000;letter-spacing:normal;word-spacing:normal;text-transform:none;writing-mode:lr-tb;direction:ltr;baseline-shift:baseline;text-anchor:start;white-space:normal;clip-rule:nonzero;display:inline;overflow:visible;visibility:visible;opacity:1;isolation:auto;mix-blend-mode:normal;color-interpolation:sRGB;color-interpolation-filters:linearRGB;solid-color:#000000;solid-opacity:1;fill:#070707;fill-opacity:1;fill-rule:nonzero;stroke:none;stroke-width:4.9;stroke-linecap:round;stroke-linejoin:round;stroke-miterlimit:4;stroke-dasharray:none;stroke-dashoffset:0;stroke-opacity:1;color-rendering:auto;image-rendering:auto;shape-rendering:auto;text-rendering:auto;enable-background:accumulate" />
      <path
         sodipodi:nodetypes="ccccssccscccccccccc"
         inkscape:connector-curvature="0"
         id="path8888"
         d="M 471.5382,851.47544 C 470.02443,851.52834 468.84287,852.99653 469.26867,854.56724 L 471.93469,894.35472 465.63781,915.72349 C 464.51638,917.72576 464.30274,920.06625 465.30188,921.80552 466.34515,923.62163 468.0644,924.51903 469.81946,925.19419 473.32959,926.5445 477.65395,926.99204 480.505,927.50474 483.7631,928.14587 484.64943,923.21725 481.37219,922.68247 478.23846,922.11894 474.07968,921.58458 471.57727,920.62193 470.32606,920.1406 469.65733,919.54769 469.55188,919.36411 469.44641,919.18053 469.2673,919.15044 469.96399,918.00864 470.02029,917.91674 470.07066,917.82001 470.11438,917.72154 L 476.75891,895.5598 C 476.73961,895.5568 476.72711,895.5588 476.70811,895.5558 476.81283,895.13916 476.88535,894.62922 476.89365,893.964 L 474.0167,853.3523 C 473.80097,852.45588 473.09906,851.75587 472.20225,851.54176 471.97613,851.48776 471.75444,851.46776 471.53818,851.47536 Z"
         style="color:#000000;font-style:normal;font-variant:normal;font-weight:normal;font-stretch:normal;font-size:medium;line-height:normal;font-family:sans-serif;text-indent:0;text-align:start;text-decoration:none;text-decoration-line:none;text-decoration-style:solid;text-decoration-color:#000000;letter-spacing:normal;word-spacing:normal;text-transform:none;writing-mode:lr-tb;direction:ltr;baseline-shift:baseline;text-anchor:start;white-space:normal;clip-rule:nonzero;display:inline;overflow:visible;visibility:visible;opacity:1;isolation:auto;mix-blend-mode:normal;color-interpolation:sRGB;color-interpolation-filters:linearRGB;solid-color:#000000;solid-opacity:1;fill:#070707;fill-opacity:1;fill-rule:nonzero;stroke:none;stroke-width:4.9;stroke-linecap:round;stroke-linejoin:round;stroke-miterlimit:4;stroke-dasharray:none;stroke-dashoffset:0;stroke-opacity:1;color-rendering:auto;image-rendering:auto;shape-rendering:auto;text-rendering:auto;enable-background:accumulate" />
      <g
         transform="matrix(0.51768662,-0.10873851,0.10873851,0.51768662,118.27098,506.30502)"
         id="g8280"
         style="stroke:none">
        <g
           id="g8276"
           style="stroke:none">
          <path
             inkscape:connector-curvature="0"
             id="rect8264"
             transform="translate(0,427.36216)"
             d="M 583.42578,338.03125 C 581.18761,338.07575 577.55298,338.46232 571.34961,339.21289 553.75685,341.34149 532.41909,341.52619 510.19336,339.74219 494.64756,338.49436 493.25959,338.52035 491.69336,340.08789 490.24477,341.53771 490.00195,344.07323 490.00195,357.64062 490.00195,371.29134 490.24239,373.76808 491.73633,375.41797 493.67981,377.56433 500.98936,380.05115 510.00195,381.63281 513.30195,382.21194 517.12695,382.88336 518.50195,383.125 519.87695,383.36676 530.45195,383.40696 542.00195,383.2148 558.26092,382.94442 565.09682,382.41205 572.28711,380.85738 583.34237,378.46703 587.54584,376.25376 588.74805,372.19137 590.14802,367.46072 588.83635,340.61558 587.12109,338.90035 586.50611,338.28537 585.66396,337.98671 583.42578,338.03121 Z"
             style="opacity:1;fill:#ffffff;fill-opacity:1;fill-rule:nonzero;stroke:none;stroke-width:3.9;stroke-linecap:round;stroke-linejoin:round;stroke-miterlimit:4;stroke-dasharray:none;stroke-dashoffset:0;stroke-opacity:1" />
          <path
             inkscape:connector-curvature="0"
             id="path8266"
             transform="translate(0,427.36216)"
             d="M 530.51758,228.19336 C 527.18425,228.19336 526.01758,228.58225 526.01758,229.69336 526.01758,231.33882 527.17694,231.51149 531.89258,230.56836 536.52027,229.64282 535.68111,228.19336 530.51758,228.19336 Z M 514.73242,229.65039 C 510.79802,229.59959 502.01758,232.40432 502.01758,234.24805 502.01758,234.96973 502.67697,235.12522 503.76758,234.6582 504.73008,234.24604 507.54404,233.61748 510.02148,233.26172 515.07227,232.53644 517.30939,231.47694 516.51367,230.18945 516.2895,229.82674 515.64036,229.66209 514.73242,229.65039 Z M 582.63086,239.44727 C 580.23753,240.07981 574.17526,243.33336 572.85938,244.89844 569.95833,248.34887 575.58856,248.83043 580.58203,245.55859 582.30495,244.4297 583.62412,242.38269 583.86133,240.88281 Z M 563.22461,247.89258 C 562.87527,247.86908 562.47289,247.87548 562.01758,247.91598 560.64258,248.03834 554.71647,248.48834 548.84961,248.91598 538.00262,249.70663 535.40834,250.51727 538.04492,252.29293 540.22897,253.76382 558.94249,252.889 562.48828,251.15035 565.50132,249.67293 565.66996,248.05649 563.22461,247.89254 Z M 505.07812,279.90039 C 504.30433,279.88299 503.09107,281.53519 501.59961,284.79297 500.18408,287.8849 497.38959,291.91316 495.39062,293.74414 491.3662,297.42992 491.36286,300.19336 495.38062,300.19336 496.89959,300.19336 498.94952,298.89341 500.85718,296.7207 H 500.85918 C 503.98107,293.16505 506.00152,287.78452 506.01152,283.00195 506.01552,280.9374 505.67976,279.91389 505.07792,279.90039 Z M 484.63086,302.19336 C 481.1988,302.19336 473.01758,307.79882 473.01758,310.15039 473.01758,315.37246 496.28202,321.70898 516.76758,322.06641 520.75508,322.13601 524.01758,321.77604 524.01758,321.26562 524.01758,320.75518 521.43008,320.03746 518.26758,319.67188 498.65579,317.40474 485.01758,314.02199 485.01758,311.42383 485.01758,310.93878 486.14258,309.48511 487.51758,308.19336 491.46386,304.48602 490.36038,302.19336 484.63086,302.19336 Z M 599.98438,307.30078 C 599.14092,307.79352 598.16806,308.53339 597.05273,309.54102 593.35991,312.87726 589.66113,314.37707 576.01758,318.06641 L 572.51758,319.01172 577.15625,319.10152 C 579.70799,319.15112 585.55799,318.50171 590.15625,317.65621 602.28674,315.42572 603.94016,314.6562 604.00977,310.8066 L 599.98438,307.30074 Z"
             style="color:#000000;clip-rule:nonzero;display:inline;overflow:visible;visibility:visible;opacity:1;isolation:auto;mix-blend-mode:normal;color-interpolation:sRGB;color-interpolation-filters:linearRGB;solid-color:#000000;solid-opacity:1;fill:#ffffff;fill-opacity:1;fill-rule:nonzero;stroke:none;stroke-width:0;stroke-linecap:round;stroke-linejoin:round;stroke-miterlimit:4;stroke-dasharray:none;stroke-dashoffset:0;stroke-opacity:1;color-rendering:auto;image-rendering:auto;shape-rendering:auto;text-rendering:auto;enable-background:accumulate" />
        </g>
        <path
           sodipodi:nodetypes="ccsssssssssscccsscccscc"
           inkscape:connector-curvature="0"
           id="path8271"
           d="M 533.58543,649.31216 C 523.24421,649.55947 518.02282,650.61208 513.32372,651.08169 505.60454,652.37488 499.01485,654.65337 496.33934,656.95474 493.91758,659.03785 493.58687,660.03396 493.55419,665.34927 493.52459,670.16562 493.99432,672.02861 495.89012,674.59536 498.18067,677.69656 498.24764,678.29015 497.78465,691.43325 497.1785,708.64012 496.08555,711.54802 487.70848,718.26138 484.30251,720.99091 479.42045,724.64235 476.85887,726.37466 470.59053,730.61372 466.34489,734.99012 463.95262,739.67935 461.70815,744.07887 460.07291,763.33333 460.03661,785.78481 460.00911,802.80904 460.98685,805.26012 469.92137,810.56802 482.77297,818.20301 506.15697,825.31308 523.51708,826.86294 545.92592,828.86355 572.69968,825.56309 592.80223,818.32388 604.93892,813.62995 622.76145,810.77535 620.66318,798.54419 L 616.96434,741.3297 C 616.2756,738.83528 614.20215,736.17396 610.37645,732.87267 598.11272,722.29001 587.69439,711.82522 585.17333,707.55626 582.74121,703.43791 582.486,701.9745 582.16551,690.31407 L 581.8159,677.57384 584.91551,672.8922 C 591.16325,663.45983 588.08721,656.25665 576.1909,652.4586 570.54257,650.6553 566.05478,650.22911 547.01708,649.69103 Z"
           style="fill:#17bed0;fill-opacity:0.36;stroke:none;stroke-width:2.07946;stroke-miterlimit:4;stroke-dasharray:none;stroke-opacity:1" />
      </g>
      <path
         sodipodi:nodetypes="csscccc"
         inkscape:connector-curvature="0"
         id="path9779"
         d="M 440.98697,858.12186 C 442.82392,866.93806 444.48049,873.05039 449.68294,874.82669 457.16626,877.38176 470.04499,878.5198 479.20061,877.43443 491.01891,876.03342 504.52044,871.41348 514.14008,865.47991 519.91267,861.7302 528.82875,858.31442 526.41251,852.21067 L 521.38463,835.62631 C 507.55992,833.63651 451.18561,837.41753 440.98697,858.12186 Z"
         style="fill:#272727;fill-opacity:1;stroke:none;stroke-width:2.07946;stroke-miterlimit:4;stroke-dasharray:none;stroke-opacity:1" />
      <path
         style="fill:#060606;fill-opacity:0.897778;stroke:none;stroke-width:2.07946;stroke-miterlimit:4;stroke-dasharray:none;stroke-opacity:1"
         d="M 440.35965,857.56494 C 458.04402,860.81318 526.31654,847.94489 520.8543,834.56565 507.02959,832.57585 450.55829,836.86061 440.35965,857.56494 Z"
         id="path9781"
         inkscape:connector-curvature="0"
         sodipodi:nodetypes="ccc" />
      <g
         style="fill:#000000;fill-opacity:1;stroke:none"
         transform="matrix(0.10267217,0,0,0.10267217,369.47563,816.39503)"
         id="g9066">
        <path
           style="fill:#000000;fill-opacity:1;stroke:none"
           d="M 1082.125,1159.9872 C 1047.6733,1156.9201 1013.293,1144.4116 987.53269,1120.8381 962.37596,1123.6511 935.22745,1120.6762 913.88428,1106.0828 898.73248,1085.2244 908.19203,1059.18 909.58963,1035.9666 908.8414,1018.1948 918.34406,1001.6403 918.42766,983.60611 919.89422,963.77918 921.05913,943.46004 916.92924,924.00163 917.16354,908.47631 936.01421,906.14871 947.88137,904.73468 968.83339,901.50026 990.07401,899.01829 1011.2338,902.31791 1028.6681,905.7065 1052.5578,907.34085 1064.8844,917.01927 1061.0098,937.58966 1074.3041,955.35477 1078.8504,974.53736 1090.6188,1006.5894 1115.6459,1030.9756 1137.7888,1055.9842 1157.8161,1074.5552 1185.8801,1078.713 1211.8114,1082.1023 1229.9941,1088.7461 1223.9816,1113.3741 1237.6412,1124.0827 1227.6277,1145.3268 1201.4851,1147.1059 1181.3064,1151.4059 1148.9751,1159.0989 1115.3211,1162.5748 1082.125,1159.9872 Z"
           id="path9068"
           inkscape:connector-curvature="0" />
      </g>
      <g
         id="g9072"
         transform="matrix(0.10124681,-0.01704871,0.01704871,0.10124681,391.60373,832.11488)"
         style="fill:#000000;fill-opacity:1;stroke:none">
        <path
           style="fill:#000000;fill-opacity:1;stroke:none"
           d="M 1032.4215,1148.5911 C 1009.1939,1141.9237 992.66427,1116.274 966.43697,1119.9469 947.31685,1124.7611 926.86268,1115.276 912.88648,1102.6114 899.79468,1088.3695 905.91994,1068.9146 907.78003,1052.0325 909.55956,1031.1215 911.58956,1010.0127 918.27841,990.02269 922.65734,963.97122 914.47201,937.19372 921.41258,911.40625 958.53178,891.68463 1002.4855,895.70915 1042.2646,903.53288 1065.2298,903.34981 1065.2875,928.89332 1068.1468,943.94038 1074.8879,960.68953 1079.0646,978.37992 1088.4295,994.01418 1097.7194,1016.3915 1117.6345,1031.0877 1132.3279,1049.6025 1141.818,1063.2446 1156.8007,1071.5086 1173.144,1073.564 1189.9234,1076.8726 1210.5625,1078.1805 1219.9188,1094.9014 1228.7508,1107.1537 1244.6784,1128.192 1225.1508,1138.3411 1208.3468,1150.7805 1187.9272,1157.2891 1168.1734,1163.3621 1122.8751,1174.1463 1075.0638,1165.5582 1032.4215,1148.5911 Z"
           id="path9074"
           inkscape:connector-curvature="0" />
      </g>
      <g
         transform="matrix(0.51768662,-0.10873851,0.10873851,0.51768662,118.52098,506.30502)"
         id="g9773"
         style="fill:#000000;fill-opacity:1;stroke:none">
        <path
           inkscape:connector-curvature="0"
           id="path9775"
           d="M 582.23254,764.17694 C 579.99437,764.22144 576.35974,764.60801 570.15637,765.35858 552.56361,767.48718 531.22585,767.67188 509.00012,765.88788 493.45432,764.64005 492.06635,764.66604 490.50012,766.23358 489.05153,767.6834 488.80871,770.21892 488.80871,783.78631 488.80871,797.43703 489.04915,799.91377 490.54309,801.56366 492.48657,803.71002 499.79612,806.19684 508.80871,807.7785 512.10871,808.35763 515.93371,809.02905 517.30871,809.27069 518.68371,809.51245 529.25871,809.55265 540.80871,809.36049 557.06768,809.09011 563.90358,808.55774 571.09387,807.00307 582.14913,804.61272 586.3526,802.39945 587.55481,798.33706 588.95478,793.60641 587.64311,766.76127 585.92785,765.04604 585.31287,764.43106 584.47072,764.1324 582.23254,764.1769 Z"
           style="opacity:1;fill:#ffffff;fill-opacity:1;fill-rule:nonzero;stroke:none;stroke-width:3.9;stroke-linecap:round;stroke-linejoin:round;stroke-miterlimit:4;stroke-dasharray:none;stroke-dashoffset:0;stroke-opacity:1" />
      </g>
      <path
         inkscape:connector-curvature="0"
         id="path9796"
         d="M 487.56023,781.22573 C 484.38108,780.90033 481.92333,781.17923 472.00359,782.97182 L 464.99383,784.2394 464.98013,784.2414 C 459.62152,785.50145 456.9867,786.63056 454.6442,787.37226 L 454.6266,787.37826 454.609,787.38426 C 450.70297,788.91288 447.51551,790.75634 446.21837,792.45067 445.68596,793.14612 445.33738,793.74607 445.24962,794.51707 445.16192,795.28807 445.30472,796.15388 445.58751,797.54246 446.10322,800.07494 446.6531,801.19811 447.97619,802.37645 448.72708,803.04519 449.01067,803.30678 449.34923,804.33153 449.68779,805.35627 450.01643,807.14384 450.61095,810.56981 451.38778,815.04626 451.69549,817.65401 451.39611,819.60496 451.09672,821.55592 450.21546,822.93858 448.42931,825.11082 446.97376,826.881 444.83806,829.30783 443.72423,830.45848 440.89813,833.378 439.11437,836.17954 438.35314,838.98777 438.14684,839.74883 438.11389,840.86789 438.17345,842.3784 438.23305,843.88891 438.40174,845.76832 438.66759,847.93113 439.1993,852.25677 440.11771,857.71234 441.33166,863.53856 442.25229,867.95701 442.89551,870.50093 444.05627,872.24754 445.21702,873.99415 446.87742,874.80335 449.50548,875.70067 457.12415,878.30195 470.00512,879.43319 479.26525,878.33543 491.17529,876.92355 504.72253,872.28955 514.42931,866.30223 L 514.43531,866.29823 514.43931,866.29423 C 517.2811,864.44828 520.96492,862.65677 523.68735,860.51298 525.04857,859.44108 526.18188,858.27629 526.82407,856.92118 527.46627,855.56607 527.57681,854.01248 526.92367,852.36258 L 526.94317,852.41728 518.79083,823.1458 518.76543,823.095 C 518.05379,821.7161 516.59412,820.52058 514.21269,819.20437 510.474,817.138 506.97559,815.03563 504.19902,813.21414 501.42246,811.39264 499.34615,809.81682 498.55254,808.94851 497.71265,808.02957 497.27893,807.47203 496.83769,806.36648 496.39646,805.26093 495.96594,803.59056 495.2498,800.59304 L 493.72246,794.20437 494.75371,791.60672 C 495.89719,788.727 495.88848,786.25568 494.61699,784.43875 493.3455,782.62181 490.93268,781.57102 487.56035,781.22586 Z M 487.4489,782.32143 C 490.64813,782.64888 492.70942,783.63041 493.71648,785.06948 494.72354,786.50855 494.79734,788.51767 493.73208,791.20034 L 492.57195,794.12221 494.17937,800.84877 C 494.89708,803.85286 495.32652,805.5479 495.81609,806.77455 496.30566,808.00121 496.87291,808.74196 497.73992,809.69057 498.71562,810.75811 500.78907,812.29292 503.59539,814.13393 506.40171,815.97494 509.91856,818.08854 513.67937,820.16713 515.96209,821.42879 517.21951,822.52943 517.76922,823.57729 L 525.89031,852.7394 525.90201,852.7667 C 526.457,854.16868 526.36014,855.33109 525.82971,856.4503 525.29932,857.5695 524.29479,858.63579 523.00745,859.64951 520.43605,861.67438 516.7801,863.46332 513.8512,865.36436 504.3187,871.24418 490.86292,875.85118 479.13635,877.24131 470.08524,878.31429 457.20893,877.16811 449.86096,874.65928 447.28658,873.7803 445.95773,873.1206 444.97229,871.6378 443.98686,870.15499 443.32611,867.71133 442.40979,863.31358 441.20119,857.51301 440.28603,852.08026 439.7594,847.796 439.49609,845.65387 439.32886,843.7994 439.27112,842.33506 439.21342,840.87072 439.28012,839.77427 439.41565,839.27451 440.11152,836.70737 441.7732,834.05448 444.51526,831.22178 445.67689,830.02175 447.80164,827.60629 449.27893,825.80967 451.09947,823.59559 452.14623,821.97372 452.48401,819.77256 452.82179,817.5714 452.47501,814.87916 451.69495,810.38194 451.1,806.95355 450.78334,805.16339 450.39417,803.98545 450.00499,802.80751 449.47878,802.24145 448.70667,801.55381 447.50869,800.48689 447.16674,799.78403 446.66565,797.32334 446.38735,795.9567 446.28121,795.1688 446.34143,794.63975 446.40163,794.11069 446.59666,793.76455 447.09143,793.11826 448.06358,791.84844 451.20255,789.90007 455.00549,788.41123 455.00649,788.41065 455.00749,788.41023 455.00949,788.40923 457.41939,787.64381 459.95786,786.55416 465.22238,785.31548 465.22638,785.31452 465.22838,785.31449 465.23238,785.31348 L 472.19917,784.05371 C 482.10757,782.26316 484.388,782.00797 487.44917,782.32129 Z"
         style="color:#000000;font-style:normal;font-variant:normal;font-weight:normal;font-stretch:normal;font-size:medium;line-height:normal;font-family:sans-serif;text-indent:0;text-align:start;text-decoration:none;text-decoration-line:none;text-decoration-style:solid;text-decoration-color:#000000;letter-spacing:normal;word-spacing:normal;text-transform:none;writing-mode:lr-tb;direction:ltr;baseline-shift:baseline;text-anchor:start;white-space:normal;clip-rule:nonzero;display:inline;overflow:visible;visibility:visible;opacity:1;isolation:auto;mix-blend-mode:normal;color-interpolation:sRGB;color-interpolation-filters:linearRGB;solid-color:#000000;solid-opacity:1;fill:#abe7ee;fill-opacity:1;fill-rule:nonzero;stroke:none;stroke-width:1.1;stroke-linecap:butt;stroke-linejoin:miter;stroke-miterlimit:4;stroke-dasharray:none;stroke-dashoffset:0;stroke-opacity:1;color-rendering:auto;image-rendering:auto;shape-rendering:auto;text-rendering:auto;enable-background:accumulate" />
      <g
         id="g8841"
         transform="matrix(0.05654343,-0.01187678,0.01187678,0.05654343,470.24791,846.28667)"
         style="stroke:none">
        <path
           style="fill:#000000;fill-opacity:1;stroke:none"
           d="M 204.87912,32.522155 C 184.27839,27.364167 166.20568,41.497081 153.89752,56.409961 112.40967,98.943239 70.773215,141.33465 29.378407,183.95676 14.593281,197.34027 13.294063,226.58455 36.829348,230.46317 55.839182,237.69239 76.710902,238.77738 95.257418,247.38742 97.691758,268.02842 52.948607,261.34272 65.256399,281.95788 83.004717,294.50189 106.07362,296.99419 126.02899,305.35249 144.94261,306.93952 151.86019,326.89708 135.00222,336.86561 119.67313,360.77539 155.9681,355.11523 166.98012,365.46062 178.09334,376.39946 180.85836,396.70129 201.54406,390.65808 217.77612,386.01791 241.07657,384.25242 248.87728,367.19858 243.41279,360.48104 227.70411,353.07548 242.03146,343.886 258.16518,329.15241 283.45148,334.00873 298.5485,318.19254 315.54846,295.2871 274.22743,294.02457 271.39684,276.90056 285.39354,263.52326 307.19631,262.07803 324.74082,254.79537 344.49219,247.53955 367.45489,240.5473 379.61723,222.22664 387.17693,200.40896 365.17152,185.34922 352.27442,171.54198 309.08663,127.82036 266.83461,83.077809 222.89899,40.154214 217.55446,36.318937 211.34245,33.721712 204.87912,32.522155 Z M 203.66118,45.392348 C 223.23787,50.832179 233.34633,70.57613 248.19423,82.919416 256.43816,95.434154 283.09908,106.99617 273.8875,123.61028 266.26509,121.38783 261.1036,113.49247 254.13292,109.1553 247.52209,100.61252 247.42479,109.1103 246.55769,115.59425 245.43125,122.34075 244.30482,129.08726 243.17838,135.83376 235.83007,131.95295 228.48177,128.07214 221.13346,124.19133 209.3711,131.62269 197.60875,139.05405 185.84639,146.48541 181.94224,130.81229 178.03809,115.13916 174.13394,99.466039 167.81619,110.41294 161.49844,121.35985 155.18069,132.30675 142.58293,129.83499 122.22742,139.04769 116.96323,123.26873 118.97771,101.46724 143.15449,90.426672 155.33113,74.037233 169.20797,61.680065 182.00292,40.334663 203.66118,45.392348 Z M 353.06851,293.31892 C 338.77215,284.17981 305.75385,310.78753 333.617,314.2272 348.76773,322.51637 386.74114,309.02154 358.66177,295.09165 L 355.90422,294.04903 Z M 133.83123,254.83342 C 157.59761,261.89512 182.17573,265.52483 206.35337,270.82737 195.28233,290.1786 169.74431,271.35837 153.87145,267.73143 148.58323,264.58138 131.97474,262.88182 133.83123,254.83342 Z M 314.01048,323.04203 C 288.98877,338.27135 342.11673,357.36773 328.52991,330.58743 324.8037,326.40667 319.39022,324.15647 314.01048,323.04203 Z M 116.633,322.2395 C 95.064444,312.91382 77.553821,351.82506 106.89163,348.7149 119.19764,347.50308 142.84454,323.09071 116.633,322.2395 Z"
           id="path8843"
           inkscape:connector-curvature="0" />
      </g>
    </g>
  </g>
</svg>
